M48
;Layer_Color=9474304
;FILE_FORMAT=4:4
METRIC,LZ
;TYPE=PLATED
T1F00S00C0.2000
T2F00S00C1.6000
%
T01
X000575Y000175
Y000275
X0008Y0002
X0011
X0014
X0017
X002
X0023
X002175Y000425
Y000575
X0023Y0008
X00225Y00085
X00215Y00093
X00204
X00215Y0011
X00155
X00125
X00095
X00065
X00035
X000575Y000825
Y000725
X0008Y0008
X0011
X0014
X0017
X0026
X00271Y00093
X0028Y00085
X002825Y000675
Y0006
X0029
Y000675
X002975
Y0006
X0029Y000325
X0029Y0002
X002775Y00035
X002675
X00255Y00045
Y000525
Y0006
X00245
Y000525
Y00045
X0026Y0002
X0032
X0035
X0038
X0041
X004425Y000175
Y000275
Y000725
Y000825
X0041Y0008
X0038
X0035
X0034Y00076
Y00087
Y00098
Y00109
X00365Y0011
X00395
X00425
X00455
X00485
X00275
X00245
X0026Y0014
X0029
X0032
X0035
X0038
X0041
X0044
X0047
X004425Y001675
Y001775
X00425Y0017
X00395
X00365
X00335
X00305
X00275
X00245
X0025Y001875
Y00197
Y0020375
Y002105
Y00217
Y00223
Y00229
Y00235
Y00241
X00244
Y00235
Y00229
Y00223
Y00217
X00256
Y00223
Y00229
Y00235
Y00241
X00275Y0023
X00307Y0023
Y00241
Y00252
Y00263
X0032Y0026
X0035
X0038
X0041
X0044
X0047
X00485Y0029
X00455
X00425
X00395
X00365
X0038Y0032
X0041
X004425Y003175
Y003275
Y003725
Y003825
X0041Y0038
X0038
X0035
X0032Y00376
Y00387
Y00398
X00335Y0041
X00365
X00395
X00425
X00455
X00485
X0047Y0044
X0044
X0041
X0038
X0035
X00365Y0047
X00395
X00425
X004425Y004675
Y004775
X00335Y0047
X0029Y0044
X0026
X0027Y00458
X00267Y00487
Y00494
Y00506
X0025Y005035
Y004975
Y004915
X00245Y0047
Y0041
X00275
X00305
X0029Y0038
X0026
X00266Y00357
Y00344
X0025Y00342
Y00348
Y00354
X0026Y0032
X0027Y00309
X00275Y0029
X00305
X0032Y0032
X0035
X00365Y0023
X00395
X00425
X004425Y002325
Y002225
X00335Y0023
X00245Y0029
X00215
X00185
X00155
X00125
X00095
X00065
X00035
X0005Y0026
X0008
X0011
X0014
X0017
X00185Y0023
X00215
X0023Y0026
Y0032
X00235Y00342
X00234Y00358
X0023Y0038
X002
X0017
X0014
X0011
X0008
X000575Y003825
Y003725
X00065Y0041
X00095
X00125
X00155
X00185
X00215
X0023Y0044
X002
X0017
X0014
X0011
X0008
X0005
X0002
X00035Y0041
X000575Y004675
X00065Y0047
X000575Y004775
X00095Y0047
X00125
X00155
X00185
X00215
X00234Y00487
Y00493
X002Y0032
X0017
X0014
X0011
X0008
X000575Y003175
Y003275
Y002325
X00065Y0023
X000575Y002225
X00095Y0023
X00125
X00155
Y0017
X00185
X00215
X0023Y0014
X002
X0017
X0014
X0011
X0008
X0005
X0002
X000575Y001675
X00065Y0017
X000575Y001775
X00095Y0017
X00125
X0002Y0026
Y0056
X0005
X0008
X0011
X0014
X0017
X00185Y0059
X00215
X0023Y0062
X00241Y00633
X00234Y00642
X002Y0062
X0017
X0014
X0011
X0008
X000575Y006175
Y006275
Y006725
Y006825
X0008Y0068
X0011
X0014
X0017
X002
X00215Y0071
X00185
X00155
X00125
X00095
X00065
X00035
X0005Y0074
X0008
X0011
X0014
X0017
X002
X0023
X00215Y0077
X0022Y00785
X00233
Y00792
X00241Y00783
X0024Y00817
X00215Y0083
X00185
X00155
X00125
X00095
X00065
X000575Y008325
Y008225
X0005Y0086
X0008
X0011
X0014
X0017
X00185Y0089
X00215
X0023Y0086
X00155Y0089
X00125
X00095
X00065
X00035
X0002Y0086
X000575Y007775
Y007675
X00065Y0077
X00095
X00125
X00155
X00185
X0002Y0074
X00035Y0059
X00065
X00095
X00125
X00155
Y0053
X00185
X00215
X00242Y00517
X0023Y0056
X00125Y0053
X00095
X00065
X000575Y005325
Y005225
X00297Y00525
Y00536
Y00547
X0029Y0056
X0032
X0035
X0038
X0041
X0044
X0047
X00485Y0059
X00455
X00425
X00395
X00365
X0038Y0062
X0041
X004425Y006175
Y006275
Y006725
Y006825
X0041Y0068
X0038
X0035
X0032
X00297Y00681
Y00692
Y0067
X00267Y00657
X0025Y006535
Y006475
Y006415
X00259Y00633
X0026Y0062
X00274Y00606
X00275Y0059
X00305
X0032Y0062
X0035
X00365Y0071
X00395
X00425
X00455
X00485
X0047Y0074
X0044
X0041
X0038
X0035
X00365Y0077
X00395
X00425
X004425Y007675
Y007775
Y008225
Y008325
X00425Y0083
X00395
X00365
X00335
X00305
X00294Y0083
Y00841
Y00819
X00267Y00808
Y00793
X0025Y007915
Y007975
Y008035
X00248Y00824
X00245Y0077
X00271Y00754
X0026Y0074
X0029
X00305Y0077
X00335
Y0071
X00305
X00275
X0026Y0068
X00247Y00671
X00245Y0059
X00305Y0053
X00335
X00365
X00395
X00425
X004425Y005325
Y005225
X0044Y0086
X0047
X00485Y0089
X00455
X00425
X00395
X00365
X00335
X00305
X00275
X00245
X0029Y0086
X0032
X0035
X0038
X0041
Y0092
X0038
X0035
X0032
X0029
X00284Y00935
X00276
X0026Y0092
Y0098
X0029
X0032
X0035
X0038
X0041
X004425Y009825
Y009725
Y009275
Y009175
X0023Y0092
X00224Y00935
X00216
X002Y0092
X0017
X0014
X0011
X0008
X000575Y009175
Y009275
Y009725
Y009825
X0008Y0098
X0011
X0014
X0017
X002
X0023
T02
X00295Y00125
X00245Y00265
X00325Y003
Y0045
X00228Y004
X00173
X0019Y00265
X00185Y00125
X0024
X002Y00565
Y00715
Y0087
X00255
Y00715
X00325Y0075
Y006
X00255Y00565
M30
