G04*
G04 #@! TF.GenerationSoftware,Altium Limited,Altium Designer,20.2.6 (244)*
G04*
G04 Layer_Color=8388736*
%FSLAX44Y44*%
%MOMM*%
G71*
G04*
G04 #@! TF.SameCoordinates,69107643-4F9F-4E88-AEF3-5FE55586F8EB*
G04*
G04*
G04 #@! TF.FilePolarity,Negative*
G04*
G01*
G75*
%ADD32R,14.0000X2.0000*%
%ADD33R,3.0000X2.0000*%
%ADD34R,5.0000X2.0000*%
%ADD35R,3.0000X2.0000*%
%ADD36R,9.0000X2.0000*%
%ADD37R,7.0000X2.0000*%
%ADD38R,6.0000X2.0000*%
%ADD39R,8.0000X2.0000*%
%ADD40R,5.0000X2.0000*%
%ADD41R,7.0000X2.0000*%
%ADD42R,4.0000X2.0000*%
%ADD43R,0.7400X0.7500*%
%ADD44R,5.2000X1.2000*%
%ADD45R,5.2000X1.8000*%
%ADD46R,0.7500X0.7400*%
%ADD47R,0.8000X0.8400*%
%ADD48R,0.8400X0.8000*%
%ADD49R,0.8000X0.9500*%
%ADD50R,0.9000X2.0000*%
%ADD51R,0.8700X0.5000*%
%ADD52R,0.8604X0.5600*%
%ADD53R,0.9000X1.9000*%
%ADD54R,0.5300X0.3500*%
%ADD55R,1.2200X0.8400*%
%ADD56R,1.2200X0.8900*%
%ADD57R,1.0600X1.5000*%
%ADD58R,1.0600X2.1500*%
%ADD59R,1.9800X2.6100*%
%ADD60O,1.4000X0.5800*%
%ADD61C,2.3000*%
%ADD62C,0.7000*%
G36*
X259131Y245244D02*
X259259Y245218D01*
X259384Y245176D01*
X259501Y245118D01*
X259610Y245045D01*
X259709Y244959D01*
X259795Y244860D01*
X259868Y244751D01*
X259926Y244634D01*
X259968Y244509D01*
X259994Y244381D01*
X260002Y244250D01*
Y213250D01*
X259994Y213119D01*
X259968Y212991D01*
X259926Y212866D01*
X259868Y212749D01*
X259795Y212640D01*
X259709Y212541D01*
X259610Y212455D01*
X259501Y212382D01*
X259384Y212324D01*
X259259Y212282D01*
X259131Y212256D01*
X259000Y212248D01*
X241000D01*
X240869Y212256D01*
X240741Y212282D01*
X240616Y212324D01*
X240499Y212382D01*
X240390Y212455D01*
X240291Y212541D01*
X240205Y212640D01*
X240132Y212749D01*
X240074Y212866D01*
X240032Y212991D01*
X240007Y213119D01*
X239998Y213250D01*
Y244250D01*
X240007Y244381D01*
X240032Y244509D01*
X240074Y244634D01*
X240132Y244751D01*
X240205Y244860D01*
X240291Y244959D01*
X240390Y245045D01*
X240499Y245118D01*
X240616Y245176D01*
X240741Y245218D01*
X240869Y245244D01*
X241000Y245252D01*
X259000D01*
X259131Y245244D01*
D02*
G37*
D32*
X370000Y950000D02*
D03*
X130000D02*
D03*
D33*
X425000Y800000D02*
D03*
X335000Y50000D02*
D03*
D34*
X325000Y800000D02*
D03*
X175000D02*
D03*
X85000D02*
D03*
Y650000D02*
D03*
X415000D02*
D03*
X85000Y200000D02*
D03*
X415000D02*
D03*
Y50000D02*
D03*
X175000D02*
D03*
X85000D02*
D03*
D35*
X205000Y500000D02*
D03*
X315000D02*
D03*
D36*
X105000D02*
D03*
D37*
X185000Y650000D02*
D03*
Y200000D02*
D03*
D38*
X320000Y650000D02*
D03*
D39*
X400000Y500000D02*
D03*
D40*
X415000Y350000D02*
D03*
X325000D02*
D03*
X85000D02*
D03*
D41*
X185000D02*
D03*
D42*
X330000Y200000D02*
D03*
D43*
X220000Y950000D02*
D03*
Y942200D02*
D03*
X280000Y950000D02*
D03*
Y942200D02*
D03*
X399000Y792200D02*
D03*
Y800000D02*
D03*
X220000Y792200D02*
D03*
Y800000D02*
D03*
X290000Y41850D02*
D03*
Y49650D02*
D03*
D44*
X28000Y950000D02*
D03*
X472000D02*
D03*
Y50000D02*
D03*
Y200000D02*
D03*
X28000Y350000D02*
D03*
X472000D02*
D03*
X28000Y500000D02*
D03*
X472000D02*
D03*
X28000Y650000D02*
D03*
X472000D02*
D03*
X28000Y800000D02*
D03*
X472000D02*
D03*
X28000Y50000D02*
D03*
Y200000D02*
D03*
D45*
Y922300D02*
D03*
Y977700D02*
D03*
X472000D02*
D03*
Y922300D02*
D03*
Y22300D02*
D03*
Y77700D02*
D03*
Y172300D02*
D03*
Y227700D02*
D03*
X28000Y377700D02*
D03*
Y322300D02*
D03*
X472000D02*
D03*
Y377700D02*
D03*
X28000Y527700D02*
D03*
Y472300D02*
D03*
X472000D02*
D03*
Y527700D02*
D03*
X28000Y677700D02*
D03*
Y622300D02*
D03*
X472000D02*
D03*
Y677700D02*
D03*
X28000Y827700D02*
D03*
Y772300D02*
D03*
X472000D02*
D03*
Y827700D02*
D03*
X28000Y77700D02*
D03*
Y22300D02*
D03*
Y227700D02*
D03*
Y172300D02*
D03*
D46*
X246100Y950000D02*
D03*
X253900D02*
D03*
X126100Y800000D02*
D03*
X133900D02*
D03*
X366100D02*
D03*
X373900D02*
D03*
X133900Y50000D02*
D03*
X126100D02*
D03*
X126100Y350000D02*
D03*
X133900D02*
D03*
X366100D02*
D03*
X373900D02*
D03*
X165000Y500000D02*
D03*
X172800D02*
D03*
X340000D02*
D03*
X347800D02*
D03*
X366100Y50000D02*
D03*
X373900D02*
D03*
D47*
X286400Y841000D02*
D03*
X277600D02*
D03*
X286400Y830000D02*
D03*
X277600D02*
D03*
X286400Y819000D02*
D03*
X277600D02*
D03*
X289400Y692000D02*
D03*
X280600D02*
D03*
X289400Y681000D02*
D03*
X280600D02*
D03*
X289400Y670000D02*
D03*
X280600D02*
D03*
X289400Y547000D02*
D03*
X280600D02*
D03*
X289400Y536000D02*
D03*
X280600D02*
D03*
X289400Y525000D02*
D03*
X280600D02*
D03*
X311740Y397410D02*
D03*
X302940D02*
D03*
X311740Y386410D02*
D03*
X302940D02*
D03*
X311740Y375410D02*
D03*
X302940D02*
D03*
X299400Y262500D02*
D03*
X290600D02*
D03*
X299400Y251500D02*
D03*
X290600D02*
D03*
X299400Y240500D02*
D03*
X290600D02*
D03*
X299400Y229500D02*
D03*
X290600D02*
D03*
X332400Y108750D02*
D03*
X323600D02*
D03*
X332400Y97750D02*
D03*
X323600D02*
D03*
X332400Y86750D02*
D03*
X323600D02*
D03*
X332400Y75750D02*
D03*
X323600D02*
D03*
X134400Y200000D02*
D03*
X125600D02*
D03*
X374400D02*
D03*
X365600D02*
D03*
X125600Y650000D02*
D03*
X134400D02*
D03*
X365600D02*
D03*
X374400D02*
D03*
D48*
X240000Y833400D02*
D03*
Y824600D02*
D03*
X239000Y670600D02*
D03*
Y679400D02*
D03*
X242000Y533400D02*
D03*
Y524600D02*
D03*
X215000Y85150D02*
D03*
Y76350D02*
D03*
X271000Y85400D02*
D03*
Y76600D02*
D03*
X204000Y85150D02*
D03*
Y76350D02*
D03*
D49*
X228000Y832750D02*
D03*
Y821250D02*
D03*
X271000Y773750D02*
D03*
Y762250D02*
D03*
X282000Y773750D02*
D03*
Y762250D02*
D03*
X228000Y678750D02*
D03*
Y667250D02*
D03*
X274000Y625750D02*
D03*
Y614250D02*
D03*
X286000Y625750D02*
D03*
Y614250D02*
D03*
X270000Y477750D02*
D03*
Y466250D02*
D03*
X282000Y477750D02*
D03*
Y466250D02*
D03*
X230000Y532750D02*
D03*
Y521250D02*
D03*
X282440Y328160D02*
D03*
Y316660D02*
D03*
X270440Y328160D02*
D03*
Y316660D02*
D03*
D50*
X250000Y797500D02*
D03*
Y647500D02*
D03*
Y497500D02*
D03*
D51*
X258850Y805000D02*
D03*
Y800000D02*
D03*
Y795000D02*
D03*
Y790000D02*
D03*
X241150D02*
D03*
Y795000D02*
D03*
Y800000D02*
D03*
Y805000D02*
D03*
X258850Y655000D02*
D03*
Y650000D02*
D03*
Y645000D02*
D03*
Y640000D02*
D03*
X241150D02*
D03*
Y645000D02*
D03*
Y650000D02*
D03*
Y655000D02*
D03*
X258850Y505000D02*
D03*
Y500000D02*
D03*
Y495000D02*
D03*
Y490000D02*
D03*
X241150D02*
D03*
Y495000D02*
D03*
Y500000D02*
D03*
Y505000D02*
D03*
D52*
X277000Y800000D02*
D03*
Y808200D02*
D03*
X280000Y650000D02*
D03*
Y658200D02*
D03*
D53*
X250000Y348000D02*
D03*
D54*
X259150Y355500D02*
D03*
Y350500D02*
D03*
Y345500D02*
D03*
Y340500D02*
D03*
X240850D02*
D03*
Y345500D02*
D03*
Y350500D02*
D03*
Y355500D02*
D03*
D55*
X280000Y512800D02*
D03*
Y500000D02*
D03*
D56*
X281340Y350410D02*
D03*
Y364410D02*
D03*
X290000Y200500D02*
D03*
Y214500D02*
D03*
X308000Y49750D02*
D03*
Y63750D02*
D03*
D57*
X235000Y200500D02*
D03*
X265000D02*
D03*
D58*
X250000Y203750D02*
D03*
D59*
Y53000D02*
D03*
D60*
X229000Y62750D02*
D03*
Y56250D02*
D03*
Y49750D02*
D03*
Y43250D02*
D03*
X271000Y62750D02*
D03*
Y56250D02*
D03*
Y49750D02*
D03*
Y43250D02*
D03*
D61*
X200000Y870000D02*
D03*
X255000D02*
D03*
X325000Y750000D02*
D03*
Y600000D02*
D03*
X255000Y565000D02*
D03*
X200000D02*
D03*
X325000Y450000D02*
D03*
X190000Y265000D02*
D03*
X245000D02*
D03*
X325000Y300000D02*
D03*
X185000Y125000D02*
D03*
X295000D02*
D03*
X240000D02*
D03*
X173000Y400000D02*
D03*
X228000D02*
D03*
X200000Y715000D02*
D03*
X255000D02*
D03*
D62*
X250000Y797500D02*
D03*
Y803500D02*
D03*
Y791500D02*
D03*
Y647500D02*
D03*
Y653500D02*
D03*
Y641500D02*
D03*
Y354000D02*
D03*
Y348000D02*
D03*
Y342000D02*
D03*
Y497500D02*
D03*
Y503500D02*
D03*
Y491500D02*
D03*
X244000Y241000D02*
D03*
X250000D02*
D03*
X256000D02*
D03*
X244000Y235000D02*
D03*
X250000D02*
D03*
X256000D02*
D03*
X244000Y229000D02*
D03*
X250000D02*
D03*
X256000D02*
D03*
X244000Y223000D02*
D03*
X250000D02*
D03*
X256000D02*
D03*
X244000Y217000D02*
D03*
X256000D02*
D03*
X250000D02*
D03*
Y210500D02*
D03*
Y197000D02*
D03*
Y203750D02*
D03*
M02*
