G04*
G04 #@! TF.GenerationSoftware,Altium Limited,Altium Designer,20.2.6 (244)*
G04*
G04 Layer_Color=32768*
%FSLAX44Y44*%
%MOMM*%
G71*
G04*
G04 #@! TF.SameCoordinates,69107643-4F9F-4E88-AEF3-5FE55586F8EB*
G04*
G04*
G04 #@! TF.FilePolarity,Positive*
G04*
G01*
G75*
%ADD67C,0.1000*%
%ADD68C,0.0254*%
%ADD69C,0.0500*%
D67*
X200000Y865000D02*
Y875000D01*
X195000Y870000D02*
X205000D01*
X255000Y865000D02*
Y875000D01*
X250000Y870000D02*
X260000D01*
X325000Y745000D02*
Y755000D01*
X320000Y750000D02*
X330000D01*
X217400Y946100D02*
X222600D01*
X220000Y943500D02*
Y948700D01*
X277400Y946100D02*
X282600D01*
X280000Y943500D02*
Y948700D01*
X0Y910000D02*
X55950D01*
Y990000D01*
X0D02*
X55950D01*
X0Y910000D02*
Y990000D01*
X250000Y947400D02*
Y952600D01*
X247400Y950000D02*
X252600D01*
X444050Y990000D02*
X500000D01*
X444050Y910000D02*
Y990000D01*
Y910000D02*
X500000D01*
Y990000D01*
X279400Y841000D02*
X284600D01*
X282000Y838400D02*
Y843600D01*
X279400Y830000D02*
X284600D01*
X282000Y827400D02*
Y832600D01*
X279400Y819000D02*
X284600D01*
X282000Y816400D02*
Y821600D01*
X240000Y826400D02*
Y831600D01*
X237400Y829000D02*
X242600D01*
X225250Y827000D02*
X230750D01*
X228000Y824250D02*
Y829750D01*
X233500Y814750D02*
Y839250D01*
X222500Y814750D02*
Y839250D01*
X233500D01*
X222500Y814750D02*
X233500D01*
X268250Y768000D02*
X273750D01*
X271000Y765250D02*
Y770750D01*
X276500Y755750D02*
Y780250D01*
X265500Y755750D02*
Y780250D01*
X276500D01*
X265500Y755750D02*
X276500D01*
X279250Y768000D02*
X284750D01*
X282000Y765250D02*
Y770750D01*
X287500Y755750D02*
Y780250D01*
X276500Y755750D02*
Y780250D01*
X287500D01*
X276500Y755750D02*
X287500D01*
X325000Y595000D02*
Y605000D01*
X320000Y600000D02*
X330000D01*
X282400Y692000D02*
X287600D01*
X285000Y689400D02*
Y694600D01*
X282400Y681000D02*
X287600D01*
X285000Y678400D02*
Y683600D01*
X282400Y670000D02*
X287600D01*
X285000Y667400D02*
Y672600D01*
X239000Y672400D02*
Y677600D01*
X236400Y675000D02*
X241600D01*
X225250Y673000D02*
X230750D01*
X228000Y670250D02*
Y675750D01*
X233500Y660750D02*
Y685250D01*
X222500Y660750D02*
Y685250D01*
X233500D01*
X222500Y660750D02*
X233500D01*
X250000Y795500D02*
Y797500D01*
Y799500D01*
X248000Y797500D02*
X252000D01*
X250000Y645500D02*
Y647500D01*
Y649500D01*
X248000Y647500D02*
X252000D01*
X271250Y620000D02*
X276750D01*
X274000Y617250D02*
Y622750D01*
X279500Y607750D02*
Y632250D01*
X268500Y607750D02*
Y632250D01*
X279500D01*
X268500Y607750D02*
X279500D01*
X283250Y620000D02*
X288750D01*
X286000Y617250D02*
Y622750D01*
X291500Y607750D02*
Y632250D01*
X280500Y607750D02*
Y632250D01*
X291500D01*
X280500Y607750D02*
X291500D01*
X127400Y800000D02*
X132600D01*
X130000Y797400D02*
Y802600D01*
X367400Y800000D02*
X372600D01*
X370000Y797400D02*
Y802600D01*
X399000Y793500D02*
Y798700D01*
X396400Y796100D02*
X401600D01*
X277000Y801100D02*
Y807100D01*
X274000Y804100D02*
X280000D01*
X220000Y793500D02*
Y798700D01*
X217400Y796100D02*
X222600D01*
X280000Y651100D02*
Y657100D01*
X277000Y654100D02*
X283000D01*
X255000Y560000D02*
Y570000D01*
X250000Y565000D02*
X260000D01*
X200000Y560000D02*
Y570000D01*
X195000Y565000D02*
X205000D01*
X325000Y445000D02*
Y455000D01*
X320000Y450000D02*
X330000D01*
X267250Y472000D02*
X272750D01*
X270000Y469250D02*
Y474750D01*
X275500Y459750D02*
Y484250D01*
X264500Y459750D02*
Y484250D01*
X275500D01*
X264500Y459750D02*
X275500D01*
X279250Y472000D02*
X284750D01*
X282000Y469250D02*
Y474750D01*
X287500Y459750D02*
Y484250D01*
X276500Y459750D02*
Y484250D01*
X287500D01*
X276500Y459750D02*
X287500D01*
X282400Y547000D02*
X287600D01*
X285000Y544400D02*
Y549600D01*
X282400Y536000D02*
X287600D01*
X285000Y533400D02*
Y538600D01*
X282400Y525000D02*
X287600D01*
X285000Y522400D02*
Y527600D01*
X227250Y527000D02*
X232750D01*
X230000Y524250D02*
Y529750D01*
X235500Y514750D02*
Y539250D01*
X224500Y514750D02*
Y539250D01*
X235500D01*
X224500Y514750D02*
X235500D01*
X242000Y526400D02*
Y531600D01*
X239400Y529000D02*
X244600D01*
X250000Y346000D02*
Y348000D01*
Y350000D01*
X248000Y348000D02*
X252000D01*
X250000Y495500D02*
Y497500D01*
Y499500D01*
X248000Y497500D02*
X252000D01*
X272990Y517910D02*
X287010Y517909D01*
X287010Y494890D02*
X287010Y517909D01*
X272990Y494891D02*
X287010Y494890D01*
X272990Y494891D02*
X272990Y517910D01*
X304740Y397410D02*
X309940D01*
X307340Y394810D02*
Y400010D01*
X304740Y386410D02*
X309940D01*
X307340Y383810D02*
Y389010D01*
X278340Y357410D02*
X284340D01*
X281340Y354410D02*
Y360410D01*
X304740Y375410D02*
X309940D01*
X307340Y372810D02*
Y378010D01*
X190000Y260000D02*
Y270000D01*
X185000Y265000D02*
X195000D01*
X245000Y260000D02*
Y270000D01*
X240000Y265000D02*
X250000D01*
X325000Y295000D02*
Y305000D01*
X320000Y300000D02*
X330000D01*
X279690Y322410D02*
X285190D01*
X282440Y319660D02*
Y325160D01*
X287940Y310160D02*
Y334660D01*
X276940Y310160D02*
Y334660D01*
X287940D01*
X276940Y310160D02*
X287940D01*
X267690Y322410D02*
X273190D01*
X270440Y319660D02*
Y325160D01*
X275940Y310160D02*
Y334660D01*
X264940Y310160D02*
Y334660D01*
X275940D01*
X264940Y310160D02*
X275940D01*
X250000Y213225D02*
Y223225D01*
X245000Y218225D02*
X255000D01*
X287000Y207500D02*
X293000D01*
X290000Y204500D02*
Y210500D01*
X292400Y262500D02*
X297600D01*
X295000Y259900D02*
Y265100D01*
X292400Y251500D02*
X297600D01*
X295000Y248900D02*
Y254100D01*
X292400Y240500D02*
X297600D01*
X295000Y237900D02*
Y243100D01*
X292400Y229500D02*
X297600D01*
X295000Y226900D02*
Y232100D01*
Y120000D02*
Y130000D01*
X290000Y125000D02*
X300000D01*
X240000Y120000D02*
Y130000D01*
X235000Y125000D02*
X245000D01*
X185000Y120000D02*
Y130000D01*
X180000Y125000D02*
X190000D01*
X325400Y108750D02*
X330600D01*
X328000Y106150D02*
Y111350D01*
X325400Y97750D02*
X330600D01*
X328000Y95150D02*
Y100350D01*
X325400Y86750D02*
X330600D01*
X328000Y84150D02*
Y89350D01*
X325400Y75750D02*
X330600D01*
X328000Y73150D02*
Y78350D01*
X127400Y50000D02*
X132600D01*
X130000Y47400D02*
Y52600D01*
X215000Y78150D02*
Y83350D01*
X212400Y80750D02*
X217600D01*
X305000Y56750D02*
X311000D01*
X308000Y53750D02*
Y59750D01*
X271000Y78400D02*
Y83600D01*
X268400Y81000D02*
X273600D01*
X245000Y53000D02*
X255000D01*
X250000Y48000D02*
Y58000D01*
X204000Y78150D02*
Y83350D01*
X201400Y80750D02*
X206600D01*
X127400Y200000D02*
X132600D01*
X130000Y197400D02*
Y202600D01*
X367400Y200000D02*
X372600D01*
X370000Y197400D02*
Y202600D01*
X127400Y350000D02*
X132600D01*
X130000Y347400D02*
Y352600D01*
X367400Y350000D02*
X372600D01*
X370000Y347400D02*
Y352600D01*
X166300Y500000D02*
X171500D01*
X168900Y497400D02*
Y502600D01*
X341300Y500000D02*
X346500D01*
X343900Y497400D02*
Y502600D01*
X127400Y650000D02*
X132600D01*
X130000Y647400D02*
Y652600D01*
X367400Y650000D02*
X372600D01*
X370000Y647400D02*
Y652600D01*
X500000Y10000D02*
Y90000D01*
X444050Y10000D02*
X500000D01*
X444050D02*
Y90000D01*
X500000D01*
Y160000D02*
Y240000D01*
X444050Y160000D02*
X500000D01*
X444050D02*
Y240000D01*
X500000D01*
X0Y310000D02*
Y390000D01*
X55950D01*
Y310000D02*
Y390000D01*
X0Y310000D02*
X55950D01*
X500000D02*
Y390000D01*
X444050Y310000D02*
X500000D01*
X444050D02*
Y390000D01*
X500000D01*
X0Y460000D02*
Y540000D01*
X55950D01*
Y460000D02*
Y540000D01*
X0Y460000D02*
X55950D01*
X500000D02*
Y540000D01*
X444050Y460000D02*
X500000D01*
X444050D02*
Y540000D01*
X500000D01*
X0Y610000D02*
Y690000D01*
X55950D01*
Y610000D02*
Y690000D01*
X0Y610000D02*
X55950D01*
X500000D02*
Y690000D01*
X444050Y610000D02*
X500000D01*
X444050D02*
Y690000D01*
X500000D01*
X0Y760000D02*
Y840000D01*
X55950D01*
Y760000D02*
Y840000D01*
X0Y760000D02*
X55950D01*
X500000D02*
Y840000D01*
X444050Y760000D02*
X500000D01*
X444050D02*
Y840000D01*
X500000D01*
X173000Y395000D02*
Y405000D01*
X168000Y400000D02*
X178000D01*
X228000Y395000D02*
Y405000D01*
X223000Y400000D02*
X233000D01*
X200000Y710000D02*
Y720000D01*
X195000Y715000D02*
X205000D01*
X255000Y710000D02*
Y720000D01*
X250000Y715000D02*
X260000D01*
X367400Y50000D02*
X372600D01*
X370000Y47400D02*
Y52600D01*
X0Y10000D02*
Y90000D01*
X55950D01*
Y10000D02*
Y90000D01*
X0Y10000D02*
X55950D01*
X0Y160000D02*
Y240000D01*
X55950D01*
Y160000D02*
Y240000D01*
X0Y160000D02*
X55950D01*
X290000Y43150D02*
Y48350D01*
X287400Y45750D02*
X292600D01*
D68*
X280000Y505765D02*
Y507035D01*
X279365Y506400D02*
X280635D01*
D69*
X222500Y870000D02*
G03*
X222500Y870000I-22500J0D01*
G01*
X277500D02*
G03*
X277500Y870000I-22500J0D01*
G01*
X347500Y750000D02*
G03*
X347500Y750000I-22500J0D01*
G01*
Y600000D02*
G03*
X347500Y600000I-22500J0D01*
G01*
X277500Y565000D02*
G03*
X277500Y565000I-22500J0D01*
G01*
X222500D02*
G03*
X222500Y565000I-22500J0D01*
G01*
X347500Y450000D02*
G03*
X347500Y450000I-22500J0D01*
G01*
X212500Y265000D02*
G03*
X212500Y265000I-22500J0D01*
G01*
X267500D02*
G03*
X267500Y265000I-22500J0D01*
G01*
X347500Y300000D02*
G03*
X347500Y300000I-22500J0D01*
G01*
X317500Y125000D02*
G03*
X317500Y125000I-22500J0D01*
G01*
X262500D02*
G03*
X262500Y125000I-22500J0D01*
G01*
X207500D02*
G03*
X207500Y125000I-22500J0D01*
G01*
X195500Y400000D02*
G03*
X195500Y400000I-22500J0D01*
G01*
X250500D02*
G03*
X250500Y400000I-22500J0D01*
G01*
X222500Y715000D02*
G03*
X222500Y715000I-22500J0D01*
G01*
X277500D02*
G03*
X277500Y715000I-22500J0D01*
G01*
X224000Y938100D02*
Y954100D01*
X216000Y938100D02*
Y954100D01*
X224000D01*
X216000Y938100D02*
X224000D01*
X284000D02*
Y954100D01*
X276000Y938100D02*
Y954100D01*
X284000D01*
X276000Y938100D02*
X284000D01*
X242000Y954000D02*
X258000D01*
X242000Y946000D02*
X258000D01*
X242000D02*
Y954000D01*
X258000Y946000D02*
Y954000D01*
X291500Y836000D02*
Y846000D01*
X272500Y836000D02*
Y846000D01*
Y836000D02*
X291500D01*
X272500Y846000D02*
X291500D01*
Y825000D02*
Y835000D01*
X272500Y825000D02*
Y835000D01*
Y825000D02*
X291500D01*
X272500Y835000D02*
X291500D01*
Y814000D02*
Y824000D01*
X272500Y814000D02*
Y824000D01*
Y814000D02*
X291500D01*
X272500Y824000D02*
X291500D01*
X235000Y838500D02*
X245000D01*
X235000Y819500D02*
X245000D01*
Y838500D01*
X235000Y819500D02*
Y838500D01*
X294500Y687000D02*
Y697000D01*
X275500Y687000D02*
Y697000D01*
Y687000D02*
X294500D01*
X275500Y697000D02*
X294500D01*
Y676000D02*
Y686000D01*
X275500Y676000D02*
Y686000D01*
Y676000D02*
X294500D01*
X275500Y686000D02*
X294500D01*
Y665000D02*
Y675000D01*
X275500Y665000D02*
Y675000D01*
Y665000D02*
X294500D01*
X275500Y675000D02*
X294500D01*
X234000Y665500D02*
X244000D01*
X234000Y684500D02*
X244000D01*
X234000Y665500D02*
Y684500D01*
X244000Y665500D02*
Y684500D01*
X264250Y785500D02*
Y809500D01*
X235750Y785500D02*
X264250D01*
X235750D02*
Y809500D01*
X264250D01*
Y635500D02*
Y659500D01*
X235750Y635500D02*
X264250D01*
X235750D02*
Y659500D01*
X264250D01*
X122000Y796000D02*
Y804000D01*
X138000Y796000D02*
Y804000D01*
X122000D02*
X138000D01*
X122000Y796000D02*
X138000D01*
X362000D02*
Y804000D01*
X378000Y796000D02*
Y804000D01*
X362000D02*
X378000D01*
X362000Y796000D02*
X378000D01*
X395000Y788100D02*
X403000D01*
X395000Y804100D02*
X403000D01*
X395000Y788100D02*
Y804100D01*
X403000Y788100D02*
Y804100D01*
X271700Y796100D02*
Y812100D01*
Y796100D02*
X282300D01*
X271700Y812100D02*
X282300D01*
Y796100D02*
Y812100D01*
X216000Y788100D02*
X224000D01*
X216000Y804100D02*
X224000D01*
X216000Y788100D02*
Y804100D01*
X224000Y788100D02*
Y804100D01*
X274700Y646100D02*
Y662100D01*
Y646100D02*
X285300D01*
X274700Y662100D02*
X285300D01*
Y646100D02*
Y662100D01*
X294500Y542000D02*
Y552000D01*
X275500Y542000D02*
Y552000D01*
Y542000D02*
X294500D01*
X275500Y552000D02*
X294500D01*
Y531000D02*
Y541000D01*
X275500Y531000D02*
Y541000D01*
Y531000D02*
X294500D01*
X275500Y541000D02*
X294500D01*
Y520000D02*
Y530000D01*
X275500Y520000D02*
Y530000D01*
Y520000D02*
X294500D01*
X275500Y530000D02*
X294500D01*
X237000Y538500D02*
X247000D01*
X237000Y519500D02*
X247000D01*
Y538500D01*
X237000Y519500D02*
Y538500D01*
X263250Y336000D02*
Y360000D01*
X236750Y336000D02*
X263250D01*
X236750D02*
Y360000D01*
X263250D01*
X264250Y485500D02*
Y509500D01*
X235750Y485500D02*
X264250D01*
X235750D02*
Y509500D01*
X264250D01*
X316840Y392410D02*
Y402410D01*
X297840Y392410D02*
Y402410D01*
Y392410D02*
X316840D01*
X297840Y402410D02*
X316840D01*
Y381410D02*
Y391410D01*
X297840Y381410D02*
Y391410D01*
Y381410D02*
X316840D01*
X297840Y391410D02*
X316840D01*
X288840Y344660D02*
Y370160D01*
X273840D02*
X288840D01*
X273840Y344660D02*
X288840D01*
X273840D02*
Y370160D01*
X316840Y370410D02*
Y380410D01*
X297840Y370410D02*
Y380410D01*
Y370410D02*
X316840D01*
X297840Y380410D02*
X316840D01*
X224500Y190500D02*
X275500D01*
X224500Y237500D02*
X275500D01*
X224500Y190500D02*
Y237500D01*
X275500Y190500D02*
Y237500D01*
X297500Y194750D02*
Y220250D01*
X282500D02*
X297500D01*
X282500Y194750D02*
X297500D01*
X282500D02*
Y220250D01*
X304500Y257500D02*
Y267500D01*
X285500Y257500D02*
Y267500D01*
Y257500D02*
X304500D01*
X285500Y267500D02*
X304500D01*
Y246500D02*
Y256500D01*
X285500Y246500D02*
Y256500D01*
Y246500D02*
X304500D01*
X285500Y256500D02*
X304500D01*
Y235500D02*
Y245500D01*
X285500Y235500D02*
Y245500D01*
Y235500D02*
X304500D01*
X285500Y245500D02*
X304500D01*
Y224500D02*
Y234500D01*
X285500Y224500D02*
Y234500D01*
Y224500D02*
X304500D01*
X285500Y234500D02*
X304500D01*
X337500Y103750D02*
Y113750D01*
X318500Y103750D02*
Y113750D01*
Y103750D02*
X337500D01*
X318500Y113750D02*
X337500D01*
Y92750D02*
Y102750D01*
X318500Y92750D02*
Y102750D01*
Y92750D02*
X337500D01*
X318500Y102750D02*
X337500D01*
Y81750D02*
Y91750D01*
X318500Y81750D02*
Y91750D01*
Y81750D02*
X337500D01*
X318500Y91750D02*
X337500D01*
Y70750D02*
Y80750D01*
X318500Y70750D02*
Y80750D01*
Y70750D02*
X337500D01*
X318500Y80750D02*
X337500D01*
X138000Y46000D02*
Y54000D01*
X122000Y46000D02*
Y54000D01*
Y46000D02*
X138000D01*
X122000Y54000D02*
X138000D01*
X210000Y90250D02*
X220000D01*
X210000Y71250D02*
X220000D01*
Y90250D01*
X210000Y71250D02*
Y90250D01*
X315500Y44000D02*
Y69500D01*
X300500D02*
X315500D01*
X300500Y44000D02*
X315500D01*
X300500D02*
Y69500D01*
X266000Y90500D02*
X276000D01*
X266000Y71500D02*
X276000D01*
Y90500D01*
X266000Y71500D02*
Y90500D01*
X279000Y36000D02*
Y70000D01*
X221000Y36000D02*
Y70000D01*
X279000D01*
X221000Y36000D02*
X279000D01*
X199000Y90250D02*
X209000D01*
X199000Y71250D02*
X209000D01*
Y90250D01*
X199000Y71250D02*
Y90250D01*
X139500Y195000D02*
Y205000D01*
X120500Y195000D02*
Y205000D01*
Y195000D02*
X139500D01*
X120500Y205000D02*
X139500D01*
X379500Y195000D02*
Y205000D01*
X360500Y195000D02*
Y205000D01*
Y195000D02*
X379500D01*
X360500Y205000D02*
X379500D01*
X122000Y346000D02*
Y354000D01*
X138000Y346000D02*
Y354000D01*
X122000D02*
X138000D01*
X122000Y346000D02*
X138000D01*
X362000D02*
Y354000D01*
X378000Y346000D02*
Y354000D01*
X362000D02*
X378000D01*
X362000Y346000D02*
X378000D01*
X160900Y496000D02*
Y504000D01*
X176900Y496000D02*
Y504000D01*
X160900D02*
X176900D01*
X160900Y496000D02*
X176900D01*
X335900D02*
Y504000D01*
X351900Y496000D02*
Y504000D01*
X335900D02*
X351900D01*
X335900Y496000D02*
X351900D01*
X120500Y645000D02*
Y655000D01*
X139500Y645000D02*
Y655000D01*
X120500D02*
X139500D01*
X120500Y645000D02*
X139500D01*
X360500D02*
Y655000D01*
X379500Y645000D02*
Y655000D01*
X360500D02*
X379500D01*
X360500Y645000D02*
X379500D01*
X362000Y46000D02*
Y54000D01*
X378000Y46000D02*
Y54000D01*
X362000D02*
X378000D01*
X362000Y46000D02*
X378000D01*
X286000Y37750D02*
X294000D01*
X286000Y53750D02*
X294000D01*
X286000Y37750D02*
Y53750D01*
X294000Y37750D02*
Y53750D01*
M02*
