G04*
G04 #@! TF.GenerationSoftware,Altium Limited,Altium Designer,20.2.6 (244)*
G04*
G04 Layer_Color=2752767*
%FSLAX44Y44*%
%MOMM*%
G71*
G04*
G04 #@! TF.SameCoordinates,69107643-4F9F-4E88-AEF3-5FE55586F8EB*
G04*
G04*
G04 #@! TF.FilePolarity,Positive*
G04*
G01*
G75*
%ADD70C,0.0508*%
%ADD71C,0.0677*%
D70*
X197968Y867968D02*
Y872032D01*
X202032D01*
Y867968D01*
X197968D01*
X252968D02*
Y872032D01*
X257032D01*
Y867968D01*
X252968D01*
X322968Y747968D02*
Y752032D01*
X327032D01*
Y747968D01*
X322968D01*
Y597968D02*
Y602032D01*
X327032D01*
Y597968D01*
X322968D01*
X252968Y562968D02*
Y567032D01*
X257032D01*
Y562968D01*
X252968D01*
X197968D02*
Y567032D01*
X202032D01*
Y562968D01*
X197968D01*
X322968Y447968D02*
Y452032D01*
X327032D01*
Y447968D01*
X322968D01*
X187968Y262968D02*
Y267032D01*
X192032D01*
Y262968D01*
X187968D01*
X242968D02*
Y267032D01*
X247032D01*
Y262968D01*
X242968D01*
X322968Y297968D02*
Y302032D01*
X327032D01*
Y297968D01*
X322968D01*
X182968Y122968D02*
Y127032D01*
X187032D01*
Y122968D01*
X182968D01*
X292968D02*
Y127032D01*
X297032D01*
Y122968D01*
X292968D01*
X237968D02*
Y127032D01*
X242032D01*
Y122968D01*
X237968D01*
X170968Y397968D02*
Y402032D01*
X175032D01*
Y397968D01*
X170968D01*
X225968D02*
Y402032D01*
X230032D01*
Y397968D01*
X225968D01*
X197968Y712968D02*
Y717032D01*
X202032D01*
Y712968D01*
X197968D01*
X252968D02*
Y717032D01*
X257032D01*
Y712968D01*
X252968D01*
D71*
X487032Y890000D02*
G03*
X487032Y890000I-2032J0D01*
G01*
X472032Y860000D02*
G03*
X472032Y860000I-2032J0D01*
G01*
Y740000D02*
G03*
X472032Y740000I-2032J0D01*
G01*
X487032Y710000D02*
G03*
X487032Y710000I-2032J0D01*
G01*
Y590000D02*
G03*
X487032Y590000I-2032J0D01*
G01*
X472032Y560000D02*
G03*
X472032Y560000I-2032J0D01*
G01*
Y440000D02*
G03*
X472032Y440000I-2032J0D01*
G01*
X487032Y410000D02*
G03*
X487032Y410000I-2032J0D01*
G01*
Y290000D02*
G03*
X487032Y290000I-2032J0D01*
G01*
X472032Y260000D02*
G03*
X472032Y260000I-2032J0D01*
G01*
Y140000D02*
G03*
X472032Y140000I-2032J0D01*
G01*
X487032Y110000D02*
G03*
X487032Y110000I-2032J0D01*
G01*
X457032Y890000D02*
G03*
X457032Y890000I-2032J0D01*
G01*
X442032Y860000D02*
G03*
X442032Y860000I-2032J0D01*
G01*
Y740000D02*
G03*
X442032Y740000I-2032J0D01*
G01*
X457032Y710000D02*
G03*
X457032Y710000I-2032J0D01*
G01*
Y590000D02*
G03*
X457032Y590000I-2032J0D01*
G01*
X442032Y560000D02*
G03*
X442032Y560000I-2032J0D01*
G01*
Y440000D02*
G03*
X442032Y440000I-2032J0D01*
G01*
X457032Y410000D02*
G03*
X457032Y410000I-2032J0D01*
G01*
Y290000D02*
G03*
X457032Y290000I-2032J0D01*
G01*
X442032Y260000D02*
G03*
X442032Y260000I-2032J0D01*
G01*
Y140000D02*
G03*
X442032Y140000I-2032J0D01*
G01*
X457032Y110000D02*
G03*
X457032Y110000I-2032J0D01*
G01*
X412032Y980000D02*
G03*
X412032Y980000I-2032J0D01*
G01*
Y920000D02*
G03*
X412032Y920000I-2032J0D01*
G01*
X427032Y890000D02*
G03*
X427032Y890000I-2032J0D01*
G01*
X412032Y860000D02*
G03*
X412032Y860000I-2032J0D01*
G01*
X427032Y830000D02*
G03*
X427032Y830000I-2032J0D01*
G01*
Y770000D02*
G03*
X427032Y770000I-2032J0D01*
G01*
X412032Y740000D02*
G03*
X412032Y740000I-2032J0D01*
G01*
X427032Y710000D02*
G03*
X427032Y710000I-2032J0D01*
G01*
X412032Y680000D02*
G03*
X412032Y680000I-2032J0D01*
G01*
Y620000D02*
G03*
X412032Y620000I-2032J0D01*
G01*
X427032Y590000D02*
G03*
X427032Y590000I-2032J0D01*
G01*
X412032Y560000D02*
G03*
X412032Y560000I-2032J0D01*
G01*
X427032Y530000D02*
G03*
X427032Y530000I-2032J0D01*
G01*
Y470000D02*
G03*
X427032Y470000I-2032J0D01*
G01*
X412032Y440000D02*
G03*
X412032Y440000I-2032J0D01*
G01*
X427032Y410000D02*
G03*
X427032Y410000I-2032J0D01*
G01*
X412032Y380000D02*
G03*
X412032Y380000I-2032J0D01*
G01*
Y320000D02*
G03*
X412032Y320000I-2032J0D01*
G01*
X427032Y290000D02*
G03*
X427032Y290000I-2032J0D01*
G01*
X412032Y260000D02*
G03*
X412032Y260000I-2032J0D01*
G01*
X427032Y230000D02*
G03*
X427032Y230000I-2032J0D01*
G01*
Y170000D02*
G03*
X427032Y170000I-2032J0D01*
G01*
X412032Y140000D02*
G03*
X412032Y140000I-2032J0D01*
G01*
X427032Y110000D02*
G03*
X427032Y110000I-2032J0D01*
G01*
X412032Y80000D02*
G03*
X412032Y80000I-2032J0D01*
G01*
Y20000D02*
G03*
X412032Y20000I-2032J0D01*
G01*
X382032Y980000D02*
G03*
X382032Y980000I-2032J0D01*
G01*
Y920000D02*
G03*
X382032Y920000I-2032J0D01*
G01*
X397032Y890000D02*
G03*
X397032Y890000I-2032J0D01*
G01*
X382032Y860000D02*
G03*
X382032Y860000I-2032J0D01*
G01*
X397032Y830000D02*
G03*
X397032Y830000I-2032J0D01*
G01*
Y770000D02*
G03*
X397032Y770000I-2032J0D01*
G01*
X382032Y740000D02*
G03*
X382032Y740000I-2032J0D01*
G01*
X397032Y710000D02*
G03*
X397032Y710000I-2032J0D01*
G01*
X382032Y680000D02*
G03*
X382032Y680000I-2032J0D01*
G01*
Y620000D02*
G03*
X382032Y620000I-2032J0D01*
G01*
X397032Y590000D02*
G03*
X397032Y590000I-2032J0D01*
G01*
X382032Y560000D02*
G03*
X382032Y560000I-2032J0D01*
G01*
X397032Y530000D02*
G03*
X397032Y530000I-2032J0D01*
G01*
Y470000D02*
G03*
X397032Y470000I-2032J0D01*
G01*
X382032Y440000D02*
G03*
X382032Y440000I-2032J0D01*
G01*
X397032Y410000D02*
G03*
X397032Y410000I-2032J0D01*
G01*
X382032Y380000D02*
G03*
X382032Y380000I-2032J0D01*
G01*
Y320000D02*
G03*
X382032Y320000I-2032J0D01*
G01*
X397032Y290000D02*
G03*
X397032Y290000I-2032J0D01*
G01*
X382032Y260000D02*
G03*
X382032Y260000I-2032J0D01*
G01*
X397032Y230000D02*
G03*
X397032Y230000I-2032J0D01*
G01*
Y170000D02*
G03*
X397032Y170000I-2032J0D01*
G01*
X382032Y140000D02*
G03*
X382032Y140000I-2032J0D01*
G01*
X397032Y110000D02*
G03*
X397032Y110000I-2032J0D01*
G01*
X382032Y80000D02*
G03*
X382032Y80000I-2032J0D01*
G01*
Y20000D02*
G03*
X382032Y20000I-2032J0D01*
G01*
X352032Y980000D02*
G03*
X352032Y980000I-2032J0D01*
G01*
Y920000D02*
G03*
X352032Y920000I-2032J0D01*
G01*
X367032Y890000D02*
G03*
X367032Y890000I-2032J0D01*
G01*
X352032Y860000D02*
G03*
X352032Y860000I-2032J0D01*
G01*
X367032Y830000D02*
G03*
X367032Y830000I-2032J0D01*
G01*
Y770000D02*
G03*
X367032Y770000I-2032J0D01*
G01*
X352032Y740000D02*
G03*
X352032Y740000I-2032J0D01*
G01*
X367032Y710000D02*
G03*
X367032Y710000I-2032J0D01*
G01*
X352032Y680000D02*
G03*
X352032Y680000I-2032J0D01*
G01*
Y620000D02*
G03*
X352032Y620000I-2032J0D01*
G01*
X367032Y590000D02*
G03*
X367032Y590000I-2032J0D01*
G01*
X352032Y560000D02*
G03*
X352032Y560000I-2032J0D01*
G01*
X367032Y530000D02*
G03*
X367032Y530000I-2032J0D01*
G01*
Y470000D02*
G03*
X367032Y470000I-2032J0D01*
G01*
X352032Y440000D02*
G03*
X352032Y440000I-2032J0D01*
G01*
X367032Y410000D02*
G03*
X367032Y410000I-2032J0D01*
G01*
X352032Y380000D02*
G03*
X352032Y380000I-2032J0D01*
G01*
Y320000D02*
G03*
X352032Y320000I-2032J0D01*
G01*
X367032Y290000D02*
G03*
X367032Y290000I-2032J0D01*
G01*
X352032Y260000D02*
G03*
X352032Y260000I-2032J0D01*
G01*
X367032Y230000D02*
G03*
X367032Y230000I-2032J0D01*
G01*
Y170000D02*
G03*
X367032Y170000I-2032J0D01*
G01*
X352032Y140000D02*
G03*
X352032Y140000I-2032J0D01*
G01*
X367032Y110000D02*
G03*
X367032Y110000I-2032J0D01*
G01*
X352032Y80000D02*
G03*
X352032Y80000I-2032J0D01*
G01*
Y20000D02*
G03*
X352032Y20000I-2032J0D01*
G01*
X322032Y980000D02*
G03*
X322032Y980000I-2032J0D01*
G01*
Y920000D02*
G03*
X322032Y920000I-2032J0D01*
G01*
X337032Y890000D02*
G03*
X337032Y890000I-2032J0D01*
G01*
X322032Y860000D02*
G03*
X322032Y860000I-2032J0D01*
G01*
X337032Y830000D02*
G03*
X337032Y830000I-2032J0D01*
G01*
Y770000D02*
G03*
X337032Y770000I-2032J0D01*
G01*
Y710000D02*
G03*
X337032Y710000I-2032J0D01*
G01*
X322032Y680000D02*
G03*
X322032Y680000I-2032J0D01*
G01*
Y620000D02*
G03*
X322032Y620000I-2032J0D01*
G01*
Y560000D02*
G03*
X322032Y560000I-2032J0D01*
G01*
X337032Y530000D02*
G03*
X337032Y530000I-2032J0D01*
G01*
Y470000D02*
G03*
X337032Y470000I-2032J0D01*
G01*
Y410000D02*
G03*
X337032Y410000I-2032J0D01*
G01*
X322032Y320000D02*
G03*
X322032Y320000I-2032J0D01*
G01*
Y260000D02*
G03*
X322032Y260000I-2032J0D01*
G01*
X337032Y230000D02*
G03*
X337032Y230000I-2032J0D01*
G01*
Y170000D02*
G03*
X337032Y170000I-2032J0D01*
G01*
X322032Y140000D02*
G03*
X322032Y140000I-2032J0D01*
G01*
Y20000D02*
G03*
X322032Y20000I-2032J0D01*
G01*
X292032Y980000D02*
G03*
X292032Y980000I-2032J0D01*
G01*
Y920000D02*
G03*
X292032Y920000I-2032J0D01*
G01*
X307032Y890000D02*
G03*
X307032Y890000I-2032J0D01*
G01*
X292032Y860000D02*
G03*
X292032Y860000I-2032J0D01*
G01*
X307032Y830000D02*
G03*
X307032Y830000I-2032J0D01*
G01*
Y770000D02*
G03*
X307032Y770000I-2032J0D01*
G01*
X292032Y740000D02*
G03*
X292032Y740000I-2032J0D01*
G01*
X307032Y710000D02*
G03*
X307032Y710000I-2032J0D01*
G01*
Y590000D02*
G03*
X307032Y590000I-2032J0D01*
G01*
X292032Y560000D02*
G03*
X292032Y560000I-2032J0D01*
G01*
X307032Y530000D02*
G03*
X307032Y530000I-2032J0D01*
G01*
X292032Y440000D02*
G03*
X292032Y440000I-2032J0D01*
G01*
X307032Y410000D02*
G03*
X307032Y410000I-2032J0D01*
G01*
X292032Y380000D02*
G03*
X292032Y380000I-2032J0D01*
G01*
X307032Y290000D02*
G03*
X307032Y290000I-2032J0D01*
G01*
Y170000D02*
G03*
X307032Y170000I-2032J0D01*
G01*
X292032Y140000D02*
G03*
X292032Y140000I-2032J0D01*
G01*
Y20000D02*
G03*
X292032Y20000I-2032J0D01*
G01*
X262032Y980000D02*
G03*
X262032Y980000I-2032J0D01*
G01*
Y920000D02*
G03*
X262032Y920000I-2032J0D01*
G01*
X277032Y890000D02*
G03*
X277032Y890000I-2032J0D01*
G01*
X262032Y740000D02*
G03*
X262032Y740000I-2032J0D01*
G01*
X277032Y710000D02*
G03*
X277032Y710000I-2032J0D01*
G01*
X262032Y680000D02*
G03*
X262032Y680000I-2032J0D01*
G01*
Y620000D02*
G03*
X262032Y620000I-2032J0D01*
G01*
X277032Y590000D02*
G03*
X277032Y590000I-2032J0D01*
G01*
X262032Y440000D02*
G03*
X262032Y440000I-2032J0D01*
G01*
X277032Y410000D02*
G03*
X277032Y410000I-2032J0D01*
G01*
X262032Y380000D02*
G03*
X262032Y380000I-2032J0D01*
G01*
Y320000D02*
G03*
X262032Y320000I-2032J0D01*
G01*
X277032Y290000D02*
G03*
X277032Y290000I-2032J0D01*
G01*
Y230000D02*
G03*
X277032Y230000I-2032J0D01*
G01*
Y170000D02*
G03*
X277032Y170000I-2032J0D01*
G01*
X262032Y140000D02*
G03*
X262032Y140000I-2032J0D01*
G01*
X277032Y110000D02*
G03*
X277032Y110000I-2032J0D01*
G01*
X262032Y80000D02*
G03*
X262032Y80000I-2032J0D01*
G01*
Y20000D02*
G03*
X262032Y20000I-2032J0D01*
G01*
X232032Y980000D02*
G03*
X232032Y980000I-2032J0D01*
G01*
Y920000D02*
G03*
X232032Y920000I-2032J0D01*
G01*
X247032Y890000D02*
G03*
X247032Y890000I-2032J0D01*
G01*
X232032Y860000D02*
G03*
X232032Y860000I-2032J0D01*
G01*
X247032Y770000D02*
G03*
X247032Y770000I-2032J0D01*
G01*
X232032Y740000D02*
G03*
X232032Y740000I-2032J0D01*
G01*
Y620000D02*
G03*
X232032Y620000I-2032J0D01*
G01*
X247032Y590000D02*
G03*
X247032Y590000I-2032J0D01*
G01*
X232032Y560000D02*
G03*
X232032Y560000I-2032J0D01*
G01*
X247032Y470000D02*
G03*
X247032Y470000I-2032J0D01*
G01*
X232032Y440000D02*
G03*
X232032Y440000I-2032J0D01*
G01*
X247032Y410000D02*
G03*
X247032Y410000I-2032J0D01*
G01*
X232032Y380000D02*
G03*
X232032Y380000I-2032J0D01*
G01*
Y320000D02*
G03*
X232032Y320000I-2032J0D01*
G01*
X247032Y290000D02*
G03*
X247032Y290000I-2032J0D01*
G01*
X232032Y260000D02*
G03*
X232032Y260000I-2032J0D01*
G01*
X247032Y170000D02*
G03*
X247032Y170000I-2032J0D01*
G01*
X232032Y140000D02*
G03*
X232032Y140000I-2032J0D01*
G01*
X247032Y110000D02*
G03*
X247032Y110000I-2032J0D01*
G01*
X232032Y80000D02*
G03*
X232032Y80000I-2032J0D01*
G01*
Y20000D02*
G03*
X232032Y20000I-2032J0D01*
G01*
X202032Y980000D02*
G03*
X202032Y980000I-2032J0D01*
G01*
Y920000D02*
G03*
X202032Y920000I-2032J0D01*
G01*
X217032Y890000D02*
G03*
X217032Y890000I-2032J0D01*
G01*
Y830000D02*
G03*
X217032Y830000I-2032J0D01*
G01*
Y770000D02*
G03*
X217032Y770000I-2032J0D01*
G01*
X202032Y740000D02*
G03*
X202032Y740000I-2032J0D01*
G01*
X217032Y710000D02*
G03*
X217032Y710000I-2032J0D01*
G01*
X202032Y680000D02*
G03*
X202032Y680000I-2032J0D01*
G01*
Y620000D02*
G03*
X202032Y620000I-2032J0D01*
G01*
X217032Y590000D02*
G03*
X217032Y590000I-2032J0D01*
G01*
Y530000D02*
G03*
X217032Y530000I-2032J0D01*
G01*
Y470000D02*
G03*
X217032Y470000I-2032J0D01*
G01*
X202032Y440000D02*
G03*
X202032Y440000I-2032J0D01*
G01*
X217032Y410000D02*
G03*
X217032Y410000I-2032J0D01*
G01*
X202032Y380000D02*
G03*
X202032Y380000I-2032J0D01*
G01*
Y320000D02*
G03*
X202032Y320000I-2032J0D01*
G01*
X217032Y290000D02*
G03*
X217032Y290000I-2032J0D01*
G01*
Y230000D02*
G03*
X217032Y230000I-2032J0D01*
G01*
Y170000D02*
G03*
X217032Y170000I-2032J0D01*
G01*
X202032Y140000D02*
G03*
X202032Y140000I-2032J0D01*
G01*
X217032Y110000D02*
G03*
X217032Y110000I-2032J0D01*
G01*
X202032Y20000D02*
G03*
X202032Y20000I-2032J0D01*
G01*
X172032Y980000D02*
G03*
X172032Y980000I-2032J0D01*
G01*
Y920000D02*
G03*
X172032Y920000I-2032J0D01*
G01*
X187032Y890000D02*
G03*
X187032Y890000I-2032J0D01*
G01*
X172032Y860000D02*
G03*
X172032Y860000I-2032J0D01*
G01*
X187032Y830000D02*
G03*
X187032Y830000I-2032J0D01*
G01*
Y770000D02*
G03*
X187032Y770000I-2032J0D01*
G01*
X172032Y740000D02*
G03*
X172032Y740000I-2032J0D01*
G01*
X187032Y710000D02*
G03*
X187032Y710000I-2032J0D01*
G01*
X172032Y680000D02*
G03*
X172032Y680000I-2032J0D01*
G01*
Y620000D02*
G03*
X172032Y620000I-2032J0D01*
G01*
X187032Y590000D02*
G03*
X187032Y590000I-2032J0D01*
G01*
X172032Y560000D02*
G03*
X172032Y560000I-2032J0D01*
G01*
X187032Y530000D02*
G03*
X187032Y530000I-2032J0D01*
G01*
Y470000D02*
G03*
X187032Y470000I-2032J0D01*
G01*
X172032Y440000D02*
G03*
X172032Y440000I-2032J0D01*
G01*
X187032Y410000D02*
G03*
X187032Y410000I-2032J0D01*
G01*
X172032Y380000D02*
G03*
X172032Y380000I-2032J0D01*
G01*
Y320000D02*
G03*
X172032Y320000I-2032J0D01*
G01*
X187032Y290000D02*
G03*
X187032Y290000I-2032J0D01*
G01*
X172032Y260000D02*
G03*
X172032Y260000I-2032J0D01*
G01*
X187032Y230000D02*
G03*
X187032Y230000I-2032J0D01*
G01*
Y170000D02*
G03*
X187032Y170000I-2032J0D01*
G01*
X172032Y140000D02*
G03*
X172032Y140000I-2032J0D01*
G01*
Y80000D02*
G03*
X172032Y80000I-2032J0D01*
G01*
Y20000D02*
G03*
X172032Y20000I-2032J0D01*
G01*
X142032Y980000D02*
G03*
X142032Y980000I-2032J0D01*
G01*
Y920000D02*
G03*
X142032Y920000I-2032J0D01*
G01*
X157032Y890000D02*
G03*
X157032Y890000I-2032J0D01*
G01*
X142032Y860000D02*
G03*
X142032Y860000I-2032J0D01*
G01*
X157032Y830000D02*
G03*
X157032Y830000I-2032J0D01*
G01*
Y770000D02*
G03*
X157032Y770000I-2032J0D01*
G01*
X142032Y740000D02*
G03*
X142032Y740000I-2032J0D01*
G01*
X157032Y710000D02*
G03*
X157032Y710000I-2032J0D01*
G01*
X142032Y680000D02*
G03*
X142032Y680000I-2032J0D01*
G01*
Y620000D02*
G03*
X142032Y620000I-2032J0D01*
G01*
X157032Y590000D02*
G03*
X157032Y590000I-2032J0D01*
G01*
X142032Y560000D02*
G03*
X142032Y560000I-2032J0D01*
G01*
X157032Y530000D02*
G03*
X157032Y530000I-2032J0D01*
G01*
Y470000D02*
G03*
X157032Y470000I-2032J0D01*
G01*
X142032Y440000D02*
G03*
X142032Y440000I-2032J0D01*
G01*
X157032Y410000D02*
G03*
X157032Y410000I-2032J0D01*
G01*
X142032Y380000D02*
G03*
X142032Y380000I-2032J0D01*
G01*
Y320000D02*
G03*
X142032Y320000I-2032J0D01*
G01*
X157032Y290000D02*
G03*
X157032Y290000I-2032J0D01*
G01*
X142032Y260000D02*
G03*
X142032Y260000I-2032J0D01*
G01*
X157032Y230000D02*
G03*
X157032Y230000I-2032J0D01*
G01*
Y170000D02*
G03*
X157032Y170000I-2032J0D01*
G01*
X142032Y140000D02*
G03*
X142032Y140000I-2032J0D01*
G01*
X157032Y110000D02*
G03*
X157032Y110000I-2032J0D01*
G01*
X142032Y80000D02*
G03*
X142032Y80000I-2032J0D01*
G01*
Y20000D02*
G03*
X142032Y20000I-2032J0D01*
G01*
X112032Y980000D02*
G03*
X112032Y980000I-2032J0D01*
G01*
Y920000D02*
G03*
X112032Y920000I-2032J0D01*
G01*
X127032Y890000D02*
G03*
X127032Y890000I-2032J0D01*
G01*
X112032Y860000D02*
G03*
X112032Y860000I-2032J0D01*
G01*
X127032Y830000D02*
G03*
X127032Y830000I-2032J0D01*
G01*
Y770000D02*
G03*
X127032Y770000I-2032J0D01*
G01*
X112032Y740000D02*
G03*
X112032Y740000I-2032J0D01*
G01*
X127032Y710000D02*
G03*
X127032Y710000I-2032J0D01*
G01*
X112032Y680000D02*
G03*
X112032Y680000I-2032J0D01*
G01*
Y620000D02*
G03*
X112032Y620000I-2032J0D01*
G01*
X127032Y590000D02*
G03*
X127032Y590000I-2032J0D01*
G01*
X112032Y560000D02*
G03*
X112032Y560000I-2032J0D01*
G01*
X127032Y530000D02*
G03*
X127032Y530000I-2032J0D01*
G01*
Y470000D02*
G03*
X127032Y470000I-2032J0D01*
G01*
X112032Y440000D02*
G03*
X112032Y440000I-2032J0D01*
G01*
X127032Y410000D02*
G03*
X127032Y410000I-2032J0D01*
G01*
X112032Y380000D02*
G03*
X112032Y380000I-2032J0D01*
G01*
Y320000D02*
G03*
X112032Y320000I-2032J0D01*
G01*
X127032Y290000D02*
G03*
X127032Y290000I-2032J0D01*
G01*
X112032Y260000D02*
G03*
X112032Y260000I-2032J0D01*
G01*
X127032Y230000D02*
G03*
X127032Y230000I-2032J0D01*
G01*
Y170000D02*
G03*
X127032Y170000I-2032J0D01*
G01*
X112032Y140000D02*
G03*
X112032Y140000I-2032J0D01*
G01*
X127032Y110000D02*
G03*
X127032Y110000I-2032J0D01*
G01*
X112032Y80000D02*
G03*
X112032Y80000I-2032J0D01*
G01*
Y20000D02*
G03*
X112032Y20000I-2032J0D01*
G01*
X82032Y980000D02*
G03*
X82032Y980000I-2032J0D01*
G01*
Y920000D02*
G03*
X82032Y920000I-2032J0D01*
G01*
X97032Y890000D02*
G03*
X97032Y890000I-2032J0D01*
G01*
X82032Y860000D02*
G03*
X82032Y860000I-2032J0D01*
G01*
X97032Y830000D02*
G03*
X97032Y830000I-2032J0D01*
G01*
Y770000D02*
G03*
X97032Y770000I-2032J0D01*
G01*
X82032Y740000D02*
G03*
X82032Y740000I-2032J0D01*
G01*
X97032Y710000D02*
G03*
X97032Y710000I-2032J0D01*
G01*
X82032Y680000D02*
G03*
X82032Y680000I-2032J0D01*
G01*
Y620000D02*
G03*
X82032Y620000I-2032J0D01*
G01*
X97032Y590000D02*
G03*
X97032Y590000I-2032J0D01*
G01*
X82032Y560000D02*
G03*
X82032Y560000I-2032J0D01*
G01*
X97032Y530000D02*
G03*
X97032Y530000I-2032J0D01*
G01*
Y470000D02*
G03*
X97032Y470000I-2032J0D01*
G01*
X82032Y440000D02*
G03*
X82032Y440000I-2032J0D01*
G01*
X97032Y410000D02*
G03*
X97032Y410000I-2032J0D01*
G01*
X82032Y380000D02*
G03*
X82032Y380000I-2032J0D01*
G01*
Y320000D02*
G03*
X82032Y320000I-2032J0D01*
G01*
X97032Y290000D02*
G03*
X97032Y290000I-2032J0D01*
G01*
X82032Y260000D02*
G03*
X82032Y260000I-2032J0D01*
G01*
X97032Y230000D02*
G03*
X97032Y230000I-2032J0D01*
G01*
Y170000D02*
G03*
X97032Y170000I-2032J0D01*
G01*
X82032Y140000D02*
G03*
X82032Y140000I-2032J0D01*
G01*
X97032Y110000D02*
G03*
X97032Y110000I-2032J0D01*
G01*
X82032Y80000D02*
G03*
X82032Y80000I-2032J0D01*
G01*
Y20000D02*
G03*
X82032Y20000I-2032J0D01*
G01*
X67032Y890000D02*
G03*
X67032Y890000I-2032J0D01*
G01*
X52032Y860000D02*
G03*
X52032Y860000I-2032J0D01*
G01*
X67032Y830000D02*
G03*
X67032Y830000I-2032J0D01*
G01*
Y770000D02*
G03*
X67032Y770000I-2032J0D01*
G01*
X52032Y740000D02*
G03*
X52032Y740000I-2032J0D01*
G01*
X67032Y710000D02*
G03*
X67032Y710000I-2032J0D01*
G01*
Y590000D02*
G03*
X67032Y590000I-2032J0D01*
G01*
X52032Y560000D02*
G03*
X52032Y560000I-2032J0D01*
G01*
X67032Y530000D02*
G03*
X67032Y530000I-2032J0D01*
G01*
Y470000D02*
G03*
X67032Y470000I-2032J0D01*
G01*
X52032Y440000D02*
G03*
X52032Y440000I-2032J0D01*
G01*
X67032Y410000D02*
G03*
X67032Y410000I-2032J0D01*
G01*
Y290000D02*
G03*
X67032Y290000I-2032J0D01*
G01*
X52032Y260000D02*
G03*
X52032Y260000I-2032J0D01*
G01*
X67032Y230000D02*
G03*
X67032Y230000I-2032J0D01*
G01*
Y170000D02*
G03*
X67032Y170000I-2032J0D01*
G01*
X52032Y140000D02*
G03*
X52032Y140000I-2032J0D01*
G01*
X67032Y110000D02*
G03*
X67032Y110000I-2032J0D01*
G01*
X37032Y890000D02*
G03*
X37032Y890000I-2032J0D01*
G01*
X22032Y860000D02*
G03*
X22032Y860000I-2032J0D01*
G01*
Y740000D02*
G03*
X22032Y740000I-2032J0D01*
G01*
X37032Y710000D02*
G03*
X37032Y710000I-2032J0D01*
G01*
Y590000D02*
G03*
X37032Y590000I-2032J0D01*
G01*
X22032Y560000D02*
G03*
X22032Y560000I-2032J0D01*
G01*
Y440000D02*
G03*
X22032Y440000I-2032J0D01*
G01*
X37032Y410000D02*
G03*
X37032Y410000I-2032J0D01*
G01*
Y290000D02*
G03*
X37032Y290000I-2032J0D01*
G01*
X22032Y260000D02*
G03*
X22032Y260000I-2032J0D01*
G01*
Y140000D02*
G03*
X22032Y140000I-2032J0D01*
G01*
X37032Y110000D02*
G03*
X37032Y110000I-2032J0D01*
G01*
X444532Y832500D02*
G03*
X444532Y832500I-2032J0D01*
G01*
Y822500D02*
G03*
X444532Y822500I-2032J0D01*
G01*
Y777500D02*
G03*
X444532Y777500I-2032J0D01*
G01*
Y767500D02*
G03*
X444532Y767500I-2032J0D01*
G01*
Y682500D02*
G03*
X444532Y682500I-2032J0D01*
G01*
Y672500D02*
G03*
X444532Y672500I-2032J0D01*
G01*
Y627500D02*
G03*
X444532Y627500I-2032J0D01*
G01*
Y617500D02*
G03*
X444532Y617500I-2032J0D01*
G01*
Y532500D02*
G03*
X444532Y532500I-2032J0D01*
G01*
Y522500D02*
G03*
X444532Y522500I-2032J0D01*
G01*
Y477500D02*
G03*
X444532Y477500I-2032J0D01*
G01*
Y467500D02*
G03*
X444532Y467500I-2032J0D01*
G01*
Y382500D02*
G03*
X444532Y382500I-2032J0D01*
G01*
Y372500D02*
G03*
X444532Y372500I-2032J0D01*
G01*
Y327500D02*
G03*
X444532Y327500I-2032J0D01*
G01*
Y317500D02*
G03*
X444532Y317500I-2032J0D01*
G01*
Y232500D02*
G03*
X444532Y232500I-2032J0D01*
G01*
Y222500D02*
G03*
X444532Y222500I-2032J0D01*
G01*
Y177500D02*
G03*
X444532Y177500I-2032J0D01*
G01*
Y167500D02*
G03*
X444532Y167500I-2032J0D01*
G01*
Y82500D02*
G03*
X444532Y82500I-2032J0D01*
G01*
Y72500D02*
G03*
X444532Y72500I-2032J0D01*
G01*
Y27500D02*
G03*
X444532Y27500I-2032J0D01*
G01*
Y17500D02*
G03*
X444532Y17500I-2032J0D01*
G01*
X59532D02*
G03*
X59532Y17500I-2032J0D01*
G01*
Y27500D02*
G03*
X59532Y27500I-2032J0D01*
G01*
Y72500D02*
G03*
X59532Y72500I-2032J0D01*
G01*
Y82500D02*
G03*
X59532Y82500I-2032J0D01*
G01*
Y167500D02*
G03*
X59532Y167500I-2032J0D01*
G01*
Y177500D02*
G03*
X59532Y177500I-2032J0D01*
G01*
Y222500D02*
G03*
X59532Y222500I-2032J0D01*
G01*
Y232500D02*
G03*
X59532Y232500I-2032J0D01*
G01*
Y317500D02*
G03*
X59532Y317500I-2032J0D01*
G01*
Y327500D02*
G03*
X59532Y327500I-2032J0D01*
G01*
Y372500D02*
G03*
X59532Y372500I-2032J0D01*
G01*
Y382500D02*
G03*
X59532Y382500I-2032J0D01*
G01*
Y467500D02*
G03*
X59532Y467500I-2032J0D01*
G01*
Y477500D02*
G03*
X59532Y477500I-2032J0D01*
G01*
Y522500D02*
G03*
X59532Y522500I-2032J0D01*
G01*
Y532500D02*
G03*
X59532Y532500I-2032J0D01*
G01*
Y617500D02*
G03*
X59532Y617500I-2032J0D01*
G01*
Y627500D02*
G03*
X59532Y627500I-2032J0D01*
G01*
Y672500D02*
G03*
X59532Y672500I-2032J0D01*
G01*
Y682500D02*
G03*
X59532Y682500I-2032J0D01*
G01*
Y822500D02*
G03*
X59532Y822500I-2032J0D01*
G01*
Y832500D02*
G03*
X59532Y832500I-2032J0D01*
G01*
Y767500D02*
G03*
X59532Y767500I-2032J0D01*
G01*
Y777500D02*
G03*
X59532Y777500I-2032J0D01*
G01*
Y917500D02*
G03*
X59532Y917500I-2032J0D01*
G01*
Y927500D02*
G03*
X59532Y927500I-2032J0D01*
G01*
Y972500D02*
G03*
X59532Y972500I-2032J0D01*
G01*
Y982500D02*
G03*
X59532Y982500I-2032J0D01*
G01*
X444532Y917500D02*
G03*
X444532Y917500I-2032J0D01*
G01*
Y927500D02*
G03*
X444532Y927500I-2032J0D01*
G01*
Y972500D02*
G03*
X444532Y972500I-2032J0D01*
G01*
Y982500D02*
G03*
X444532Y982500I-2032J0D01*
G01*
X286032Y935000D02*
G03*
X286032Y935000I-2032J0D01*
G01*
X278032D02*
G03*
X278032Y935000I-2032J0D01*
G01*
X226032D02*
G03*
X226032Y935000I-2032J0D01*
G01*
X218032D02*
G03*
X218032Y935000I-2032J0D01*
G01*
X250032Y824000D02*
G03*
X250032Y824000I-2032J0D01*
G01*
X242032Y817000D02*
G03*
X242032Y817000I-2032J0D01*
G01*
X296032Y841000D02*
G03*
X296032Y841000I-2032J0D01*
G01*
Y830000D02*
G03*
X296032Y830000I-2032J0D01*
G01*
Y819000D02*
G03*
X296032Y819000I-2032J0D01*
G01*
X243032Y783000D02*
G03*
X243032Y783000I-2032J0D01*
G01*
X235032Y785000D02*
G03*
X235032Y785000I-2032J0D01*
G01*
Y792000D02*
G03*
X235032Y792000I-2032J0D01*
G01*
X269032Y808000D02*
G03*
X269032Y808000I-2032J0D01*
G01*
Y793000D02*
G03*
X269032Y793000I-2032J0D01*
G01*
X273032Y754000D02*
G03*
X273032Y754000I-2032J0D01*
G01*
X222032Y785000D02*
G03*
X222032Y785000I-2032J0D01*
G01*
X249032Y671000D02*
G03*
X249032Y671000I-2032J0D01*
G01*
X299032Y692000D02*
G03*
X299032Y692000I-2032J0D01*
G01*
Y681000D02*
G03*
X299032Y681000I-2032J0D01*
G01*
Y670000D02*
G03*
X299032Y670000I-2032J0D01*
G01*
X243032Y633000D02*
G03*
X243032Y633000I-2032J0D01*
G01*
X261032D02*
G03*
X261032Y633000I-2032J0D01*
G01*
X269032Y657000D02*
G03*
X269032Y657000I-2032J0D01*
G01*
X236032Y642000D02*
G03*
X236032Y642000I-2032J0D01*
G01*
X276032Y606000D02*
G03*
X276032Y606000I-2032J0D01*
G01*
X299032Y547000D02*
G03*
X299032Y547000I-2032J0D01*
G01*
Y536000D02*
G03*
X299032Y536000I-2032J0D01*
G01*
Y525000D02*
G03*
X299032Y525000I-2032J0D01*
G01*
X244032Y517000D02*
G03*
X244032Y517000I-2032J0D01*
G01*
X269032Y506000D02*
G03*
X269032Y506000I-2032J0D01*
G01*
Y487000D02*
G03*
X269032Y487000I-2032J0D01*
G01*
Y494000D02*
G03*
X269032Y494000I-2032J0D01*
G01*
X236032Y487000D02*
G03*
X236032Y487000I-2032J0D01*
G01*
Y493000D02*
G03*
X236032Y493000I-2032J0D01*
G01*
X272032Y458000D02*
G03*
X272032Y458000I-2032J0D01*
G01*
X322032Y398000D02*
G03*
X322032Y398000I-2032J0D01*
G01*
Y387000D02*
G03*
X322032Y387000I-2032J0D01*
G01*
Y376000D02*
G03*
X322032Y376000I-2032J0D01*
G01*
X268032Y344000D02*
G03*
X268032Y344000I-2032J0D01*
G01*
Y357000D02*
G03*
X268032Y357000I-2032J0D01*
G01*
X236032Y358000D02*
G03*
X236032Y358000I-2032J0D01*
G01*
X237032Y342000D02*
G03*
X237032Y342000I-2032J0D01*
G01*
X272032Y309000D02*
G03*
X272032Y309000I-2032J0D01*
G01*
X206032Y93000D02*
G03*
X206032Y93000I-2032J0D01*
G01*
X217032D02*
G03*
X217032Y93000I-2032J0D01*
G01*
X273032D02*
G03*
X273032Y93000I-2032J0D01*
G01*
X342032Y76000D02*
G03*
X342032Y76000I-2032J0D01*
G01*
Y87000D02*
G03*
X342032Y87000I-2032J0D01*
G01*
Y98000D02*
G03*
X342032Y98000I-2032J0D01*
G01*
Y109000D02*
G03*
X342032Y109000I-2032J0D01*
G01*
X309032Y263000D02*
G03*
X309032Y263000I-2032J0D01*
G01*
Y252000D02*
G03*
X309032Y252000I-2032J0D01*
G01*
Y241000D02*
G03*
X309032Y241000I-2032J0D01*
G01*
Y230000D02*
G03*
X309032Y230000I-2032J0D01*
G01*
X252032Y187500D02*
G03*
X252032Y187500I-2032J0D01*
G01*
X292032Y32500D02*
G03*
X292032Y32500I-2032J0D01*
G01*
X279532Y35000D02*
G03*
X279532Y35000I-2032J0D01*
G01*
X269532D02*
G03*
X269532Y35000I-2032J0D01*
G01*
X227032Y85000D02*
G03*
X227032Y85000I-2032J0D01*
G01*
X282032D02*
G03*
X282032Y85000I-2032J0D01*
G01*
X284532Y67500D02*
G03*
X284532Y67500I-2032J0D01*
G01*
X292032D02*
G03*
X292032Y67500I-2032J0D01*
G01*
X299532D02*
G03*
X299532Y67500I-2032J0D01*
G01*
Y60000D02*
G03*
X299532Y60000I-2032J0D01*
G01*
X292032D02*
G03*
X292032Y60000I-2032J0D01*
G01*
X284532D02*
G03*
X284532Y60000I-2032J0D01*
G01*
X219532Y57500D02*
G03*
X219532Y57500I-2032J0D01*
G01*
Y42500D02*
G03*
X219532Y42500I-2032J0D01*
G01*
X257032Y60000D02*
G03*
X257032Y60000I-2032J0D01*
G01*
X247032D02*
G03*
X247032Y60000I-2032J0D01*
G01*
Y45000D02*
G03*
X247032Y45000I-2032J0D01*
G01*
Y52500D02*
G03*
X247032Y52500I-2032J0D01*
G01*
X257032D02*
G03*
X257032Y52500I-2032J0D01*
G01*
Y45000D02*
G03*
X257032Y45000I-2032J0D01*
G01*
X252032Y797500D02*
G03*
X252032Y797500I-2032J0D01*
G01*
Y803500D02*
G03*
X252032Y803500I-2032J0D01*
G01*
Y791500D02*
G03*
X252032Y791500I-2032J0D01*
G01*
Y647500D02*
G03*
X252032Y647500I-2032J0D01*
G01*
Y653500D02*
G03*
X252032Y653500I-2032J0D01*
G01*
Y641500D02*
G03*
X252032Y641500I-2032J0D01*
G01*
Y354000D02*
G03*
X252032Y354000I-2032J0D01*
G01*
Y348000D02*
G03*
X252032Y348000I-2032J0D01*
G01*
Y342000D02*
G03*
X252032Y342000I-2032J0D01*
G01*
Y497500D02*
G03*
X252032Y497500I-2032J0D01*
G01*
Y503500D02*
G03*
X252032Y503500I-2032J0D01*
G01*
Y491500D02*
G03*
X252032Y491500I-2032J0D01*
G01*
X246032Y241000D02*
G03*
X246032Y241000I-2032J0D01*
G01*
X252032D02*
G03*
X252032Y241000I-2032J0D01*
G01*
X258032D02*
G03*
X258032Y241000I-2032J0D01*
G01*
X246032Y235000D02*
G03*
X246032Y235000I-2032J0D01*
G01*
X252032D02*
G03*
X252032Y235000I-2032J0D01*
G01*
X258032D02*
G03*
X258032Y235000I-2032J0D01*
G01*
X246032Y229000D02*
G03*
X246032Y229000I-2032J0D01*
G01*
X252032D02*
G03*
X252032Y229000I-2032J0D01*
G01*
X258032D02*
G03*
X258032Y229000I-2032J0D01*
G01*
X246032Y223000D02*
G03*
X246032Y223000I-2032J0D01*
G01*
X252032D02*
G03*
X252032Y223000I-2032J0D01*
G01*
X258032D02*
G03*
X258032Y223000I-2032J0D01*
G01*
X246032Y217000D02*
G03*
X246032Y217000I-2032J0D01*
G01*
X258032D02*
G03*
X258032Y217000I-2032J0D01*
G01*
X252032D02*
G03*
X252032Y217000I-2032J0D01*
G01*
Y210500D02*
G03*
X252032Y210500I-2032J0D01*
G01*
Y197000D02*
G03*
X252032Y197000I-2032J0D01*
G01*
Y203750D02*
G03*
X252032Y203750I-2032J0D01*
G01*
M02*
