G04*
G04 #@! TF.GenerationSoftware,Altium Limited,Altium Designer,20.2.6 (244)*
G04*
G04 Layer_Color=255*
%FSLAX44Y44*%
%MOMM*%
G71*
G04*
G04 #@! TF.SameCoordinates,69107643-4F9F-4E88-AEF3-5FE55586F8EB*
G04*
G04*
G04 #@! TF.FilePolarity,Positive*
G04*
G01*
G75*
%ADD14R,0.5400X0.5500*%
%ADD15R,5.0000X1.0000*%
%ADD16R,5.0000X1.6000*%
%ADD17R,0.5500X0.5400*%
%ADD18R,0.6000X0.6400*%
%ADD19R,0.6400X0.6000*%
%ADD20R,0.6000X0.7500*%
%ADD21R,0.7000X1.8000*%
%ADD22R,0.6700X0.3000*%
%ADD23R,0.6604X0.3600*%
%ADD24R,0.8000X1.8000*%
%ADD25R,0.4300X0.2500*%
%ADD26R,1.0200X0.6400*%
%ADD27R,1.0200X0.6900*%
%ADD28R,0.8600X1.3000*%
%ADD29R,0.8600X1.9500*%
%ADD30R,1.7800X2.4100*%
%ADD31O,1.2000X0.3800*%
%ADD65C,2.1000*%
D14*
X220000Y950000D02*
D03*
Y942200D02*
D03*
X280000Y950000D02*
D03*
Y942200D02*
D03*
X399000Y792200D02*
D03*
Y800000D02*
D03*
X220000Y792200D02*
D03*
Y800000D02*
D03*
X290000Y41850D02*
D03*
Y49650D02*
D03*
D15*
X28000Y950000D02*
D03*
X472000D02*
D03*
Y50000D02*
D03*
Y200000D02*
D03*
X28000Y350000D02*
D03*
X472000D02*
D03*
X28000Y500000D02*
D03*
X472000D02*
D03*
X28000Y650000D02*
D03*
X472000D02*
D03*
X28000Y800000D02*
D03*
X472000D02*
D03*
X28000Y50000D02*
D03*
Y200000D02*
D03*
D16*
Y922300D02*
D03*
Y977700D02*
D03*
X472000D02*
D03*
Y922300D02*
D03*
Y22300D02*
D03*
Y77700D02*
D03*
Y172300D02*
D03*
Y227700D02*
D03*
X28000Y377700D02*
D03*
Y322300D02*
D03*
X472000D02*
D03*
Y377700D02*
D03*
X28000Y527700D02*
D03*
Y472300D02*
D03*
X472000D02*
D03*
Y527700D02*
D03*
X28000Y677700D02*
D03*
Y622300D02*
D03*
X472000D02*
D03*
Y677700D02*
D03*
X28000Y827700D02*
D03*
Y772300D02*
D03*
X472000D02*
D03*
Y827700D02*
D03*
X28000Y77700D02*
D03*
Y22300D02*
D03*
Y227700D02*
D03*
Y172300D02*
D03*
D17*
X246100Y950000D02*
D03*
X253900D02*
D03*
X126100Y800000D02*
D03*
X133900D02*
D03*
X366100D02*
D03*
X373900D02*
D03*
X133900Y50000D02*
D03*
X126100D02*
D03*
X126100Y350000D02*
D03*
X133900D02*
D03*
X366100D02*
D03*
X373900D02*
D03*
X165000Y500000D02*
D03*
X172800D02*
D03*
X340000D02*
D03*
X347800D02*
D03*
X366100Y50000D02*
D03*
X373900D02*
D03*
D18*
X286400Y841000D02*
D03*
X277600D02*
D03*
X286400Y830000D02*
D03*
X277600D02*
D03*
X286400Y819000D02*
D03*
X277600D02*
D03*
X289400Y692000D02*
D03*
X280600D02*
D03*
X289400Y681000D02*
D03*
X280600D02*
D03*
X289400Y670000D02*
D03*
X280600D02*
D03*
X289400Y547000D02*
D03*
X280600D02*
D03*
X289400Y536000D02*
D03*
X280600D02*
D03*
X289400Y525000D02*
D03*
X280600D02*
D03*
X311740Y397410D02*
D03*
X302940D02*
D03*
X311740Y386410D02*
D03*
X302940D02*
D03*
X311740Y375410D02*
D03*
X302940D02*
D03*
X299400Y262500D02*
D03*
X290600D02*
D03*
X299400Y251500D02*
D03*
X290600D02*
D03*
X299400Y240500D02*
D03*
X290600D02*
D03*
X299400Y229500D02*
D03*
X290600D02*
D03*
X332400Y108750D02*
D03*
X323600D02*
D03*
X332400Y97750D02*
D03*
X323600D02*
D03*
X332400Y86750D02*
D03*
X323600D02*
D03*
X332400Y75750D02*
D03*
X323600D02*
D03*
X134400Y200000D02*
D03*
X125600D02*
D03*
X374400D02*
D03*
X365600D02*
D03*
X125600Y650000D02*
D03*
X134400D02*
D03*
X365600D02*
D03*
X374400D02*
D03*
D19*
X240000Y833400D02*
D03*
Y824600D02*
D03*
X239000Y670600D02*
D03*
Y679400D02*
D03*
X242000Y533400D02*
D03*
Y524600D02*
D03*
X215000Y85150D02*
D03*
Y76350D02*
D03*
X271000Y85400D02*
D03*
Y76600D02*
D03*
X204000Y85150D02*
D03*
Y76350D02*
D03*
D20*
X228000Y832750D02*
D03*
Y821250D02*
D03*
X271000Y773750D02*
D03*
Y762250D02*
D03*
X282000Y773750D02*
D03*
Y762250D02*
D03*
X228000Y678750D02*
D03*
Y667250D02*
D03*
X274000Y625750D02*
D03*
Y614250D02*
D03*
X286000Y625750D02*
D03*
Y614250D02*
D03*
X270000Y477750D02*
D03*
Y466250D02*
D03*
X282000Y477750D02*
D03*
Y466250D02*
D03*
X230000Y532750D02*
D03*
Y521250D02*
D03*
X282440Y328160D02*
D03*
Y316660D02*
D03*
X270440Y328160D02*
D03*
Y316660D02*
D03*
D21*
X250000Y797500D02*
D03*
Y647500D02*
D03*
Y497500D02*
D03*
D22*
X258850Y805000D02*
D03*
Y800000D02*
D03*
Y795000D02*
D03*
Y790000D02*
D03*
X241150D02*
D03*
Y795000D02*
D03*
Y800000D02*
D03*
Y805000D02*
D03*
X258850Y655000D02*
D03*
Y650000D02*
D03*
Y645000D02*
D03*
Y640000D02*
D03*
X241150D02*
D03*
Y645000D02*
D03*
Y650000D02*
D03*
Y655000D02*
D03*
X258850Y505000D02*
D03*
Y500000D02*
D03*
Y495000D02*
D03*
Y490000D02*
D03*
X241150D02*
D03*
Y495000D02*
D03*
Y500000D02*
D03*
Y505000D02*
D03*
D23*
X277000Y800000D02*
D03*
Y808200D02*
D03*
X280000Y650000D02*
D03*
Y658200D02*
D03*
D24*
X250000Y348000D02*
D03*
D25*
X259150Y355500D02*
D03*
Y350500D02*
D03*
Y345500D02*
D03*
Y340500D02*
D03*
X240850D02*
D03*
Y345500D02*
D03*
Y350500D02*
D03*
Y355500D02*
D03*
D26*
X280000Y512800D02*
D03*
Y500000D02*
D03*
D27*
X281340Y350410D02*
D03*
Y364410D02*
D03*
X290000Y200500D02*
D03*
Y214500D02*
D03*
X308000Y49750D02*
D03*
Y63750D02*
D03*
D28*
X235000Y200500D02*
D03*
X265000D02*
D03*
D29*
X250000Y203750D02*
D03*
D30*
Y53000D02*
D03*
D31*
X229000Y62750D02*
D03*
Y56250D02*
D03*
Y49750D02*
D03*
Y43250D02*
D03*
X271000Y62750D02*
D03*
Y56250D02*
D03*
Y49750D02*
D03*
Y43250D02*
D03*
D65*
X200000Y870000D02*
D03*
X255000D02*
D03*
X325000Y750000D02*
D03*
Y600000D02*
D03*
X255000Y565000D02*
D03*
X200000D02*
D03*
X325000Y450000D02*
D03*
X190000Y265000D02*
D03*
X245000D02*
D03*
X325000Y300000D02*
D03*
X185000Y125000D02*
D03*
X295000D02*
D03*
X240000D02*
D03*
X173000Y400000D02*
D03*
X228000D02*
D03*
X200000Y715000D02*
D03*
X255000D02*
D03*
M02*
