G04*
G04 #@! TF.GenerationSoftware,Altium Limited,Altium Designer,20.2.6 (244)*
G04*
G04 Layer_Color=65535*
%FSLAX44Y44*%
%MOMM*%
G71*
G04*
G04 #@! TF.SameCoordinates,69107643-4F9F-4E88-AEF3-5FE55586F8EB*
G04*
G04*
G04 #@! TF.FilePolarity,Positive*
G04*
G01*
G75*
%ADD10C,0.2000*%
%ADD11C,0.2500*%
%ADD12C,0.5000*%
%ADD13C,0.1500*%
G36*
X407134Y92418D02*
X342866D01*
Y107582D01*
X407134D01*
Y92418D01*
D02*
G37*
G36*
X406317Y242418D02*
X343683D01*
Y257582D01*
X406317D01*
Y242418D01*
D02*
G37*
G36*
X409542Y392076D02*
X340458D01*
Y407924D01*
X409542D01*
Y392076D01*
D02*
G37*
G36*
X407592Y542076D02*
X342408D01*
Y557924D01*
X407592D01*
Y542076D01*
D02*
G37*
G36*
X407500Y692076D02*
X342500D01*
Y707924D01*
X407500D01*
Y692076D01*
D02*
G37*
G36*
X407134Y842076D02*
X342866D01*
Y857924D01*
X407134D01*
Y842076D01*
D02*
G37*
G36*
X412716Y967551D02*
X337284D01*
Y982449D01*
X412716D01*
Y967551D01*
D02*
G37*
%LPC*%
G36*
X362862Y105549D02*
X362728D01*
X362412Y105532D01*
X362112Y105499D01*
X361862Y105432D01*
X361628Y105382D01*
X361462Y105315D01*
X361329Y105249D01*
X361245Y105215D01*
X361212Y105199D01*
X360995Y105049D01*
X360779Y104865D01*
X360595Y104682D01*
X360429Y104482D01*
X360279Y104316D01*
X360179Y104166D01*
X360095Y104066D01*
X360079Y104049D01*
Y104032D01*
X359912Y104299D01*
X359712Y104532D01*
X359512Y104732D01*
X359312Y104915D01*
X359112Y105049D01*
X358896Y105182D01*
X358696Y105282D01*
X358496Y105365D01*
X358296Y105415D01*
X358129Y105465D01*
X357963Y105499D01*
X357829Y105532D01*
X357713D01*
X357630Y105549D01*
X357563D01*
X357313Y105532D01*
X357080Y105515D01*
X356646Y105399D01*
X356263Y105265D01*
X355930Y105099D01*
X355797Y104999D01*
X355680Y104915D01*
X355580Y104849D01*
X355480Y104782D01*
X355413Y104715D01*
X355363Y104665D01*
X355347Y104649D01*
X355330Y104632D01*
X355180Y104466D01*
X355047Y104282D01*
X354930Y104082D01*
X354847Y103882D01*
X354680Y103499D01*
X354580Y103132D01*
X354530Y102799D01*
X354514Y102666D01*
X354497Y102533D01*
X354480Y102433D01*
Y94685D01*
X357630D01*
Y101566D01*
Y101716D01*
X357646Y101849D01*
X357679Y101966D01*
X357696Y102066D01*
X357779Y102216D01*
X357863Y102316D01*
X357929Y102366D01*
X358013Y102399D01*
X358063Y102416D01*
X358163D01*
X358229Y102383D01*
X358346Y102333D01*
X358396Y102266D01*
X358413Y102249D01*
Y102233D01*
X358446Y102149D01*
X358479Y102066D01*
X358496Y101833D01*
X358513Y101733D01*
Y101650D01*
Y101583D01*
Y101566D01*
Y94685D01*
X361662D01*
Y101616D01*
Y101750D01*
X361678Y101883D01*
X361728Y102083D01*
X361812Y102216D01*
X361895Y102316D01*
X361978Y102383D01*
X362062Y102399D01*
X362112Y102416D01*
X362212D01*
X362278Y102383D01*
X362395Y102333D01*
X362445Y102266D01*
X362462Y102249D01*
Y102233D01*
X362495Y102149D01*
X362511Y102066D01*
X362528Y101833D01*
X362545Y101733D01*
Y101650D01*
Y101583D01*
Y101566D01*
Y94685D01*
X365694D01*
Y102349D01*
X365661Y102633D01*
X365627Y102899D01*
X365577Y103149D01*
X365511Y103383D01*
X365444Y103599D01*
X365378Y103799D01*
X365311Y103966D01*
X365244Y104132D01*
X365177Y104266D01*
X365111Y104366D01*
X365044Y104466D01*
X364994Y104532D01*
X364961Y104599D01*
X364944Y104615D01*
X364928Y104632D01*
X364778Y104799D01*
X364611Y104932D01*
X364444Y105065D01*
X364261Y105165D01*
X363895Y105332D01*
X363545Y105432D01*
X363228Y105499D01*
X363078Y105515D01*
X362961Y105532D01*
X362862Y105549D01*
D02*
G37*
G36*
X372692D02*
X372592D01*
X372159Y105532D01*
X371743Y105482D01*
X371343Y105399D01*
X370959Y105299D01*
X370610Y105182D01*
X370276Y105032D01*
X369976Y104899D01*
X369693Y104749D01*
X369443Y104582D01*
X369226Y104449D01*
X369026Y104316D01*
X368877Y104182D01*
X368743Y104082D01*
X368660Y103999D01*
X368593Y103949D01*
X368577Y103932D01*
X368293Y103616D01*
X368044Y103299D01*
X367827Y102966D01*
X367644Y102633D01*
X367494Y102283D01*
X367360Y101950D01*
X367244Y101633D01*
X367160Y101333D01*
X367094Y101033D01*
X367044Y100766D01*
X367010Y100533D01*
X366994Y100333D01*
X366977Y100167D01*
X366960Y100033D01*
Y99933D01*
X366977Y99500D01*
X367027Y99084D01*
X367110Y98700D01*
X367210Y98334D01*
X367327Y97984D01*
X367460Y97651D01*
X367610Y97351D01*
X367760Y97084D01*
X367893Y96834D01*
X368044Y96634D01*
X368177Y96434D01*
X368293Y96284D01*
X368393Y96168D01*
X368477Y96068D01*
X368527Y96018D01*
X368543Y96001D01*
X368860Y95718D01*
X369176Y95485D01*
X369510Y95268D01*
X369843Y95085D01*
X370176Y94935D01*
X370509Y94801D01*
X370826Y94701D01*
X371126Y94618D01*
X371409Y94551D01*
X371676Y94501D01*
X371909Y94468D01*
X372109Y94451D01*
X372276Y94435D01*
X372409Y94418D01*
X372509D01*
X372942Y94435D01*
X373342Y94485D01*
X373725Y94551D01*
X374092Y94635D01*
X374425Y94735D01*
X374725Y94851D01*
X375025Y94985D01*
X375275Y95118D01*
X375508Y95235D01*
X375708Y95368D01*
X375891Y95485D01*
X376025Y95584D01*
X376141Y95668D01*
X376225Y95734D01*
X376275Y95784D01*
X376291Y95801D01*
X376558Y96084D01*
X376791Y96368D01*
X376991Y96684D01*
X377174Y97017D01*
X377341Y97334D01*
X377491Y97667D01*
X377608Y98000D01*
X377724Y98317D01*
X377808Y98600D01*
X377874Y98884D01*
X377941Y99134D01*
X377991Y99350D01*
X378024Y99517D01*
X378041Y99650D01*
X378058Y99733D01*
Y99767D01*
X374758Y99850D01*
X374708Y99450D01*
X374608Y99117D01*
X374492Y98817D01*
X374375Y98567D01*
X374258Y98384D01*
X374159Y98251D01*
X374092Y98167D01*
X374059Y98134D01*
X373825Y97934D01*
X373559Y97801D01*
X373292Y97701D01*
X373042Y97617D01*
X372809Y97584D01*
X372626Y97567D01*
X372559Y97551D01*
X372459D01*
X372109Y97584D01*
X371792Y97651D01*
X371509Y97767D01*
X371276Y97884D01*
X371076Y98000D01*
X370943Y98117D01*
X370859Y98184D01*
X370826Y98217D01*
X370610Y98484D01*
X370460Y98767D01*
X370343Y99067D01*
X370276Y99333D01*
X370226Y99567D01*
X370210Y99767D01*
X370193Y99833D01*
Y99883D01*
Y99917D01*
Y99933D01*
X370226Y100317D01*
X370293Y100667D01*
X370393Y100966D01*
X370526Y101233D01*
X370643Y101433D01*
X370743Y101583D01*
X370809Y101683D01*
X370843Y101716D01*
X371109Y101950D01*
X371376Y102116D01*
X371659Y102249D01*
X371926Y102333D01*
X372159Y102383D01*
X372342Y102399D01*
X372409Y102416D01*
X372509D01*
X372792Y102399D01*
X373059Y102349D01*
X373292Y102249D01*
X373509Y102149D01*
X373709Y102016D01*
X373892Y101866D01*
X374042Y101700D01*
X374175Y101550D01*
X374292Y101383D01*
X374392Y101216D01*
X374475Y101066D01*
X374542Y100933D01*
X374592Y100833D01*
X374625Y100750D01*
X374658Y100683D01*
Y100667D01*
X378041Y100900D01*
X377958Y101250D01*
X377841Y101583D01*
X377741Y101899D01*
X377608Y102199D01*
X377491Y102466D01*
X377358Y102716D01*
X377224Y102949D01*
X377108Y103149D01*
X376991Y103333D01*
X376875Y103499D01*
X376775Y103632D01*
X376691Y103749D01*
X376608Y103832D01*
X376558Y103899D01*
X376525Y103932D01*
X376508Y103949D01*
X376208Y104232D01*
X375891Y104482D01*
X375558Y104699D01*
X375225Y104882D01*
X374892Y105032D01*
X374575Y105165D01*
X374258Y105265D01*
X373959Y105349D01*
X373675Y105415D01*
X373409Y105465D01*
X373176Y105499D01*
X372976Y105532D01*
X372826D01*
X372692Y105549D01*
D02*
G37*
G36*
X385806Y105282D02*
X380207D01*
Y102233D01*
X381373D01*
X380590Y100133D01*
X380924Y100117D01*
X381207Y100067D01*
X381457Y100000D01*
X381673Y99933D01*
X381840Y99867D01*
X381957Y99800D01*
X382040Y99750D01*
X382057Y99733D01*
X382240Y99583D01*
X382390Y99400D01*
X382490Y99234D01*
X382556Y99067D01*
X382590Y98917D01*
X382623Y98800D01*
Y98717D01*
Y98684D01*
X382606Y98467D01*
X382556Y98284D01*
X382506Y98117D01*
X382440Y97984D01*
X382356Y97867D01*
X382307Y97784D01*
X382257Y97734D01*
X382240Y97717D01*
X382090Y97584D01*
X381940Y97501D01*
X381790Y97434D01*
X381657Y97384D01*
X381523Y97351D01*
X381423Y97334D01*
X381340D01*
X381140Y97351D01*
X380940Y97401D01*
X380757Y97467D01*
X380574Y97551D01*
X380407Y97617D01*
X380290Y97684D01*
X380207Y97734D01*
X380174Y97751D01*
Y94751D01*
X380507Y94635D01*
X380824Y94551D01*
X381123Y94501D01*
X381407Y94468D01*
X381640Y94435D01*
X381823Y94418D01*
X381973D01*
X382273Y94435D01*
X382556Y94468D01*
X382840Y94518D01*
X383090Y94585D01*
X383340Y94668D01*
X383573Y94751D01*
X383773Y94851D01*
X383973Y94951D01*
X384139Y95035D01*
X384289Y95135D01*
X384423Y95218D01*
X384539Y95301D01*
X384622Y95368D01*
X384689Y95418D01*
X384723Y95451D01*
X384739Y95468D01*
X384939Y95668D01*
X385106Y95884D01*
X385272Y96101D01*
X385389Y96318D01*
X385506Y96534D01*
X385589Y96751D01*
X385739Y97151D01*
X385772Y97334D01*
X385806Y97517D01*
X385839Y97667D01*
X385856Y97801D01*
X385872Y97900D01*
Y98050D01*
X385856Y98417D01*
X385806Y98767D01*
X385739Y99067D01*
X385656Y99333D01*
X385572Y99550D01*
X385506Y99700D01*
X385456Y99800D01*
X385439Y99833D01*
X385256Y100100D01*
X385056Y100367D01*
X384823Y100600D01*
X384606Y100800D01*
X384389Y100966D01*
X384223Y101100D01*
X384156Y101133D01*
X384123Y101166D01*
X384089Y101200D01*
X384073D01*
X385806Y105282D01*
D02*
G37*
G36*
X392137Y105549D02*
X391987D01*
X391704Y105532D01*
X391437Y105499D01*
X391171Y105449D01*
X390938Y105382D01*
X390488Y105199D01*
X390288Y105099D01*
X390104Y104999D01*
X389938Y104899D01*
X389788Y104799D01*
X389671Y104699D01*
X389571Y104615D01*
X389488Y104549D01*
X389421Y104499D01*
X389388Y104466D01*
X389371Y104449D01*
X389188Y104232D01*
X389021Y104016D01*
X388871Y103799D01*
X388755Y103582D01*
X388655Y103349D01*
X388572Y103132D01*
X388438Y102733D01*
X388388Y102549D01*
X388355Y102366D01*
X388338Y102216D01*
X388322Y102083D01*
X388305Y101983D01*
Y101833D01*
X388322Y101466D01*
X388372Y101133D01*
X388455Y100816D01*
X388538Y100550D01*
X388605Y100333D01*
X388688Y100167D01*
X388722Y100100D01*
X388738Y100050D01*
X388755Y100033D01*
Y100017D01*
X388938Y99733D01*
X389155Y99467D01*
X389371Y99234D01*
X389588Y99050D01*
X389771Y98884D01*
X389938Y98784D01*
X390038Y98700D01*
X390055Y98684D01*
X390071D01*
X391437Y101100D01*
X391338Y101200D01*
X391271Y101300D01*
X391221Y101400D01*
X391188Y101500D01*
X391171Y101566D01*
X391154Y101633D01*
Y101666D01*
Y101683D01*
X391171Y101799D01*
X391188Y101883D01*
X391254Y102050D01*
X391287Y102116D01*
X391321Y102166D01*
X391354Y102183D01*
Y102199D01*
X391437Y102266D01*
X391521Y102333D01*
X391687Y102383D01*
X391771Y102399D01*
X391821Y102416D01*
X392004D01*
X392121Y102383D01*
X392304Y102316D01*
X392437Y102216D01*
X392520Y102100D01*
X392587Y101983D01*
X392604Y101883D01*
X392621Y101816D01*
Y101783D01*
X392604Y101600D01*
X392554Y101433D01*
X392520Y101366D01*
X392487Y101316D01*
X392471Y101283D01*
Y101266D01*
X392354Y101050D01*
X388955Y94685D01*
X395803D01*
Y97751D01*
X394020D01*
X395286Y100183D01*
X395420Y100467D01*
X395520Y100766D01*
X395586Y101050D01*
X395636Y101300D01*
X395670Y101516D01*
X395686Y101683D01*
Y101750D01*
Y101799D01*
Y101816D01*
Y101833D01*
X395670Y102116D01*
X395636Y102399D01*
X395586Y102649D01*
X395520Y102899D01*
X395336Y103349D01*
X395253Y103549D01*
X395153Y103732D01*
X395037Y103899D01*
X394953Y104049D01*
X394853Y104166D01*
X394770Y104266D01*
X394703Y104349D01*
X394653Y104416D01*
X394620Y104449D01*
X394603Y104466D01*
X394403Y104649D01*
X394187Y104815D01*
X393954Y104965D01*
X393737Y105099D01*
X393520Y105199D01*
X393304Y105282D01*
X392887Y105415D01*
X392704Y105465D01*
X392537Y105499D01*
X392371Y105515D01*
X392237Y105532D01*
X392137Y105549D01*
D02*
G37*
G36*
X352581Y105282D02*
X349432D01*
Y94685D01*
X352581D01*
Y105282D01*
D02*
G37*
G36*
X348015D02*
X344866D01*
Y94685D01*
X348015D01*
Y98700D01*
X348898D01*
Y101500D01*
X348015D01*
Y105282D01*
D02*
G37*
G36*
X399385Y105582D02*
X397603Y100667D01*
X397503Y100383D01*
X397419Y100117D01*
X397336Y99867D01*
X397269Y99650D01*
X397219Y99433D01*
X397169Y99250D01*
X397136Y99084D01*
X397103Y98934D01*
X397086Y98800D01*
X397069Y98684D01*
X397053Y98584D01*
Y98500D01*
X397036Y98450D01*
Y98367D01*
X397053Y98084D01*
X397086Y97801D01*
X397153Y97517D01*
X397219Y97267D01*
X397419Y96801D01*
X397519Y96584D01*
X397636Y96384D01*
X397752Y96218D01*
X397853Y96068D01*
X397952Y95918D01*
X398052Y95818D01*
X398119Y95718D01*
X398186Y95651D01*
X398219Y95618D01*
X398236Y95601D01*
X398469Y95401D01*
X398702Y95218D01*
X398952Y95051D01*
X399185Y94918D01*
X399435Y94801D01*
X399669Y94701D01*
X399885Y94635D01*
X400102Y94568D01*
X400302Y94518D01*
X400485Y94485D01*
X400652Y94451D01*
X400802Y94435D01*
X400918Y94418D01*
X401068D01*
X401385Y94435D01*
X401685Y94468D01*
X401968Y94518D01*
X402235Y94601D01*
X402485Y94685D01*
X402735Y94785D01*
X402951Y94901D01*
X403151Y95001D01*
X403334Y95118D01*
X403484Y95218D01*
X403618Y95318D01*
X403734Y95401D01*
X403834Y95485D01*
X403901Y95534D01*
X403934Y95568D01*
X403951Y95584D01*
X404168Y95818D01*
X404334Y96051D01*
X404501Y96284D01*
X404634Y96534D01*
X404751Y96784D01*
X404851Y97017D01*
X404917Y97251D01*
X404984Y97484D01*
X405034Y97684D01*
X405067Y97884D01*
X405101Y98050D01*
X405117Y98201D01*
X405134Y98317D01*
Y98734D01*
X405101Y98984D01*
X405017Y99433D01*
X404901Y99817D01*
X404767Y100150D01*
X404701Y100300D01*
X404634Y100417D01*
X404567Y100533D01*
X404518Y100617D01*
X404468Y100683D01*
X404434Y100750D01*
X404417Y100766D01*
X404401Y100783D01*
X404251Y100950D01*
X404084Y101116D01*
X403718Y101433D01*
X403318Y101716D01*
X402934Y101966D01*
X402585Y102149D01*
X402418Y102233D01*
X402285Y102299D01*
X402168Y102366D01*
X402085Y102399D01*
X402035Y102433D01*
X402018D01*
X400768Y99383D01*
X400902Y99417D01*
X401002Y99433D01*
X401068D01*
X401218Y99417D01*
X401352Y99383D01*
X401485Y99333D01*
X401585Y99284D01*
X401668Y99217D01*
X401735Y99167D01*
X401768Y99134D01*
X401785Y99117D01*
X401885Y99000D01*
X401968Y98884D01*
X402018Y98750D01*
X402068Y98634D01*
X402085Y98534D01*
X402101Y98450D01*
Y98400D01*
Y98384D01*
X402085Y98234D01*
X402051Y98084D01*
X402001Y97967D01*
X401951Y97851D01*
X401885Y97767D01*
X401835Y97701D01*
X401801Y97667D01*
X401785Y97651D01*
X401668Y97551D01*
X401552Y97484D01*
X401435Y97417D01*
X401318Y97384D01*
X401218Y97367D01*
X401135Y97351D01*
X401068D01*
X400918Y97367D01*
X400768Y97401D01*
X400635Y97451D01*
X400535Y97501D01*
X400435Y97551D01*
X400368Y97601D01*
X400335Y97634D01*
X400318Y97651D01*
X400219Y97767D01*
X400152Y97884D01*
X400085Y98017D01*
X400052Y98117D01*
X400035Y98217D01*
X400019Y98300D01*
Y98350D01*
Y98367D01*
X400035Y98517D01*
X400069Y98667D01*
X400085Y98784D01*
X400102Y98800D01*
Y98817D01*
X402168Y104599D01*
X399385Y105582D01*
D02*
G37*
G36*
X378607Y255282D02*
X373692D01*
X372542Y249767D01*
X372759Y249817D01*
X372942Y249850D01*
X373092Y249867D01*
X373242Y249883D01*
X373342Y249900D01*
X373492D01*
X373825Y249883D01*
X374125Y249833D01*
X374392Y249767D01*
X374625Y249683D01*
X374808Y249600D01*
X374942Y249534D01*
X375025Y249484D01*
X375058Y249467D01*
X375275Y249300D01*
X375442Y249117D01*
X375558Y248934D01*
X375625Y248767D01*
X375675Y248617D01*
X375691Y248500D01*
X375708Y248434D01*
Y248400D01*
X375691Y248200D01*
X375642Y248017D01*
X375575Y247867D01*
X375508Y247751D01*
X375425Y247651D01*
X375358Y247584D01*
X375308Y247534D01*
X375292Y247517D01*
X375125Y247417D01*
X374942Y247334D01*
X374758Y247284D01*
X374575Y247234D01*
X374408Y247217D01*
X374275Y247201D01*
X374159D01*
X373892Y247217D01*
X373625Y247267D01*
X373359Y247334D01*
X373109Y247417D01*
X372892Y247501D01*
X372726Y247567D01*
X372659Y247601D01*
X372609Y247617D01*
X372592Y247634D01*
X372576D01*
Y245018D01*
X372992Y244818D01*
X373409Y244668D01*
X373809Y244568D01*
X374159Y244501D01*
X374309Y244468D01*
X374442Y244451D01*
X374575Y244435D01*
X374675D01*
X374758Y244418D01*
X374875D01*
X375192Y244435D01*
X375492Y244468D01*
X375792Y244518D01*
X376058Y244585D01*
X376308Y244651D01*
X376541Y244735D01*
X376775Y244835D01*
X376974Y244935D01*
X377141Y245018D01*
X377308Y245118D01*
X377441Y245201D01*
X377558Y245285D01*
X377641Y245334D01*
X377708Y245385D01*
X377741Y245418D01*
X377758Y245434D01*
X377958Y245634D01*
X378141Y245851D01*
X378291Y246051D01*
X378424Y246284D01*
X378541Y246501D01*
X378624Y246717D01*
X378707Y246917D01*
X378757Y247117D01*
X378807Y247317D01*
X378841Y247484D01*
X378874Y247634D01*
X378891Y247767D01*
X378907Y247884D01*
Y248034D01*
X378891Y248300D01*
X378874Y248567D01*
X378824Y248817D01*
X378757Y249050D01*
X378607Y249467D01*
X378524Y249667D01*
X378441Y249850D01*
X378341Y250000D01*
X378257Y250133D01*
X378174Y250267D01*
X378107Y250367D01*
X378041Y250450D01*
X377991Y250500D01*
X377974Y250533D01*
X377958Y250550D01*
X377824Y250700D01*
X377674Y250833D01*
X377341Y251066D01*
X376991Y251266D01*
X376658Y251450D01*
X376341Y251583D01*
X376208Y251633D01*
X376091Y251666D01*
X375991Y251700D01*
X375925Y251733D01*
X375875Y251750D01*
X375858D01*
X375991Y252233D01*
X378607D01*
Y255282D01*
D02*
G37*
G36*
X404318D02*
X401318D01*
Y244685D01*
X404318D01*
Y255282D01*
D02*
G37*
G36*
X395286D02*
X392287D01*
Y244685D01*
X395286D01*
Y255282D01*
D02*
G37*
G36*
X369876D02*
X366727D01*
Y248467D01*
X366744Y248151D01*
X366760Y247834D01*
X366810Y247551D01*
X366877Y247284D01*
X366944Y247034D01*
X367027Y246801D01*
X367110Y246601D01*
X367210Y246401D01*
X367294Y246234D01*
X367377Y246101D01*
X367460Y245968D01*
X367527Y245868D01*
X367594Y245784D01*
X367644Y245734D01*
X367660Y245701D01*
X367677Y245684D01*
X367860Y245501D01*
X368077Y245351D01*
X368277Y245218D01*
X368510Y245101D01*
X368727Y245018D01*
X368943Y244935D01*
X369376Y244818D01*
X369576Y244768D01*
X369760Y244735D01*
X369926Y244718D01*
X370076Y244701D01*
X370193Y244685D01*
X371209D01*
Y247751D01*
X371043D01*
X370809Y247767D01*
X370610Y247784D01*
X370443Y247817D01*
X370309Y247867D01*
X370226Y247917D01*
X370160Y247950D01*
X370126Y247967D01*
X370110Y247984D01*
X370026Y248100D01*
X369976Y248251D01*
X369926Y248400D01*
X369910Y248567D01*
X369893Y248717D01*
X369876Y248850D01*
Y248934D01*
Y248967D01*
Y255282D01*
D02*
G37*
G36*
X349931Y255549D02*
X349748D01*
X349398Y255532D01*
X349065Y255499D01*
X348748Y255449D01*
X348465Y255382D01*
X348199Y255299D01*
X347949Y255199D01*
X347732Y255099D01*
X347532Y254999D01*
X347349Y254899D01*
X347182Y254799D01*
X347049Y254699D01*
X346949Y254615D01*
X346866Y254549D01*
X346799Y254499D01*
X346766Y254466D01*
X346749Y254449D01*
X346566Y254232D01*
X346399Y254016D01*
X346249Y253766D01*
X346132Y253516D01*
X346032Y253266D01*
X345949Y253016D01*
X345816Y252533D01*
X345766Y252299D01*
X345732Y252083D01*
X345716Y251900D01*
X345699Y251733D01*
X345682Y251600D01*
Y244685D01*
X348832D01*
Y247201D01*
X349748D01*
Y250000D01*
X348832D01*
Y251316D01*
X348848Y251516D01*
X348865Y251683D01*
X348898Y251833D01*
X348948Y251950D01*
X348998Y252066D01*
X349065Y252150D01*
X349198Y252283D01*
X349332Y252366D01*
X349448Y252399D01*
X349532Y252416D01*
X349565D01*
X349698Y252399D01*
X349815Y252383D01*
X349898Y252333D01*
X349981Y252299D01*
X350031Y252249D01*
X350065Y252199D01*
X350098Y252183D01*
Y252166D01*
X350148Y252066D01*
X350181Y251933D01*
X350231Y251650D01*
X350248Y251516D01*
Y251416D01*
Y251350D01*
Y251316D01*
Y244685D01*
X353397D01*
Y251516D01*
X353381Y251883D01*
X353364Y252233D01*
X353314Y252566D01*
X353264Y252849D01*
X353197Y253132D01*
X353114Y253382D01*
X353031Y253599D01*
X352947Y253799D01*
X352864Y253982D01*
X352781Y254132D01*
X352714Y254266D01*
X352631Y254366D01*
X352581Y254449D01*
X352531Y254499D01*
X352514Y254532D01*
X352497Y254549D01*
X352314Y254732D01*
X352114Y254882D01*
X351914Y255015D01*
X351681Y255132D01*
X351464Y255232D01*
X351231Y255299D01*
X350781Y255432D01*
X350581Y255465D01*
X350381Y255499D01*
X350198Y255515D01*
X350048Y255532D01*
X349931Y255549D01*
D02*
G37*
G36*
X359679Y255282D02*
X355313D01*
Y244685D01*
X358463D01*
Y252233D01*
X359529D01*
X360012Y252216D01*
X360429Y252133D01*
X360779Y252033D01*
X361095Y251900D01*
X361345Y251733D01*
X361562Y251550D01*
X361745Y251350D01*
X361895Y251150D01*
X361995Y250950D01*
X362078Y250750D01*
X362145Y250567D01*
X362195Y250400D01*
X362212Y250267D01*
X362228Y250167D01*
Y250083D01*
Y250067D01*
X362195Y249667D01*
X362112Y249300D01*
X361978Y249000D01*
X361795Y248734D01*
X361595Y248517D01*
X361362Y248334D01*
X361112Y248184D01*
X360862Y248050D01*
X360595Y247967D01*
X360345Y247884D01*
X360112Y247834D01*
X359912Y247801D01*
X359729Y247784D01*
X359596Y247767D01*
X358979D01*
Y244668D01*
X359212Y244651D01*
X359396Y244635D01*
X359562D01*
X359696Y244618D01*
X359912D01*
X360362Y244635D01*
X360779Y244685D01*
X361179Y244751D01*
X361562Y244851D01*
X361912Y244968D01*
X362245Y245101D01*
X362545Y245235D01*
X362812Y245385D01*
X363061Y245518D01*
X363278Y245651D01*
X363461Y245784D01*
X363611Y245901D01*
X363728Y246001D01*
X363828Y246068D01*
X363878Y246118D01*
X363895Y246134D01*
X364178Y246434D01*
X364411Y246734D01*
X364628Y247067D01*
X364794Y247384D01*
X364944Y247717D01*
X365078Y248050D01*
X365177Y248367D01*
X365261Y248667D01*
X365327Y248950D01*
X365378Y249217D01*
X365411Y249467D01*
X365444Y249667D01*
Y249833D01*
X365461Y249967D01*
Y250067D01*
X365444Y250533D01*
X365378Y250966D01*
X365294Y251366D01*
X365177Y251750D01*
X365044Y252099D01*
X364894Y252433D01*
X364728Y252733D01*
X364561Y252999D01*
X364378Y253249D01*
X364228Y253449D01*
X364061Y253632D01*
X363928Y253782D01*
X363811Y253899D01*
X363728Y253982D01*
X363661Y254032D01*
X363645Y254049D01*
X363345Y254266D01*
X363028Y254449D01*
X362678Y254615D01*
X362345Y254765D01*
X361978Y254882D01*
X361628Y254982D01*
X361295Y255065D01*
X360962Y255132D01*
X360645Y255182D01*
X360345Y255215D01*
X360079Y255249D01*
X359862Y255265D01*
X359679Y255282D01*
D02*
G37*
G36*
X383056Y255582D02*
X381273Y250667D01*
X381173Y250383D01*
X381090Y250117D01*
X381007Y249867D01*
X380940Y249650D01*
X380890Y249433D01*
X380840Y249250D01*
X380807Y249084D01*
X380774Y248934D01*
X380757Y248800D01*
X380740Y248684D01*
X380723Y248584D01*
Y248500D01*
X380707Y248450D01*
Y248367D01*
X380723Y248084D01*
X380757Y247801D01*
X380824Y247517D01*
X380890Y247267D01*
X381090Y246801D01*
X381190Y246584D01*
X381307Y246384D01*
X381423Y246218D01*
X381523Y246068D01*
X381623Y245918D01*
X381723Y245818D01*
X381790Y245718D01*
X381857Y245651D01*
X381890Y245618D01*
X381907Y245601D01*
X382140Y245401D01*
X382373Y245218D01*
X382623Y245051D01*
X382856Y244918D01*
X383106Y244801D01*
X383340Y244701D01*
X383556Y244635D01*
X383773Y244568D01*
X383973Y244518D01*
X384156Y244485D01*
X384323Y244451D01*
X384473Y244435D01*
X384589Y244418D01*
X384739D01*
X385056Y244435D01*
X385356Y244468D01*
X385639Y244518D01*
X385906Y244601D01*
X386156Y244685D01*
X386405Y244785D01*
X386622Y244901D01*
X386822Y245001D01*
X387005Y245118D01*
X387155Y245218D01*
X387289Y245318D01*
X387405Y245401D01*
X387505Y245485D01*
X387572Y245534D01*
X387605Y245568D01*
X387622Y245585D01*
X387838Y245818D01*
X388005Y246051D01*
X388172Y246284D01*
X388305Y246534D01*
X388422Y246784D01*
X388521Y247017D01*
X388588Y247251D01*
X388655Y247484D01*
X388705Y247684D01*
X388738Y247884D01*
X388772Y248050D01*
X388788Y248200D01*
X388805Y248317D01*
Y248734D01*
X388772Y248984D01*
X388688Y249433D01*
X388572Y249817D01*
X388438Y250150D01*
X388372Y250300D01*
X388305Y250417D01*
X388238Y250533D01*
X388188Y250616D01*
X388138Y250683D01*
X388105Y250750D01*
X388088Y250767D01*
X388072Y250783D01*
X387922Y250950D01*
X387755Y251116D01*
X387388Y251433D01*
X386989Y251716D01*
X386605Y251966D01*
X386255Y252150D01*
X386089Y252233D01*
X385956Y252299D01*
X385839Y252366D01*
X385756Y252399D01*
X385706Y252433D01*
X385689D01*
X384439Y249384D01*
X384573Y249417D01*
X384673Y249433D01*
X384739D01*
X384889Y249417D01*
X385022Y249384D01*
X385156Y249333D01*
X385256Y249284D01*
X385339Y249217D01*
X385406Y249167D01*
X385439Y249134D01*
X385456Y249117D01*
X385556Y249000D01*
X385639Y248884D01*
X385689Y248750D01*
X385739Y248634D01*
X385756Y248534D01*
X385772Y248450D01*
Y248400D01*
Y248384D01*
X385756Y248234D01*
X385722Y248084D01*
X385672Y247967D01*
X385622Y247851D01*
X385556Y247767D01*
X385506Y247701D01*
X385472Y247667D01*
X385456Y247651D01*
X385339Y247551D01*
X385222Y247484D01*
X385106Y247417D01*
X384989Y247384D01*
X384889Y247367D01*
X384806Y247351D01*
X384739D01*
X384589Y247367D01*
X384439Y247401D01*
X384306Y247451D01*
X384206Y247501D01*
X384106Y247551D01*
X384039Y247601D01*
X384006Y247634D01*
X383989Y247651D01*
X383889Y247767D01*
X383823Y247884D01*
X383756Y248017D01*
X383723Y248117D01*
X383706Y248217D01*
X383689Y248300D01*
Y248350D01*
Y248367D01*
X383706Y248517D01*
X383739Y248667D01*
X383756Y248784D01*
X383773Y248800D01*
Y248817D01*
X385839Y254599D01*
X383056Y255582D01*
D02*
G37*
G36*
X359037Y405924D02*
X358887D01*
X358554Y405907D01*
X358238Y405873D01*
X357938Y405807D01*
X357688Y405740D01*
X357471Y405673D01*
X357304Y405607D01*
X357238Y405590D01*
X357188Y405574D01*
X357171Y405557D01*
X357155D01*
X356855Y405407D01*
X356588Y405240D01*
X356338Y405074D01*
X356138Y404924D01*
X355972Y404774D01*
X355855Y404657D01*
X355788Y404590D01*
X355755Y404557D01*
X355588Y404341D01*
X355438Y404124D01*
X355322Y403924D01*
X355222Y403724D01*
X355138Y403557D01*
X355088Y403441D01*
X355072Y403358D01*
X355055Y403324D01*
X354989Y403058D01*
X354939Y402791D01*
X354905Y402508D01*
X354888Y402241D01*
X354872Y402008D01*
X354855Y401808D01*
Y395060D01*
X358004D01*
Y401974D01*
X358021Y402141D01*
X358038Y402291D01*
X358071Y402408D01*
X358121Y402508D01*
X358238Y402674D01*
X358371Y402791D01*
X358504Y402858D01*
X358621Y402891D01*
X358704Y402908D01*
X358871D01*
X358987Y402874D01*
X359154Y402808D01*
X359287Y402691D01*
X359387Y402574D01*
X359437Y402441D01*
X359454Y402324D01*
X359471Y402258D01*
Y402224D01*
X359454Y402091D01*
X359437Y401991D01*
X359387Y401891D01*
X359321Y401808D01*
X359171Y401675D01*
X359004Y401591D01*
X358821Y401525D01*
X358671Y401508D01*
X358604Y401491D01*
X358521D01*
Y398709D01*
X358987D01*
X359321Y398725D01*
X359621Y398742D01*
X359921Y398792D01*
X360171Y398842D01*
X360420Y398909D01*
X360654Y398992D01*
X360854Y399075D01*
X361020Y399159D01*
X361187Y399225D01*
X361320Y399309D01*
X361437Y399392D01*
X361537Y399459D01*
X361603Y399508D01*
X361653Y399558D01*
X361687Y399575D01*
X361703Y399592D01*
X361887Y399775D01*
X362037Y399975D01*
X362170Y400192D01*
X362287Y400392D01*
X362387Y400608D01*
X362453Y400825D01*
X362587Y401225D01*
X362620Y401408D01*
X362653Y401575D01*
X362670Y401725D01*
X362687Y401858D01*
X362703Y401974D01*
Y402124D01*
X362687Y402424D01*
X362653Y402708D01*
X362603Y402974D01*
X362537Y403224D01*
X362453Y403474D01*
X362353Y403691D01*
X362253Y403891D01*
X362153Y404074D01*
X362053Y404241D01*
X361953Y404390D01*
X361853Y404524D01*
X361770Y404624D01*
X361703Y404707D01*
X361653Y404774D01*
X361620Y404807D01*
X361603Y404824D01*
X361387Y405024D01*
X361170Y405190D01*
X360937Y405340D01*
X360720Y405457D01*
X360487Y405574D01*
X360254Y405657D01*
X359837Y405790D01*
X359637Y405840D01*
X359454Y405873D01*
X359304Y405890D01*
X359154Y405907D01*
X359037Y405924D01*
D02*
G37*
G36*
X407542Y405657D02*
X400393D01*
Y402608D01*
X403626D01*
X401227Y395060D01*
X404459D01*
X407542Y405657D01*
D02*
G37*
G36*
X395012Y405924D02*
X394862D01*
X394578Y405907D01*
X394312Y405873D01*
X394045Y405824D01*
X393812Y405757D01*
X393362Y405574D01*
X393162Y405474D01*
X392979Y405374D01*
X392812Y405274D01*
X392662Y405174D01*
X392546Y405074D01*
X392445Y404990D01*
X392362Y404924D01*
X392296Y404874D01*
X392262Y404840D01*
X392246Y404824D01*
X392062Y404607D01*
X391896Y404390D01*
X391746Y404174D01*
X391629Y403957D01*
X391529Y403724D01*
X391446Y403507D01*
X391312Y403107D01*
X391263Y402924D01*
X391229Y402741D01*
X391213Y402591D01*
X391196Y402458D01*
X391179Y402358D01*
Y402208D01*
X391196Y401841D01*
X391246Y401508D01*
X391329Y401191D01*
X391413Y400925D01*
X391479Y400708D01*
X391562Y400541D01*
X391596Y400475D01*
X391612Y400425D01*
X391629Y400408D01*
Y400392D01*
X391812Y400108D01*
X392029Y399842D01*
X392246Y399608D01*
X392462Y399425D01*
X392645Y399258D01*
X392812Y399159D01*
X392912Y399075D01*
X392929Y399059D01*
X392945D01*
X394312Y401475D01*
X394212Y401575D01*
X394145Y401675D01*
X394095Y401774D01*
X394062Y401875D01*
X394045Y401941D01*
X394029Y402008D01*
Y402041D01*
Y402058D01*
X394045Y402174D01*
X394062Y402258D01*
X394128Y402424D01*
X394162Y402491D01*
X394195Y402541D01*
X394228Y402558D01*
Y402574D01*
X394312Y402641D01*
X394395Y402708D01*
X394562Y402758D01*
X394645Y402774D01*
X394695Y402791D01*
X394878D01*
X394995Y402758D01*
X395178Y402691D01*
X395312Y402591D01*
X395395Y402474D01*
X395461Y402358D01*
X395478Y402258D01*
X395495Y402191D01*
Y402158D01*
X395478Y401974D01*
X395428Y401808D01*
X395395Y401741D01*
X395362Y401691D01*
X395345Y401658D01*
Y401641D01*
X395228Y401425D01*
X391829Y395060D01*
X398677D01*
Y398125D01*
X396894D01*
X398161Y400558D01*
X398294Y400841D01*
X398394Y401141D01*
X398461Y401425D01*
X398511Y401675D01*
X398544Y401891D01*
X398561Y402058D01*
Y402124D01*
Y402174D01*
Y402191D01*
Y402208D01*
X398544Y402491D01*
X398511Y402774D01*
X398461Y403024D01*
X398394Y403274D01*
X398211Y403724D01*
X398127Y403924D01*
X398027Y404107D01*
X397911Y404274D01*
X397827Y404424D01*
X397728Y404540D01*
X397644Y404641D01*
X397578Y404724D01*
X397528Y404790D01*
X397494Y404824D01*
X397478Y404840D01*
X397278Y405024D01*
X397061Y405190D01*
X396828Y405340D01*
X396611Y405474D01*
X396395Y405574D01*
X396178Y405657D01*
X395761Y405790D01*
X395578Y405840D01*
X395411Y405873D01*
X395245Y405890D01*
X395112Y405907D01*
X395012Y405924D01*
D02*
G37*
G36*
X387397Y405657D02*
X384398D01*
Y395060D01*
X387397D01*
Y405657D01*
D02*
G37*
G36*
X368035Y405924D02*
X367852D01*
X367502Y405907D01*
X367169Y405873D01*
X366852Y405824D01*
X366569Y405757D01*
X366302Y405673D01*
X366052Y405574D01*
X365836Y405474D01*
X365636Y405374D01*
X365452Y405274D01*
X365286Y405174D01*
X365153Y405074D01*
X365053Y404990D01*
X364969Y404924D01*
X364903Y404874D01*
X364869Y404840D01*
X364853Y404824D01*
X364669Y404607D01*
X364503Y404390D01*
X364353Y404141D01*
X364236Y403891D01*
X364136Y403641D01*
X364053Y403391D01*
X363919Y402908D01*
X363870Y402674D01*
X363836Y402458D01*
X363820Y402274D01*
X363803Y402108D01*
X363786Y401974D01*
Y395060D01*
X366935D01*
Y397576D01*
X367852D01*
Y400375D01*
X366935D01*
Y401691D01*
X366952Y401891D01*
X366969Y402058D01*
X367002Y402208D01*
X367052Y402324D01*
X367102Y402441D01*
X367169Y402524D01*
X367302Y402658D01*
X367435Y402741D01*
X367552Y402774D01*
X367635Y402791D01*
X367669D01*
X367802Y402774D01*
X367919Y402758D01*
X368002Y402708D01*
X368085Y402674D01*
X368135Y402624D01*
X368168Y402574D01*
X368202Y402558D01*
Y402541D01*
X368252Y402441D01*
X368285Y402308D01*
X368335Y402024D01*
X368352Y401891D01*
Y401791D01*
Y401725D01*
Y401691D01*
Y395060D01*
X371501D01*
Y401891D01*
X371484Y402258D01*
X371468Y402608D01*
X371418Y402941D01*
X371368Y403224D01*
X371301Y403507D01*
X371218Y403757D01*
X371134Y403974D01*
X371051Y404174D01*
X370968Y404357D01*
X370884Y404507D01*
X370818Y404641D01*
X370734Y404740D01*
X370685Y404824D01*
X370634Y404874D01*
X370618Y404907D01*
X370601Y404924D01*
X370418Y405107D01*
X370218Y405257D01*
X370018Y405390D01*
X369785Y405507D01*
X369568Y405607D01*
X369335Y405673D01*
X368885Y405807D01*
X368685Y405840D01*
X368485Y405873D01*
X368302Y405890D01*
X368152Y405907D01*
X368035Y405924D01*
D02*
G37*
G36*
X377016D02*
X376866D01*
X376550Y405907D01*
X376250Y405873D01*
X375966Y405807D01*
X375700Y405740D01*
X375450Y405657D01*
X375200Y405557D01*
X374983Y405440D01*
X374783Y405340D01*
X374600Y405224D01*
X374450Y405107D01*
X374317Y405007D01*
X374200Y404924D01*
X374100Y404857D01*
X374034Y404790D01*
X374000Y404757D01*
X373984Y404740D01*
X373784Y404507D01*
X373600Y404274D01*
X373450Y404041D01*
X373317Y403791D01*
X373200Y403541D01*
X373101Y403307D01*
X373017Y403074D01*
X372967Y402841D01*
X372917Y402641D01*
X372884Y402441D01*
X372851Y402274D01*
X372834Y402124D01*
X372817Y402008D01*
Y401841D01*
X372834Y401591D01*
X372851Y401341D01*
X372934Y400891D01*
X373050Y400508D01*
X373184Y400158D01*
X373251Y400025D01*
X373300Y399892D01*
X373367Y399792D01*
X373417Y399692D01*
X373467Y399625D01*
X373500Y399575D01*
X373534Y399542D01*
Y399525D01*
X373684Y399358D01*
X373850Y399192D01*
X374217Y398875D01*
X374617Y398609D01*
X375000Y398359D01*
X375350Y398159D01*
X375517Y398075D01*
X375650Y398009D01*
X375766Y397942D01*
X375850Y397909D01*
X375900Y397892D01*
X375916Y397876D01*
X377183Y400925D01*
X377049Y400908D01*
X376966Y400891D01*
X376883D01*
X376733Y400908D01*
X376583Y400941D01*
X376466Y400991D01*
X376350Y401041D01*
X376266Y401091D01*
X376200Y401141D01*
X376166Y401175D01*
X376150Y401191D01*
X376050Y401308D01*
X375983Y401441D01*
X375916Y401558D01*
X375883Y401675D01*
X375867Y401791D01*
X375850Y401875D01*
Y401925D01*
Y401941D01*
X375867Y402091D01*
X375900Y402241D01*
X375950Y402374D01*
X376000Y402474D01*
X376050Y402574D01*
X376100Y402641D01*
X376133Y402674D01*
X376150Y402691D01*
X376266Y402791D01*
X376383Y402874D01*
X376516Y402924D01*
X376616Y402974D01*
X376716Y402991D01*
X376800Y403008D01*
X376866D01*
X377016Y402991D01*
X377166Y402958D01*
X377299Y402908D01*
X377399Y402858D01*
X377499Y402791D01*
X377566Y402741D01*
X377599Y402708D01*
X377616Y402691D01*
X377716Y402574D01*
X377799Y402458D01*
X377849Y402341D01*
X377899Y402224D01*
X377916Y402124D01*
X377933Y402041D01*
Y401991D01*
Y401974D01*
X377916Y401824D01*
X377883Y401675D01*
X377849Y401575D01*
X377833Y401541D01*
Y401525D01*
X375766Y395726D01*
X378566Y394760D01*
X380332Y399658D01*
X380432Y399942D01*
X380532Y400208D01*
X380599Y400458D01*
X380665Y400675D01*
X380732Y400891D01*
X380765Y401075D01*
X380815Y401241D01*
X380849Y401391D01*
X380865Y401525D01*
X380882Y401641D01*
X380899Y401741D01*
Y401824D01*
X380915Y401875D01*
Y401958D01*
X380899Y402258D01*
X380865Y402524D01*
X380798Y402808D01*
X380732Y403058D01*
X380532Y403524D01*
X380415Y403741D01*
X380315Y403941D01*
X380199Y404107D01*
X380082Y404274D01*
X379982Y404407D01*
X379882Y404507D01*
X379815Y404607D01*
X379749Y404674D01*
X379715Y404707D01*
X379699Y404724D01*
X379465Y404940D01*
X379232Y405124D01*
X378982Y405274D01*
X378749Y405424D01*
X378499Y405540D01*
X378266Y405624D01*
X378049Y405707D01*
X377833Y405774D01*
X377633Y405824D01*
X377449Y405857D01*
X377283Y405890D01*
X377133Y405907D01*
X377016Y405924D01*
D02*
G37*
G36*
X348140D02*
X348024D01*
X347640Y405907D01*
X347274Y405873D01*
X346924Y405790D01*
X346591Y405707D01*
X346274Y405607D01*
X345974Y405490D01*
X345691Y405374D01*
X345424Y405240D01*
X345191Y405107D01*
X344991Y404990D01*
X344808Y404874D01*
X344658Y404774D01*
X344541Y404691D01*
X344441Y404624D01*
X344391Y404574D01*
X344375Y404557D01*
X344041Y404241D01*
X343741Y403907D01*
X343491Y403574D01*
X343275Y403224D01*
X343075Y402874D01*
X342925Y402524D01*
X342792Y402191D01*
X342692Y401858D01*
X342625Y401558D01*
X342558Y401275D01*
X342525Y401025D01*
X342492Y400808D01*
X342475Y400625D01*
X342458Y400491D01*
Y400375D01*
X342475Y400025D01*
X342508Y399675D01*
X342558Y399342D01*
X342625Y399025D01*
X342708Y398725D01*
X342808Y398459D01*
X342908Y398192D01*
X343008Y397959D01*
X343108Y397742D01*
X343208Y397542D01*
X343308Y397376D01*
X343391Y397242D01*
X343458Y397126D01*
X343508Y397042D01*
X343541Y396992D01*
X343558Y396976D01*
X343775Y396709D01*
X344008Y396476D01*
X344241Y396243D01*
X344491Y396043D01*
X344741Y395876D01*
X344974Y395709D01*
X345224Y395560D01*
X345458Y395443D01*
X345674Y395343D01*
X345874Y395243D01*
X346057Y395176D01*
X346224Y395110D01*
X346341Y395060D01*
X346441Y395026D01*
X346507Y395010D01*
X346524D01*
Y394076D01*
X349523D01*
Y395010D01*
X349856Y395110D01*
X350173Y395243D01*
X350473Y395376D01*
X350756Y395526D01*
X351023Y395676D01*
X351256Y395843D01*
X351473Y395993D01*
X351673Y396159D01*
X351839Y396309D01*
X351989Y396459D01*
X352122Y396576D01*
X352223Y396693D01*
X352306Y396792D01*
X352373Y396859D01*
X352406Y396909D01*
X352422Y396926D01*
X352622Y397226D01*
X352806Y397526D01*
X352956Y397842D01*
X353106Y398142D01*
X353206Y398442D01*
X353306Y398725D01*
X353389Y399009D01*
X353439Y399275D01*
X353489Y399525D01*
X353522Y399758D01*
X353555Y399958D01*
X353572Y400125D01*
X353589Y400275D01*
Y400458D01*
X353572Y400825D01*
X353539Y401191D01*
X353472Y401541D01*
X353389Y401858D01*
X353289Y402174D01*
X353172Y402474D01*
X353056Y402741D01*
X352939Y402991D01*
X352806Y403208D01*
X352689Y403424D01*
X352572Y403591D01*
X352472Y403741D01*
X352389Y403857D01*
X352323Y403941D01*
X352289Y403991D01*
X352272Y404007D01*
X351956Y404341D01*
X351623Y404641D01*
X351273Y404890D01*
X350923Y405124D01*
X350573Y405307D01*
X350223Y405457D01*
X349873Y405590D01*
X349540Y405690D01*
X349223Y405757D01*
X348940Y405824D01*
X348690Y405873D01*
X348457Y405890D01*
X348274Y405907D01*
X348140Y405924D01*
D02*
G37*
%LPD*%
G36*
X348357Y402758D02*
X348673Y402674D01*
X348957Y402558D01*
X349190Y402424D01*
X349390Y402291D01*
X349540Y402174D01*
X349623Y402091D01*
X349656Y402075D01*
Y402058D01*
X349890Y401774D01*
X350056Y401491D01*
X350190Y401208D01*
X350273Y400941D01*
X350323Y400708D01*
X350340Y400525D01*
X350356Y400458D01*
Y400408D01*
Y400375D01*
Y400358D01*
X350340Y400125D01*
X350323Y399925D01*
X350273Y399708D01*
X350206Y399525D01*
X350056Y399175D01*
X349890Y398875D01*
X349706Y398642D01*
X349557Y398475D01*
X349490Y398409D01*
X349440Y398359D01*
X349423Y398342D01*
X349407Y398325D01*
Y399525D01*
X346624D01*
Y398325D01*
X346457Y398475D01*
X346324Y398625D01*
X346191Y398792D01*
X346091Y398975D01*
X345924Y399309D01*
X345807Y399625D01*
X345741Y399925D01*
X345724Y400042D01*
X345708Y400142D01*
X345691Y400242D01*
Y400308D01*
Y400342D01*
Y400358D01*
X345724Y400708D01*
X345791Y401041D01*
X345908Y401325D01*
X346041Y401575D01*
X346157Y401774D01*
X346274Y401925D01*
X346341Y402024D01*
X346374Y402058D01*
X346507Y402191D01*
X346641Y402308D01*
X346924Y402474D01*
X347207Y402608D01*
X347457Y402708D01*
X347690Y402758D01*
X347857Y402774D01*
X347924Y402791D01*
X348190D01*
X348357Y402758D01*
D02*
G37*
%LPC*%
G36*
X360987Y555924D02*
X360837D01*
X360504Y555907D01*
X360187Y555873D01*
X359887Y555807D01*
X359637Y555740D01*
X359421Y555673D01*
X359254Y555607D01*
X359187Y555590D01*
X359137Y555574D01*
X359121Y555557D01*
X359104D01*
X358804Y555407D01*
X358538Y555240D01*
X358288Y555074D01*
X358088Y554924D01*
X357921Y554774D01*
X357804Y554657D01*
X357738Y554590D01*
X357704Y554557D01*
X357538Y554341D01*
X357388Y554124D01*
X357271Y553924D01*
X357171Y553724D01*
X357088Y553557D01*
X357038Y553441D01*
X357021Y553358D01*
X357005Y553324D01*
X356938Y553058D01*
X356888Y552791D01*
X356855Y552508D01*
X356838Y552241D01*
X356821Y552008D01*
X356805Y551808D01*
Y545060D01*
X359954D01*
Y551974D01*
X359971Y552141D01*
X359987Y552291D01*
X360020Y552408D01*
X360070Y552508D01*
X360187Y552674D01*
X360320Y552791D01*
X360454Y552858D01*
X360570Y552891D01*
X360654Y552908D01*
X360820D01*
X360937Y552874D01*
X361104Y552808D01*
X361237Y552691D01*
X361337Y552574D01*
X361387Y552441D01*
X361404Y552324D01*
X361420Y552258D01*
Y552224D01*
X361404Y552091D01*
X361387Y551991D01*
X361337Y551891D01*
X361270Y551808D01*
X361120Y551675D01*
X360954Y551591D01*
X360770Y551525D01*
X360620Y551508D01*
X360554Y551491D01*
X360470D01*
Y548709D01*
X360937D01*
X361270Y548725D01*
X361570Y548742D01*
X361870Y548792D01*
X362120Y548842D01*
X362370Y548909D01*
X362603Y548992D01*
X362803Y549075D01*
X362970Y549159D01*
X363136Y549225D01*
X363270Y549309D01*
X363386Y549392D01*
X363486Y549459D01*
X363553Y549509D01*
X363603Y549558D01*
X363636Y549575D01*
X363653Y549592D01*
X363836Y549775D01*
X363986Y549975D01*
X364119Y550192D01*
X364236Y550392D01*
X364336Y550608D01*
X364403Y550825D01*
X364536Y551225D01*
X364569Y551408D01*
X364603Y551575D01*
X364619Y551725D01*
X364636Y551858D01*
X364653Y551974D01*
Y552124D01*
X364636Y552424D01*
X364603Y552708D01*
X364553Y552974D01*
X364486Y553224D01*
X364403Y553474D01*
X364303Y553691D01*
X364203Y553891D01*
X364103Y554074D01*
X364003Y554241D01*
X363903Y554390D01*
X363803Y554524D01*
X363720Y554624D01*
X363653Y554707D01*
X363603Y554774D01*
X363570Y554807D01*
X363553Y554824D01*
X363336Y555024D01*
X363120Y555190D01*
X362886Y555340D01*
X362670Y555457D01*
X362437Y555574D01*
X362203Y555657D01*
X361787Y555790D01*
X361587Y555840D01*
X361404Y555873D01*
X361254Y555890D01*
X361104Y555907D01*
X360987Y555924D01*
D02*
G37*
G36*
X395678Y555657D02*
X390763D01*
X389613Y550142D01*
X389829Y550192D01*
X390013Y550225D01*
X390163Y550242D01*
X390313Y550258D01*
X390413Y550275D01*
X390563D01*
X390896Y550258D01*
X391196Y550208D01*
X391463Y550142D01*
X391696Y550058D01*
X391879Y549975D01*
X392012Y549908D01*
X392096Y549858D01*
X392129Y549842D01*
X392346Y549675D01*
X392512Y549492D01*
X392629Y549309D01*
X392696Y549142D01*
X392746Y548992D01*
X392762Y548875D01*
X392779Y548809D01*
Y548775D01*
X392762Y548575D01*
X392712Y548392D01*
X392645Y548242D01*
X392579Y548125D01*
X392495Y548026D01*
X392429Y547959D01*
X392379Y547909D01*
X392362Y547892D01*
X392196Y547792D01*
X392012Y547709D01*
X391829Y547659D01*
X391646Y547609D01*
X391479Y547592D01*
X391346Y547576D01*
X391229D01*
X390963Y547592D01*
X390696Y547642D01*
X390429Y547709D01*
X390179Y547792D01*
X389963Y547876D01*
X389796Y547942D01*
X389730Y547976D01*
X389680Y547992D01*
X389663Y548009D01*
X389646D01*
Y545393D01*
X390063Y545193D01*
X390479Y545043D01*
X390879Y544943D01*
X391229Y544876D01*
X391379Y544843D01*
X391512Y544826D01*
X391646Y544810D01*
X391746D01*
X391829Y544793D01*
X391946D01*
X392262Y544810D01*
X392562Y544843D01*
X392862Y544893D01*
X393129Y544960D01*
X393379Y545026D01*
X393612Y545110D01*
X393845Y545210D01*
X394045Y545309D01*
X394212Y545393D01*
X394378Y545493D01*
X394512Y545576D01*
X394628Y545659D01*
X394712Y545709D01*
X394778Y545759D01*
X394812Y545793D01*
X394828Y545809D01*
X395028Y546009D01*
X395211Y546226D01*
X395362Y546426D01*
X395495Y546659D01*
X395611Y546876D01*
X395695Y547092D01*
X395778Y547292D01*
X395828Y547492D01*
X395878Y547692D01*
X395911Y547859D01*
X395945Y548009D01*
X395961Y548142D01*
X395978Y548259D01*
Y548409D01*
X395961Y548675D01*
X395945Y548942D01*
X395895Y549192D01*
X395828Y549425D01*
X395678Y549842D01*
X395595Y550042D01*
X395511Y550225D01*
X395411Y550375D01*
X395328Y550508D01*
X395245Y550642D01*
X395178Y550742D01*
X395112Y550825D01*
X395061Y550875D01*
X395045Y550908D01*
X395028Y550925D01*
X394895Y551075D01*
X394745Y551208D01*
X394412Y551441D01*
X394062Y551641D01*
X393728Y551824D01*
X393412Y551958D01*
X393279Y552008D01*
X393162Y552041D01*
X393062Y552075D01*
X392995Y552108D01*
X392945Y552124D01*
X392929D01*
X393062Y552608D01*
X395678D01*
Y555657D01*
D02*
G37*
G36*
X368885D02*
X365736D01*
Y548842D01*
X365752Y548525D01*
X365769Y548209D01*
X365819Y547925D01*
X365886Y547659D01*
X365952Y547409D01*
X366036Y547176D01*
X366119Y546976D01*
X366219Y546776D01*
X366302Y546609D01*
X366386Y546476D01*
X366469Y546343D01*
X366535Y546243D01*
X366602Y546159D01*
X366652Y546109D01*
X366669Y546076D01*
X366685Y546059D01*
X366869Y545876D01*
X367085Y545726D01*
X367285Y545593D01*
X367519Y545476D01*
X367735Y545393D01*
X367952Y545309D01*
X368385Y545193D01*
X368585Y545143D01*
X368768Y545110D01*
X368935Y545093D01*
X369085Y545076D01*
X369202Y545060D01*
X370218D01*
Y548125D01*
X370051D01*
X369818Y548142D01*
X369618Y548159D01*
X369451Y548192D01*
X369318Y548242D01*
X369235Y548292D01*
X369168Y548325D01*
X369135Y548342D01*
X369118Y548359D01*
X369035Y548475D01*
X368985Y548625D01*
X368935Y548775D01*
X368918Y548942D01*
X368902Y549092D01*
X368885Y549225D01*
Y549309D01*
Y549342D01*
Y555657D01*
D02*
G37*
G36*
X401943Y555924D02*
X401810D01*
X401560Y555907D01*
X401310Y555890D01*
X400877Y555790D01*
X400477Y555640D01*
X400144Y555490D01*
X400010Y555407D01*
X399877Y555324D01*
X399777Y555240D01*
X399694Y555174D01*
X399627Y555124D01*
X399577Y555074D01*
X399544Y555057D01*
X399527Y555040D01*
X399377Y554874D01*
X399244Y554691D01*
X399110Y554507D01*
X399011Y554324D01*
X398861Y553957D01*
X398761Y553607D01*
X398694Y553291D01*
X398677Y553158D01*
X398661Y553041D01*
X398644Y552958D01*
Y552891D01*
Y552841D01*
Y552824D01*
X398661Y552491D01*
X398727Y552158D01*
X398827Y551875D01*
X398927Y551625D01*
X399027Y551425D01*
X399127Y551258D01*
X399194Y551158D01*
X399211Y551141D01*
Y551125D01*
X398994Y550875D01*
X398811Y550642D01*
X398644Y550425D01*
X398527Y550242D01*
X398427Y550092D01*
X398361Y549958D01*
X398327Y549892D01*
X398311Y549858D01*
X398227Y549625D01*
X398161Y549392D01*
X398127Y549159D01*
X398094Y548942D01*
X398077Y548759D01*
X398061Y548609D01*
Y548475D01*
X398077Y548192D01*
X398111Y547909D01*
X398161Y547642D01*
X398227Y547392D01*
X398311Y547159D01*
X398394Y546942D01*
X398494Y546743D01*
X398594Y546559D01*
X398694Y546409D01*
X398794Y546259D01*
X398877Y546143D01*
X398960Y546026D01*
X399027Y545943D01*
X399077Y545893D01*
X399110Y545859D01*
X399127Y545843D01*
X399344Y545659D01*
X399560Y545493D01*
X399777Y545359D01*
X400010Y545243D01*
X400227Y545143D01*
X400460Y545043D01*
X400877Y544926D01*
X401077Y544876D01*
X401260Y544843D01*
X401427Y544826D01*
X401560Y544810D01*
X401676Y544793D01*
X401827D01*
X402126Y544810D01*
X402410Y544843D01*
X402676Y544893D01*
X402926Y544960D01*
X403159Y545043D01*
X403376Y545126D01*
X403576Y545226D01*
X403776Y545326D01*
X403943Y545410D01*
X404076Y545509D01*
X404209Y545593D01*
X404309Y545676D01*
X404393Y545743D01*
X404459Y545793D01*
X404492Y545826D01*
X404509Y545843D01*
X404692Y546043D01*
X404859Y546259D01*
X405009Y546476D01*
X405142Y546693D01*
X405242Y546926D01*
X405326Y547142D01*
X405459Y547559D01*
X405509Y547742D01*
X405542Y547925D01*
X405559Y548075D01*
X405575Y548209D01*
X405592Y548325D01*
Y548475D01*
X405575Y548775D01*
X405559Y549042D01*
X405509Y549275D01*
X405476Y549475D01*
X405426Y549642D01*
X405376Y549758D01*
X405359Y549825D01*
X405342Y549858D01*
X405226Y550075D01*
X405092Y550308D01*
X404942Y550508D01*
X404792Y550708D01*
X404642Y550875D01*
X404542Y551008D01*
X404459Y551091D01*
X404426Y551125D01*
X404626Y551425D01*
X404759Y551708D01*
X404859Y551991D01*
X404942Y552258D01*
X404976Y552474D01*
X404992Y552658D01*
X405009Y552724D01*
Y552774D01*
Y552791D01*
Y552808D01*
X404992Y553058D01*
X404976Y553291D01*
X404876Y553741D01*
X404726Y554107D01*
X404559Y554440D01*
X404476Y554574D01*
X404393Y554691D01*
X404326Y554790D01*
X404243Y554890D01*
X404193Y554957D01*
X404142Y555007D01*
X404126Y555024D01*
X404109Y555040D01*
X403943Y555190D01*
X403759Y555340D01*
X403559Y555457D01*
X403376Y555557D01*
X402993Y555707D01*
X402626Y555807D01*
X402293Y555873D01*
X402160Y555890D01*
X402043Y555907D01*
X401943Y555924D01*
D02*
G37*
G36*
X383914D02*
X383748D01*
X383431Y555907D01*
X383131Y555873D01*
X382848Y555807D01*
X382581Y555740D01*
X382332Y555657D01*
X382098Y555557D01*
X381898Y555440D01*
X381715Y555340D01*
X381548Y555224D01*
X381398Y555107D01*
X381265Y555007D01*
X381165Y554924D01*
X381082Y554857D01*
X381032Y554790D01*
X380998Y554757D01*
X380982Y554740D01*
X380798Y554507D01*
X380649Y554257D01*
X380515Y554007D01*
X380399Y553741D01*
X380315Y553474D01*
X380232Y553191D01*
X380115Y552674D01*
X380065Y552441D01*
X380032Y552224D01*
X380015Y552024D01*
X379999Y551841D01*
X379982Y551708D01*
Y549192D01*
X379999Y548825D01*
X380032Y548475D01*
X380082Y548142D01*
X380132Y547826D01*
X380215Y547542D01*
X380299Y547276D01*
X380382Y547042D01*
X380482Y546826D01*
X380582Y546626D01*
X380665Y546459D01*
X380748Y546309D01*
X380832Y546193D01*
X380882Y546093D01*
X380932Y546026D01*
X380965Y545993D01*
X380982Y545976D01*
X381182Y545776D01*
X381398Y545593D01*
X381615Y545426D01*
X381848Y545293D01*
X382081Y545176D01*
X382298Y545076D01*
X382531Y545010D01*
X382748Y544943D01*
X382948Y544893D01*
X383148Y544860D01*
X383315Y544826D01*
X383465Y544810D01*
X383581Y544793D01*
X383748D01*
X384064Y544810D01*
X384364Y544843D01*
X384647Y544910D01*
X384914Y544976D01*
X385164Y545060D01*
X385397Y545160D01*
X385597Y545276D01*
X385781Y545393D01*
X385947Y545493D01*
X386097Y545609D01*
X386231Y545709D01*
X386330Y545793D01*
X386414Y545859D01*
X386464Y545926D01*
X386497Y545959D01*
X386514Y545976D01*
X386697Y546209D01*
X386847Y546459D01*
X386997Y546709D01*
X387114Y546976D01*
X387214Y547242D01*
X387297Y547509D01*
X387413Y548026D01*
X387463Y548259D01*
X387497Y548492D01*
X387514Y548692D01*
X387530Y548859D01*
X387547Y548992D01*
Y551508D01*
X387530Y551875D01*
X387497Y552241D01*
X387447Y552574D01*
X387380Y552874D01*
X387313Y553174D01*
X387214Y553424D01*
X387130Y553674D01*
X387030Y553891D01*
X386930Y554091D01*
X386847Y554257D01*
X386747Y554407D01*
X386680Y554524D01*
X386614Y554624D01*
X386564Y554691D01*
X386530Y554724D01*
X386514Y554740D01*
X386314Y554957D01*
X386097Y555124D01*
X385881Y555290D01*
X385647Y555424D01*
X385431Y555540D01*
X385197Y555640D01*
X384964Y555707D01*
X384748Y555774D01*
X384548Y555824D01*
X384348Y555857D01*
X384181Y555890D01*
X384031Y555907D01*
X383914Y555924D01*
D02*
G37*
G36*
X374883D02*
X374733D01*
X374417Y555907D01*
X374117Y555873D01*
X373834Y555807D01*
X373567Y555740D01*
X373317Y555657D01*
X373067Y555557D01*
X372851Y555440D01*
X372651Y555340D01*
X372467Y555224D01*
X372317Y555107D01*
X372184Y555007D01*
X372067Y554924D01*
X371968Y554857D01*
X371901Y554790D01*
X371867Y554757D01*
X371851Y554740D01*
X371651Y554507D01*
X371468Y554274D01*
X371318Y554041D01*
X371184Y553791D01*
X371068Y553541D01*
X370968Y553307D01*
X370884Y553074D01*
X370834Y552841D01*
X370784Y552641D01*
X370751Y552441D01*
X370718Y552274D01*
X370701Y552124D01*
X370685Y552008D01*
Y551841D01*
X370701Y551591D01*
X370718Y551341D01*
X370801Y550891D01*
X370918Y550508D01*
X371051Y550158D01*
X371118Y550025D01*
X371168Y549892D01*
X371234Y549792D01*
X371284Y549692D01*
X371334Y549625D01*
X371368Y549575D01*
X371401Y549542D01*
Y549525D01*
X371551Y549358D01*
X371717Y549192D01*
X372084Y548875D01*
X372484Y548609D01*
X372867Y548359D01*
X373217Y548159D01*
X373384Y548075D01*
X373517Y548009D01*
X373634Y547942D01*
X373717Y547909D01*
X373767Y547892D01*
X373784Y547876D01*
X375050Y550925D01*
X374917Y550908D01*
X374833Y550891D01*
X374750D01*
X374600Y550908D01*
X374450Y550941D01*
X374333Y550991D01*
X374217Y551041D01*
X374134Y551091D01*
X374067Y551141D01*
X374034Y551175D01*
X374017Y551191D01*
X373917Y551308D01*
X373850Y551441D01*
X373784Y551558D01*
X373750Y551675D01*
X373734Y551791D01*
X373717Y551875D01*
Y551925D01*
Y551941D01*
X373734Y552091D01*
X373767Y552241D01*
X373817Y552374D01*
X373867Y552474D01*
X373917Y552574D01*
X373967Y552641D01*
X374000Y552674D01*
X374017Y552691D01*
X374134Y552791D01*
X374250Y552874D01*
X374384Y552924D01*
X374483Y552974D01*
X374584Y552991D01*
X374667Y553008D01*
X374733D01*
X374883Y552991D01*
X375033Y552958D01*
X375167Y552908D01*
X375267Y552858D01*
X375367Y552791D01*
X375433Y552741D01*
X375467Y552708D01*
X375483Y552691D01*
X375583Y552574D01*
X375667Y552458D01*
X375717Y552341D01*
X375766Y552224D01*
X375783Y552124D01*
X375800Y552041D01*
Y551991D01*
Y551974D01*
X375783Y551824D01*
X375750Y551675D01*
X375717Y551575D01*
X375700Y551541D01*
Y551525D01*
X373634Y545726D01*
X376433Y544760D01*
X378199Y549658D01*
X378299Y549942D01*
X378399Y550208D01*
X378466Y550458D01*
X378532Y550675D01*
X378599Y550891D01*
X378632Y551075D01*
X378682Y551241D01*
X378716Y551391D01*
X378732Y551525D01*
X378749Y551641D01*
X378766Y551741D01*
Y551824D01*
X378782Y551875D01*
Y551958D01*
X378766Y552258D01*
X378732Y552524D01*
X378666Y552808D01*
X378599Y553058D01*
X378399Y553524D01*
X378283Y553741D01*
X378182Y553941D01*
X378066Y554107D01*
X377949Y554274D01*
X377849Y554407D01*
X377749Y554507D01*
X377683Y554607D01*
X377616Y554674D01*
X377583Y554707D01*
X377566Y554724D01*
X377333Y554940D01*
X377099Y555124D01*
X376850Y555274D01*
X376616Y555424D01*
X376366Y555540D01*
X376133Y555624D01*
X375916Y555707D01*
X375700Y555774D01*
X375500Y555824D01*
X375317Y555857D01*
X375150Y555890D01*
X375000Y555907D01*
X374883Y555924D01*
D02*
G37*
G36*
X350090D02*
X349973D01*
X349590Y555907D01*
X349223Y555873D01*
X348873Y555790D01*
X348540Y555707D01*
X348223Y555607D01*
X347924Y555490D01*
X347640Y555374D01*
X347374Y555240D01*
X347141Y555107D01*
X346940Y554990D01*
X346757Y554874D01*
X346607Y554774D01*
X346491Y554691D01*
X346391Y554624D01*
X346341Y554574D01*
X346324Y554557D01*
X345991Y554241D01*
X345691Y553907D01*
X345441Y553574D01*
X345224Y553224D01*
X345024Y552874D01*
X344874Y552524D01*
X344741Y552191D01*
X344641Y551858D01*
X344575Y551558D01*
X344508Y551275D01*
X344474Y551025D01*
X344441Y550808D01*
X344425Y550625D01*
X344408Y550491D01*
Y550375D01*
X344425Y550025D01*
X344458Y549675D01*
X344508Y549342D01*
X344575Y549025D01*
X344658Y548725D01*
X344758Y548459D01*
X344858Y548192D01*
X344958Y547959D01*
X345058Y547742D01*
X345158Y547542D01*
X345258Y547376D01*
X345341Y547242D01*
X345408Y547126D01*
X345458Y547042D01*
X345491Y546992D01*
X345508Y546976D01*
X345724Y546709D01*
X345957Y546476D01*
X346191Y546243D01*
X346441Y546043D01*
X346691Y545876D01*
X346924Y545709D01*
X347174Y545560D01*
X347407Y545443D01*
X347624Y545343D01*
X347824Y545243D01*
X348007Y545176D01*
X348173Y545110D01*
X348290Y545060D01*
X348390Y545026D01*
X348457Y545010D01*
X348474D01*
Y544076D01*
X351473D01*
Y545010D01*
X351806Y545110D01*
X352122Y545243D01*
X352422Y545376D01*
X352706Y545526D01*
X352972Y545676D01*
X353206Y545843D01*
X353422Y545993D01*
X353622Y546159D01*
X353789Y546309D01*
X353939Y546459D01*
X354072Y546576D01*
X354172Y546693D01*
X354255Y546792D01*
X354322Y546859D01*
X354355Y546909D01*
X354372Y546926D01*
X354572Y547226D01*
X354755Y547526D01*
X354905Y547842D01*
X355055Y548142D01*
X355155Y548442D01*
X355255Y548725D01*
X355338Y549009D01*
X355388Y549275D01*
X355438Y549525D01*
X355472Y549758D01*
X355505Y549958D01*
X355522Y550125D01*
X355538Y550275D01*
Y550458D01*
X355522Y550825D01*
X355488Y551191D01*
X355422Y551541D01*
X355338Y551858D01*
X355238Y552174D01*
X355122Y552474D01*
X355005Y552741D01*
X354888Y552991D01*
X354755Y553208D01*
X354639Y553424D01*
X354522Y553591D01*
X354422Y553741D01*
X354339Y553857D01*
X354272Y553941D01*
X354239Y553991D01*
X354222Y554007D01*
X353905Y554341D01*
X353572Y554641D01*
X353222Y554890D01*
X352872Y555124D01*
X352522Y555307D01*
X352173Y555457D01*
X351823Y555590D01*
X351489Y555690D01*
X351173Y555757D01*
X350890Y555824D01*
X350640Y555873D01*
X350406Y555890D01*
X350223Y555907D01*
X350090Y555924D01*
D02*
G37*
%LPD*%
G36*
X401910Y553641D02*
X402043Y553624D01*
X402143Y553574D01*
X402243Y553524D01*
X402310Y553474D01*
X402360Y553441D01*
X402393Y553408D01*
X402410Y553391D01*
X402493Y553291D01*
X402560Y553191D01*
X402610Y553074D01*
X402643Y552974D01*
X402660Y552891D01*
X402676Y552824D01*
Y552774D01*
Y552758D01*
X402660Y552624D01*
X402643Y552508D01*
X402543Y552324D01*
X402493Y552241D01*
X402460Y552191D01*
X402426Y552158D01*
X402410Y552141D01*
X402310Y552058D01*
X402210Y551991D01*
X402110Y551941D01*
X402010Y551908D01*
X401926Y551891D01*
X401876Y551875D01*
X401810D01*
X401676Y551891D01*
X401543Y551908D01*
X401443Y551958D01*
X401343Y552008D01*
X401277Y552041D01*
X401227Y552091D01*
X401193Y552108D01*
X401177Y552124D01*
X401093Y552224D01*
X401027Y552341D01*
X400993Y552458D01*
X400960Y552558D01*
X400943Y552658D01*
X400927Y552724D01*
Y552774D01*
Y552791D01*
X400943Y552908D01*
X400960Y553024D01*
X401060Y553224D01*
X401093Y553291D01*
X401143Y553341D01*
X401160Y553374D01*
X401177Y553391D01*
X401277Y553474D01*
X401377Y553541D01*
X401477Y553591D01*
X401576Y553624D01*
X401660Y553641D01*
X401726Y553657D01*
X401777D01*
X401910Y553641D01*
D02*
G37*
G36*
X401993Y549675D02*
X402176Y549625D01*
X402326Y549575D01*
X402460Y549509D01*
X402560Y549425D01*
X402643Y549375D01*
X402693Y549325D01*
X402710Y549309D01*
X402843Y549159D01*
X402926Y549009D01*
X402993Y548875D01*
X403043Y548725D01*
X403076Y548609D01*
X403093Y548509D01*
Y548442D01*
Y548425D01*
X403076Y548225D01*
X403043Y548042D01*
X402976Y547876D01*
X402910Y547742D01*
X402843Y547626D01*
X402776Y547542D01*
X402743Y547492D01*
X402726Y547476D01*
X402576Y547359D01*
X402426Y547259D01*
X402276Y547192D01*
X402126Y547159D01*
X402010Y547126D01*
X401910Y547109D01*
X401810D01*
X401610Y547126D01*
X401427Y547159D01*
X401260Y547226D01*
X401127Y547292D01*
X401027Y547359D01*
X400943Y547426D01*
X400893Y547459D01*
X400877Y547476D01*
X400760Y547626D01*
X400677Y547792D01*
X400610Y547942D01*
X400577Y548092D01*
X400544Y548225D01*
X400527Y548325D01*
Y548409D01*
Y548425D01*
X400544Y548609D01*
X400577Y548775D01*
X400643Y548925D01*
X400710Y549059D01*
X400777Y549159D01*
X400843Y549242D01*
X400877Y549292D01*
X400893Y549309D01*
X401043Y549442D01*
X401193Y549525D01*
X401360Y549592D01*
X401493Y549642D01*
X401627Y549675D01*
X401726Y549692D01*
X401810D01*
X401993Y549675D01*
D02*
G37*
G36*
X383881Y553107D02*
X384014Y553074D01*
X384114Y553024D01*
X384198Y552974D01*
X384348Y552808D01*
X384431Y552624D01*
X384498Y552441D01*
X384514Y552274D01*
X384531Y552224D01*
Y552174D01*
Y552141D01*
Y552124D01*
Y548559D01*
Y548392D01*
X384498Y548242D01*
X384464Y548125D01*
X384414Y548009D01*
X384348Y547925D01*
X384281Y547842D01*
X384148Y547726D01*
X383998Y547659D01*
X383864Y547626D01*
X383781Y547609D01*
X383748D01*
X383615Y547626D01*
X383498Y547642D01*
X383398Y547692D01*
X383315Y547759D01*
X383181Y547909D01*
X383098Y548092D01*
X383031Y548259D01*
X383015Y548409D01*
X382998Y548475D01*
Y548525D01*
Y548542D01*
Y548559D01*
Y552124D01*
X383015Y552308D01*
X383031Y552458D01*
X383065Y552591D01*
X383115Y552708D01*
X383165Y552808D01*
X383231Y552874D01*
X383381Y553008D01*
X383515Y553074D01*
X383631Y553107D01*
X383714Y553124D01*
X383748D01*
X383881Y553107D01*
D02*
G37*
G36*
X350306Y552758D02*
X350623Y552674D01*
X350906Y552558D01*
X351139Y552424D01*
X351339Y552291D01*
X351489Y552174D01*
X351573Y552091D01*
X351606Y552075D01*
Y552058D01*
X351839Y551774D01*
X352006Y551491D01*
X352139Y551208D01*
X352223Y550941D01*
X352272Y550708D01*
X352289Y550525D01*
X352306Y550458D01*
Y550408D01*
Y550375D01*
Y550358D01*
X352289Y550125D01*
X352272Y549925D01*
X352223Y549708D01*
X352156Y549525D01*
X352006Y549175D01*
X351839Y548875D01*
X351656Y548642D01*
X351506Y548475D01*
X351439Y548409D01*
X351389Y548359D01*
X351373Y548342D01*
X351356Y548325D01*
Y549525D01*
X348573D01*
Y548325D01*
X348407Y548475D01*
X348274Y548625D01*
X348140Y548792D01*
X348040Y548975D01*
X347874Y549309D01*
X347757Y549625D01*
X347690Y549925D01*
X347674Y550042D01*
X347657Y550142D01*
X347640Y550242D01*
Y550308D01*
Y550342D01*
Y550358D01*
X347674Y550708D01*
X347740Y551041D01*
X347857Y551325D01*
X347990Y551575D01*
X348107Y551774D01*
X348223Y551925D01*
X348290Y552024D01*
X348324Y552058D01*
X348457Y552191D01*
X348590Y552308D01*
X348873Y552474D01*
X349157Y552608D01*
X349407Y552708D01*
X349640Y552758D01*
X349807Y552774D01*
X349873Y552791D01*
X350140D01*
X350306Y552758D01*
D02*
G37*
%LPC*%
G36*
X361079Y705923D02*
X360929D01*
X360595Y705907D01*
X360279Y705873D01*
X359979Y705807D01*
X359729Y705740D01*
X359512Y705674D01*
X359346Y705607D01*
X359279Y705590D01*
X359229Y705574D01*
X359212Y705557D01*
X359196D01*
X358896Y705407D01*
X358629Y705240D01*
X358379Y705074D01*
X358179Y704924D01*
X358013Y704774D01*
X357896Y704657D01*
X357829Y704591D01*
X357796Y704557D01*
X357630Y704341D01*
X357480Y704124D01*
X357363Y703924D01*
X357263Y703724D01*
X357180Y703557D01*
X357130Y703441D01*
X357113Y703357D01*
X357096Y703324D01*
X357030Y703057D01*
X356980Y702791D01*
X356946Y702508D01*
X356930Y702241D01*
X356913Y702008D01*
X356896Y701808D01*
Y695060D01*
X360046D01*
Y701974D01*
X360062Y702141D01*
X360079Y702291D01*
X360112Y702408D01*
X360162Y702508D01*
X360279Y702674D01*
X360412Y702791D01*
X360545Y702858D01*
X360662Y702891D01*
X360745Y702908D01*
X360912D01*
X361029Y702874D01*
X361195Y702808D01*
X361329Y702691D01*
X361428Y702574D01*
X361479Y702441D01*
X361495Y702324D01*
X361512Y702258D01*
Y702224D01*
X361495Y702091D01*
X361479Y701991D01*
X361428Y701891D01*
X361362Y701808D01*
X361212Y701675D01*
X361045Y701591D01*
X360862Y701525D01*
X360712Y701508D01*
X360645Y701491D01*
X360562D01*
Y698709D01*
X361029D01*
X361362Y698725D01*
X361662Y698742D01*
X361962Y698792D01*
X362212Y698842D01*
X362462Y698909D01*
X362695Y698992D01*
X362895Y699075D01*
X363061Y699158D01*
X363228Y699225D01*
X363361Y699308D01*
X363478Y699392D01*
X363578Y699458D01*
X363645Y699509D01*
X363695Y699558D01*
X363728Y699575D01*
X363745Y699592D01*
X363928Y699775D01*
X364078Y699975D01*
X364211Y700192D01*
X364328Y700392D01*
X364428Y700608D01*
X364494Y700825D01*
X364628Y701225D01*
X364661Y701408D01*
X364694Y701575D01*
X364711Y701725D01*
X364728Y701858D01*
X364744Y701974D01*
Y702124D01*
X364728Y702424D01*
X364694Y702708D01*
X364644Y702974D01*
X364578Y703224D01*
X364494Y703474D01*
X364394Y703691D01*
X364294Y703891D01*
X364194Y704074D01*
X364095Y704241D01*
X363994Y704390D01*
X363895Y704524D01*
X363811Y704624D01*
X363745Y704707D01*
X363695Y704774D01*
X363661Y704807D01*
X363645Y704824D01*
X363428Y705024D01*
X363211Y705190D01*
X362978Y705340D01*
X362761Y705457D01*
X362528Y705574D01*
X362295Y705657D01*
X361878Y705790D01*
X361678Y705840D01*
X361495Y705873D01*
X361345Y705890D01*
X361195Y705907D01*
X361079Y705923D01*
D02*
G37*
G36*
X386739Y705657D02*
X381823D01*
X380674Y700142D01*
X380890Y700192D01*
X381073Y700225D01*
X381223Y700242D01*
X381373Y700258D01*
X381473Y700275D01*
X381623D01*
X381957Y700258D01*
X382257Y700208D01*
X382523Y700142D01*
X382756Y700058D01*
X382940Y699975D01*
X383073Y699908D01*
X383156Y699858D01*
X383190Y699842D01*
X383406Y699675D01*
X383573Y699492D01*
X383689Y699308D01*
X383756Y699142D01*
X383806Y698992D01*
X383823Y698875D01*
X383839Y698809D01*
Y698775D01*
X383823Y698575D01*
X383773Y698392D01*
X383706Y698242D01*
X383639Y698126D01*
X383556Y698026D01*
X383489Y697959D01*
X383439Y697909D01*
X383423Y697892D01*
X383256Y697792D01*
X383073Y697709D01*
X382890Y697659D01*
X382706Y697609D01*
X382540Y697592D01*
X382406Y697576D01*
X382290D01*
X382023Y697592D01*
X381757Y697642D01*
X381490Y697709D01*
X381240Y697792D01*
X381023Y697876D01*
X380857Y697942D01*
X380790Y697975D01*
X380740Y697992D01*
X380723Y698009D01*
X380707D01*
Y695393D01*
X381123Y695193D01*
X381540Y695043D01*
X381940Y694943D01*
X382290Y694876D01*
X382440Y694843D01*
X382573Y694826D01*
X382706Y694810D01*
X382806D01*
X382890Y694793D01*
X383006D01*
X383323Y694810D01*
X383623Y694843D01*
X383923Y694893D01*
X384189Y694960D01*
X384439Y695026D01*
X384673Y695110D01*
X384906Y695210D01*
X385106Y695310D01*
X385272Y695393D01*
X385439Y695493D01*
X385572Y695576D01*
X385689Y695659D01*
X385772Y695709D01*
X385839Y695759D01*
X385872Y695793D01*
X385889Y695809D01*
X386089Y696009D01*
X386272Y696226D01*
X386422Y696426D01*
X386555Y696659D01*
X386672Y696876D01*
X386755Y697092D01*
X386839Y697292D01*
X386889Y697492D01*
X386939Y697692D01*
X386972Y697859D01*
X387005Y698009D01*
X387022Y698142D01*
X387039Y698259D01*
Y698409D01*
X387022Y698675D01*
X387005Y698942D01*
X386955Y699192D01*
X386889Y699425D01*
X386739Y699842D01*
X386655Y700042D01*
X386572Y700225D01*
X386472Y700375D01*
X386389Y700508D01*
X386306Y700641D01*
X386239Y700742D01*
X386172Y700825D01*
X386122Y700875D01*
X386105Y700908D01*
X386089Y700925D01*
X385956Y701075D01*
X385806Y701208D01*
X385472Y701441D01*
X385122Y701641D01*
X384789Y701824D01*
X384473Y701958D01*
X384339Y702008D01*
X384223Y702041D01*
X384123Y702075D01*
X384056Y702108D01*
X384006Y702124D01*
X383989D01*
X384123Y702608D01*
X386739D01*
Y705657D01*
D02*
G37*
G36*
X405500D02*
X398352D01*
Y702608D01*
X401585D01*
X399185Y695060D01*
X402418D01*
X405500Y705657D01*
D02*
G37*
G36*
X396786D02*
X392121D01*
X388988Y698225D01*
X393137D01*
Y700525D01*
X392471D01*
X393803Y703141D01*
Y695060D01*
X396786D01*
Y705657D01*
D02*
G37*
G36*
X368977D02*
X365827D01*
Y698842D01*
X365844Y698525D01*
X365861Y698209D01*
X365911Y697925D01*
X365977Y697659D01*
X366044Y697409D01*
X366127Y697176D01*
X366211Y696976D01*
X366311Y696776D01*
X366394Y696609D01*
X366477Y696476D01*
X366561Y696343D01*
X366627Y696243D01*
X366694Y696159D01*
X366744Y696109D01*
X366760Y696076D01*
X366777Y696059D01*
X366960Y695876D01*
X367177Y695726D01*
X367377Y695593D01*
X367610Y695476D01*
X367827Y695393D01*
X368044Y695310D01*
X368477Y695193D01*
X368677Y695143D01*
X368860Y695110D01*
X369026Y695093D01*
X369176Y695076D01*
X369293Y695060D01*
X370309D01*
Y698126D01*
X370143D01*
X369910Y698142D01*
X369710Y698159D01*
X369543Y698192D01*
X369410Y698242D01*
X369327Y698292D01*
X369260Y698325D01*
X369226Y698342D01*
X369210Y698359D01*
X369127Y698475D01*
X369076Y698625D01*
X369026Y698775D01*
X369010Y698942D01*
X368993Y699092D01*
X368977Y699225D01*
Y699308D01*
Y699342D01*
Y705657D01*
D02*
G37*
G36*
X374975Y705923D02*
X374825D01*
X374509Y705907D01*
X374208Y705873D01*
X373925Y705807D01*
X373659Y705740D01*
X373409Y705657D01*
X373159Y705557D01*
X372942Y705440D01*
X372742Y705340D01*
X372559Y705224D01*
X372409Y705107D01*
X372276Y705007D01*
X372159Y704924D01*
X372059Y704857D01*
X371992Y704790D01*
X371959Y704757D01*
X371942Y704740D01*
X371743Y704507D01*
X371559Y704274D01*
X371409Y704041D01*
X371276Y703791D01*
X371159Y703541D01*
X371059Y703307D01*
X370976Y703074D01*
X370926Y702841D01*
X370876Y702641D01*
X370843Y702441D01*
X370809Y702274D01*
X370793Y702124D01*
X370776Y702008D01*
Y701841D01*
X370793Y701591D01*
X370809Y701341D01*
X370893Y700891D01*
X371009Y700508D01*
X371143Y700158D01*
X371209Y700025D01*
X371259Y699892D01*
X371326Y699792D01*
X371376Y699692D01*
X371426Y699625D01*
X371459Y699575D01*
X371493Y699542D01*
Y699525D01*
X371642Y699359D01*
X371809Y699192D01*
X372176Y698875D01*
X372576Y698609D01*
X372959Y698359D01*
X373309Y698159D01*
X373475Y698075D01*
X373609Y698009D01*
X373725Y697942D01*
X373809Y697909D01*
X373859Y697892D01*
X373875Y697876D01*
X375142Y700925D01*
X375008Y700908D01*
X374925Y700891D01*
X374842D01*
X374692Y700908D01*
X374542Y700941D01*
X374425Y700991D01*
X374309Y701041D01*
X374225Y701091D01*
X374159Y701141D01*
X374125Y701175D01*
X374109Y701191D01*
X374009Y701308D01*
X373942Y701441D01*
X373875Y701558D01*
X373842Y701675D01*
X373825Y701791D01*
X373809Y701874D01*
Y701925D01*
Y701941D01*
X373825Y702091D01*
X373859Y702241D01*
X373909Y702374D01*
X373959Y702474D01*
X374009Y702574D01*
X374059Y702641D01*
X374092Y702674D01*
X374109Y702691D01*
X374225Y702791D01*
X374342Y702874D01*
X374475Y702924D01*
X374575Y702974D01*
X374675Y702991D01*
X374758Y703008D01*
X374825D01*
X374975Y702991D01*
X375125Y702958D01*
X375258Y702908D01*
X375358Y702858D01*
X375458Y702791D01*
X375525Y702741D01*
X375558Y702708D01*
X375575Y702691D01*
X375675Y702574D01*
X375758Y702458D01*
X375808Y702341D01*
X375858Y702224D01*
X375875Y702124D01*
X375891Y702041D01*
Y701991D01*
Y701974D01*
X375875Y701824D01*
X375841Y701675D01*
X375808Y701575D01*
X375792Y701541D01*
Y701525D01*
X373725Y695726D01*
X376525Y694760D01*
X378291Y699658D01*
X378391Y699942D01*
X378491Y700208D01*
X378557Y700458D01*
X378624Y700675D01*
X378691Y700891D01*
X378724Y701075D01*
X378774Y701241D01*
X378807Y701391D01*
X378824Y701525D01*
X378841Y701641D01*
X378857Y701741D01*
Y701824D01*
X378874Y701874D01*
Y701958D01*
X378857Y702258D01*
X378824Y702524D01*
X378757Y702808D01*
X378691Y703057D01*
X378491Y703524D01*
X378374Y703741D01*
X378274Y703941D01*
X378158Y704107D01*
X378041Y704274D01*
X377941Y704407D01*
X377841Y704507D01*
X377774Y704607D01*
X377708Y704674D01*
X377674Y704707D01*
X377658Y704724D01*
X377424Y704940D01*
X377191Y705124D01*
X376941Y705274D01*
X376708Y705424D01*
X376458Y705540D01*
X376225Y705624D01*
X376008Y705707D01*
X375792Y705773D01*
X375592Y705824D01*
X375408Y705857D01*
X375242Y705890D01*
X375092Y705907D01*
X374975Y705923D01*
D02*
G37*
G36*
X350181D02*
X350065D01*
X349682Y705907D01*
X349315Y705873D01*
X348965Y705790D01*
X348632Y705707D01*
X348315Y705607D01*
X348015Y705490D01*
X347732Y705374D01*
X347465Y705240D01*
X347232Y705107D01*
X347032Y704990D01*
X346849Y704874D01*
X346699Y704774D01*
X346582Y704690D01*
X346482Y704624D01*
X346432Y704574D01*
X346416Y704557D01*
X346082Y704241D01*
X345783Y703907D01*
X345533Y703574D01*
X345316Y703224D01*
X345116Y702874D01*
X344966Y702524D01*
X344833Y702191D01*
X344733Y701858D01*
X344666Y701558D01*
X344599Y701275D01*
X344566Y701025D01*
X344533Y700808D01*
X344516Y700625D01*
X344500Y700491D01*
Y700375D01*
X344516Y700025D01*
X344549Y699675D01*
X344599Y699342D01*
X344666Y699025D01*
X344749Y698725D01*
X344849Y698459D01*
X344949Y698192D01*
X345049Y697959D01*
X345149Y697742D01*
X345249Y697542D01*
X345349Y697376D01*
X345433Y697242D01*
X345499Y697126D01*
X345549Y697042D01*
X345583Y696992D01*
X345599Y696976D01*
X345816Y696709D01*
X346049Y696476D01*
X346282Y696243D01*
X346532Y696043D01*
X346782Y695876D01*
X347015Y695709D01*
X347265Y695559D01*
X347499Y695443D01*
X347715Y695343D01*
X347915Y695243D01*
X348099Y695176D01*
X348265Y695110D01*
X348382Y695060D01*
X348482Y695026D01*
X348549Y695010D01*
X348565D01*
Y694077D01*
X351564D01*
Y695010D01*
X351898Y695110D01*
X352214Y695243D01*
X352514Y695376D01*
X352797Y695526D01*
X353064Y695676D01*
X353297Y695843D01*
X353514Y695993D01*
X353714Y696159D01*
X353880Y696309D01*
X354030Y696459D01*
X354164Y696576D01*
X354264Y696693D01*
X354347Y696793D01*
X354414Y696859D01*
X354447Y696909D01*
X354464Y696926D01*
X354664Y697226D01*
X354847Y697526D01*
X354997Y697842D01*
X355147Y698142D01*
X355247Y698442D01*
X355347Y698725D01*
X355430Y699009D01*
X355480Y699275D01*
X355530Y699525D01*
X355563Y699758D01*
X355597Y699958D01*
X355613Y700125D01*
X355630Y700275D01*
Y700458D01*
X355613Y700825D01*
X355580Y701191D01*
X355513Y701541D01*
X355430Y701858D01*
X355330Y702174D01*
X355213Y702474D01*
X355097Y702741D01*
X354980Y702991D01*
X354847Y703207D01*
X354730Y703424D01*
X354614Y703591D01*
X354514Y703741D01*
X354430Y703857D01*
X354364Y703941D01*
X354330Y703991D01*
X354314Y704007D01*
X353997Y704341D01*
X353664Y704641D01*
X353314Y704890D01*
X352964Y705124D01*
X352614Y705307D01*
X352264Y705457D01*
X351914Y705590D01*
X351581Y705690D01*
X351264Y705757D01*
X350981Y705824D01*
X350731Y705873D01*
X350498Y705890D01*
X350315Y705907D01*
X350181Y705923D01*
D02*
G37*
%LPD*%
G36*
X350398Y702758D02*
X350715Y702674D01*
X350998Y702558D01*
X351231Y702424D01*
X351431Y702291D01*
X351581Y702174D01*
X351664Y702091D01*
X351698Y702075D01*
Y702058D01*
X351931Y701775D01*
X352098Y701491D01*
X352231Y701208D01*
X352314Y700941D01*
X352364Y700708D01*
X352381Y700525D01*
X352397Y700458D01*
Y700408D01*
Y700375D01*
Y700358D01*
X352381Y700125D01*
X352364Y699925D01*
X352314Y699708D01*
X352248Y699525D01*
X352098Y699175D01*
X351931Y698875D01*
X351748Y698642D01*
X351598Y698475D01*
X351531Y698409D01*
X351481Y698359D01*
X351464Y698342D01*
X351448Y698325D01*
Y699525D01*
X348665D01*
Y698325D01*
X348498Y698475D01*
X348365Y698625D01*
X348232Y698792D01*
X348132Y698975D01*
X347965Y699308D01*
X347849Y699625D01*
X347782Y699925D01*
X347765Y700042D01*
X347749Y700142D01*
X347732Y700242D01*
Y700308D01*
Y700342D01*
Y700358D01*
X347765Y700708D01*
X347832Y701041D01*
X347949Y701325D01*
X348082Y701575D01*
X348199Y701775D01*
X348315Y701925D01*
X348382Y702025D01*
X348415Y702058D01*
X348549Y702191D01*
X348682Y702308D01*
X348965Y702474D01*
X349248Y702608D01*
X349498Y702708D01*
X349731Y702758D01*
X349898Y702774D01*
X349965Y702791D01*
X350231D01*
X350398Y702758D01*
D02*
G37*
%LPC*%
G36*
X361445Y855923D02*
X361295D01*
X360962Y855907D01*
X360645Y855873D01*
X360345Y855807D01*
X360095Y855740D01*
X359879Y855674D01*
X359712Y855607D01*
X359646Y855590D01*
X359596Y855574D01*
X359579Y855557D01*
X359562D01*
X359262Y855407D01*
X358996Y855240D01*
X358746Y855074D01*
X358546Y854924D01*
X358379Y854774D01*
X358263Y854657D01*
X358196Y854591D01*
X358163Y854557D01*
X357996Y854341D01*
X357846Y854124D01*
X357729Y853924D01*
X357630Y853724D01*
X357546Y853557D01*
X357496Y853441D01*
X357480Y853357D01*
X357463Y853324D01*
X357396Y853058D01*
X357346Y852791D01*
X357313Y852508D01*
X357296Y852241D01*
X357280Y852008D01*
X357263Y851808D01*
Y845060D01*
X360412D01*
Y851974D01*
X360429Y852141D01*
X360445Y852291D01*
X360479Y852408D01*
X360529Y852508D01*
X360645Y852674D01*
X360779Y852791D01*
X360912Y852858D01*
X361029Y852891D01*
X361112Y852908D01*
X361278D01*
X361395Y852874D01*
X361562Y852808D01*
X361695Y852691D01*
X361795Y852574D01*
X361845Y852441D01*
X361862Y852324D01*
X361878Y852258D01*
Y852224D01*
X361862Y852091D01*
X361845Y851991D01*
X361795Y851891D01*
X361728Y851808D01*
X361578Y851675D01*
X361412Y851591D01*
X361228Y851525D01*
X361079Y851508D01*
X361012Y851491D01*
X360929D01*
Y848709D01*
X361395D01*
X361728Y848725D01*
X362028Y848742D01*
X362328Y848792D01*
X362578Y848842D01*
X362828Y848909D01*
X363061Y848992D01*
X363261Y849075D01*
X363428Y849159D01*
X363595Y849225D01*
X363728Y849308D01*
X363844Y849392D01*
X363945Y849458D01*
X364011Y849509D01*
X364061Y849558D01*
X364095Y849575D01*
X364111Y849592D01*
X364294Y849775D01*
X364444Y849975D01*
X364578Y850192D01*
X364694Y850392D01*
X364794Y850608D01*
X364861Y850825D01*
X364994Y851225D01*
X365028Y851408D01*
X365061Y851575D01*
X365078Y851725D01*
X365094Y851858D01*
X365111Y851974D01*
Y852124D01*
X365094Y852424D01*
X365061Y852708D01*
X365011Y852974D01*
X364944Y853224D01*
X364861Y853474D01*
X364761Y853691D01*
X364661Y853891D01*
X364561Y854074D01*
X364461Y854241D01*
X364361Y854390D01*
X364261Y854524D01*
X364178Y854624D01*
X364111Y854707D01*
X364061Y854774D01*
X364028Y854807D01*
X364011Y854824D01*
X363795Y855024D01*
X363578Y855190D01*
X363345Y855340D01*
X363128Y855457D01*
X362895Y855574D01*
X362662Y855657D01*
X362245Y855790D01*
X362045Y855840D01*
X361862Y855873D01*
X361712Y855890D01*
X361562Y855907D01*
X361445Y855923D01*
D02*
G37*
G36*
X405067Y855657D02*
X399469D01*
Y852608D01*
X400635D01*
X399852Y850508D01*
X400185Y850491D01*
X400468Y850442D01*
X400718Y850375D01*
X400935Y850308D01*
X401102Y850242D01*
X401218Y850175D01*
X401302Y850125D01*
X401318Y850108D01*
X401502Y849958D01*
X401651Y849775D01*
X401752Y849608D01*
X401818Y849442D01*
X401852Y849292D01*
X401885Y849175D01*
Y849092D01*
Y849059D01*
X401868Y848842D01*
X401818Y848659D01*
X401768Y848492D01*
X401702Y848359D01*
X401618Y848242D01*
X401568Y848159D01*
X401518Y848109D01*
X401502Y848092D01*
X401352Y847959D01*
X401202Y847876D01*
X401052Y847809D01*
X400918Y847759D01*
X400785Y847726D01*
X400685Y847709D01*
X400602D01*
X400402Y847726D01*
X400202Y847776D01*
X400019Y847842D01*
X399835Y847925D01*
X399669Y847992D01*
X399552Y848059D01*
X399469Y848109D01*
X399435Y848126D01*
Y845126D01*
X399769Y845010D01*
X400085Y844926D01*
X400385Y844876D01*
X400668Y844843D01*
X400902Y844810D01*
X401085Y844793D01*
X401235D01*
X401535Y844810D01*
X401818Y844843D01*
X402101Y844893D01*
X402351Y844960D01*
X402601Y845043D01*
X402835Y845126D01*
X403035Y845226D01*
X403234Y845326D01*
X403401Y845409D01*
X403551Y845509D01*
X403684Y845593D01*
X403801Y845676D01*
X403884Y845743D01*
X403951Y845793D01*
X403984Y845826D01*
X404001Y845843D01*
X404201Y846043D01*
X404367Y846259D01*
X404534Y846476D01*
X404651Y846693D01*
X404767Y846909D01*
X404851Y847126D01*
X405001Y847526D01*
X405034Y847709D01*
X405067Y847892D01*
X405101Y848042D01*
X405117Y848176D01*
X405134Y848275D01*
Y848425D01*
X405117Y848792D01*
X405067Y849142D01*
X405001Y849442D01*
X404917Y849708D01*
X404834Y849925D01*
X404767Y850075D01*
X404717Y850175D01*
X404701Y850208D01*
X404518Y850475D01*
X404318Y850742D01*
X404084Y850975D01*
X403868Y851175D01*
X403651Y851341D01*
X403484Y851475D01*
X403418Y851508D01*
X403384Y851541D01*
X403351Y851575D01*
X403334D01*
X405067Y855657D01*
D02*
G37*
G36*
X387105D02*
X382190D01*
X381040Y850142D01*
X381257Y850192D01*
X381440Y850225D01*
X381590Y850242D01*
X381740Y850258D01*
X381840Y850275D01*
X381990D01*
X382323Y850258D01*
X382623Y850208D01*
X382890Y850142D01*
X383123Y850058D01*
X383306Y849975D01*
X383439Y849908D01*
X383523Y849858D01*
X383556Y849842D01*
X383773Y849675D01*
X383939Y849492D01*
X384056Y849308D01*
X384123Y849142D01*
X384173Y848992D01*
X384189Y848875D01*
X384206Y848809D01*
Y848775D01*
X384189Y848575D01*
X384139Y848392D01*
X384073Y848242D01*
X384006Y848126D01*
X383923Y848026D01*
X383856Y847959D01*
X383806Y847909D01*
X383789Y847892D01*
X383623Y847792D01*
X383439Y847709D01*
X383256Y847659D01*
X383073Y847609D01*
X382906Y847592D01*
X382773Y847576D01*
X382656D01*
X382390Y847592D01*
X382123Y847642D01*
X381857Y847709D01*
X381607Y847792D01*
X381390Y847876D01*
X381223Y847942D01*
X381157Y847975D01*
X381107Y847992D01*
X381090Y848009D01*
X381073D01*
Y845393D01*
X381490Y845193D01*
X381907Y845043D01*
X382307Y844943D01*
X382656Y844876D01*
X382806Y844843D01*
X382940Y844826D01*
X383073Y844810D01*
X383173D01*
X383256Y844793D01*
X383373D01*
X383689Y844810D01*
X383989Y844843D01*
X384289Y844893D01*
X384556Y844960D01*
X384806Y845026D01*
X385039Y845110D01*
X385272Y845210D01*
X385472Y845310D01*
X385639Y845393D01*
X385806Y845493D01*
X385939Y845576D01*
X386055Y845659D01*
X386139Y845709D01*
X386205Y845759D01*
X386239Y845793D01*
X386255Y845809D01*
X386455Y846009D01*
X386639Y846226D01*
X386789Y846426D01*
X386922Y846659D01*
X387039Y846876D01*
X387122Y847092D01*
X387205Y847292D01*
X387255Y847492D01*
X387305Y847692D01*
X387338Y847859D01*
X387372Y848009D01*
X387388Y848142D01*
X387405Y848259D01*
Y848409D01*
X387388Y848675D01*
X387372Y848942D01*
X387322Y849192D01*
X387255Y849425D01*
X387105Y849842D01*
X387022Y850042D01*
X386939Y850225D01*
X386839Y850375D01*
X386755Y850508D01*
X386672Y850641D01*
X386605Y850742D01*
X386539Y850825D01*
X386489Y850875D01*
X386472Y850908D01*
X386455Y850925D01*
X386322Y851075D01*
X386172Y851208D01*
X385839Y851441D01*
X385489Y851641D01*
X385156Y851824D01*
X384839Y851958D01*
X384706Y852008D01*
X384589Y852041D01*
X384489Y852075D01*
X384423Y852108D01*
X384373Y852124D01*
X384356D01*
X384489Y852608D01*
X387105D01*
Y855657D01*
D02*
G37*
G36*
X369343D02*
X366194D01*
Y848842D01*
X366211Y848525D01*
X366227Y848209D01*
X366277Y847925D01*
X366344Y847659D01*
X366410Y847409D01*
X366494Y847176D01*
X366577Y846976D01*
X366677Y846776D01*
X366760Y846609D01*
X366844Y846476D01*
X366927Y846343D01*
X366994Y846243D01*
X367060Y846159D01*
X367110Y846109D01*
X367127Y846076D01*
X367144Y846059D01*
X367327Y845876D01*
X367544Y845726D01*
X367743Y845593D01*
X367977Y845476D01*
X368193Y845393D01*
X368410Y845310D01*
X368843Y845193D01*
X369043Y845143D01*
X369226Y845110D01*
X369393Y845093D01*
X369543Y845076D01*
X369660Y845060D01*
X370676D01*
Y848126D01*
X370509D01*
X370276Y848142D01*
X370076Y848159D01*
X369910Y848192D01*
X369776Y848242D01*
X369693Y848292D01*
X369626Y848325D01*
X369593Y848342D01*
X369576Y848359D01*
X369493Y848475D01*
X369443Y848625D01*
X369393Y848775D01*
X369376Y848942D01*
X369360Y849092D01*
X369343Y849225D01*
Y849308D01*
Y849342D01*
Y855657D01*
D02*
G37*
G36*
X393404Y855923D02*
X393237D01*
X392920Y855907D01*
X392621Y855873D01*
X392337Y855807D01*
X392071Y855740D01*
X391821Y855657D01*
X391587Y855557D01*
X391387Y855440D01*
X391204Y855340D01*
X391038Y855224D01*
X390888Y855107D01*
X390754Y855007D01*
X390654Y854924D01*
X390571Y854857D01*
X390521Y854790D01*
X390488Y854757D01*
X390471Y854741D01*
X390288Y854507D01*
X390138Y854257D01*
X390005Y854007D01*
X389888Y853741D01*
X389805Y853474D01*
X389721Y853191D01*
X389605Y852674D01*
X389555Y852441D01*
X389521Y852224D01*
X389505Y852025D01*
X389488Y851841D01*
X389471Y851708D01*
Y849192D01*
X389488Y848825D01*
X389521Y848475D01*
X389571Y848142D01*
X389621Y847826D01*
X389705Y847542D01*
X389788Y847276D01*
X389871Y847042D01*
X389971Y846826D01*
X390071Y846626D01*
X390154Y846459D01*
X390238Y846309D01*
X390321Y846193D01*
X390371Y846093D01*
X390421Y846026D01*
X390454Y845993D01*
X390471Y845976D01*
X390671Y845776D01*
X390888Y845593D01*
X391104Y845426D01*
X391338Y845293D01*
X391571Y845176D01*
X391787Y845076D01*
X392021Y845010D01*
X392237Y844943D01*
X392437Y844893D01*
X392637Y844860D01*
X392804Y844826D01*
X392954Y844810D01*
X393070Y844793D01*
X393237D01*
X393554Y844810D01*
X393853Y844843D01*
X394137Y844910D01*
X394403Y844976D01*
X394653Y845060D01*
X394887Y845160D01*
X395087Y845276D01*
X395270Y845393D01*
X395436Y845493D01*
X395586Y845610D01*
X395720Y845709D01*
X395820Y845793D01*
X395903Y845859D01*
X395953Y845926D01*
X395986Y845959D01*
X396003Y845976D01*
X396186Y846209D01*
X396336Y846459D01*
X396486Y846709D01*
X396603Y846976D01*
X396703Y847242D01*
X396786Y847509D01*
X396903Y848026D01*
X396953Y848259D01*
X396986Y848492D01*
X397003Y848692D01*
X397019Y848859D01*
X397036Y848992D01*
Y851508D01*
X397019Y851874D01*
X396986Y852241D01*
X396936Y852574D01*
X396869Y852874D01*
X396803Y853174D01*
X396703Y853424D01*
X396619Y853674D01*
X396520Y853891D01*
X396419Y854091D01*
X396336Y854257D01*
X396236Y854407D01*
X396170Y854524D01*
X396103Y854624D01*
X396053Y854690D01*
X396020Y854724D01*
X396003Y854741D01*
X395803Y854957D01*
X395586Y855124D01*
X395370Y855290D01*
X395136Y855424D01*
X394920Y855540D01*
X394687Y855640D01*
X394453Y855707D01*
X394237Y855773D01*
X394037Y855824D01*
X393837Y855857D01*
X393670Y855890D01*
X393520Y855907D01*
X393404Y855923D01*
D02*
G37*
G36*
X375342D02*
X375192D01*
X374875Y855907D01*
X374575Y855873D01*
X374292Y855807D01*
X374025Y855740D01*
X373775Y855657D01*
X373525Y855557D01*
X373309Y855440D01*
X373109Y855340D01*
X372925Y855224D01*
X372776Y855107D01*
X372642Y855007D01*
X372526Y854924D01*
X372426Y854857D01*
X372359Y854790D01*
X372326Y854757D01*
X372309Y854741D01*
X372109Y854507D01*
X371926Y854274D01*
X371776Y854041D01*
X371642Y853791D01*
X371526Y853541D01*
X371426Y853307D01*
X371343Y853074D01*
X371293Y852841D01*
X371243Y852641D01*
X371209Y852441D01*
X371176Y852274D01*
X371159Y852124D01*
X371143Y852008D01*
Y851841D01*
X371159Y851591D01*
X371176Y851341D01*
X371259Y850891D01*
X371376Y850508D01*
X371509Y850158D01*
X371576Y850025D01*
X371626Y849892D01*
X371693Y849792D01*
X371743Y849692D01*
X371792Y849625D01*
X371826Y849575D01*
X371859Y849542D01*
Y849525D01*
X372009Y849359D01*
X372176Y849192D01*
X372542Y848875D01*
X372942Y848609D01*
X373325Y848359D01*
X373675Y848159D01*
X373842Y848075D01*
X373975Y848009D01*
X374092Y847942D01*
X374175Y847909D01*
X374225Y847892D01*
X374242Y847876D01*
X375508Y850925D01*
X375375Y850908D01*
X375292Y850891D01*
X375208D01*
X375058Y850908D01*
X374908Y850941D01*
X374792Y850991D01*
X374675Y851041D01*
X374592Y851091D01*
X374525Y851141D01*
X374492Y851175D01*
X374475Y851191D01*
X374375Y851308D01*
X374309Y851441D01*
X374242Y851558D01*
X374208Y851675D01*
X374192Y851791D01*
X374175Y851874D01*
Y851925D01*
Y851941D01*
X374192Y852091D01*
X374225Y852241D01*
X374275Y852374D01*
X374325Y852474D01*
X374375Y852574D01*
X374425Y852641D01*
X374459Y852674D01*
X374475Y852691D01*
X374592Y852791D01*
X374708Y852874D01*
X374842Y852924D01*
X374942Y852974D01*
X375042Y852991D01*
X375125Y853008D01*
X375192D01*
X375342Y852991D01*
X375492Y852958D01*
X375625Y852908D01*
X375725Y852858D01*
X375825Y852791D01*
X375891Y852741D01*
X375925Y852708D01*
X375941Y852691D01*
X376041Y852574D01*
X376125Y852458D01*
X376175Y852341D01*
X376225Y852224D01*
X376241Y852124D01*
X376258Y852041D01*
Y851991D01*
Y851974D01*
X376241Y851824D01*
X376208Y851675D01*
X376175Y851575D01*
X376158Y851541D01*
Y851525D01*
X374092Y845726D01*
X376891Y844760D01*
X378657Y849658D01*
X378757Y849942D01*
X378857Y850208D01*
X378924Y850458D01*
X378991Y850675D01*
X379057Y850891D01*
X379091Y851075D01*
X379141Y851241D01*
X379174Y851391D01*
X379191Y851525D01*
X379207Y851641D01*
X379224Y851741D01*
Y851824D01*
X379241Y851874D01*
Y851958D01*
X379224Y852258D01*
X379191Y852524D01*
X379124Y852808D01*
X379057Y853058D01*
X378857Y853524D01*
X378741Y853741D01*
X378641Y853941D01*
X378524Y854107D01*
X378408Y854274D01*
X378307Y854407D01*
X378208Y854507D01*
X378141Y854607D01*
X378074Y854674D01*
X378041Y854707D01*
X378024Y854724D01*
X377791Y854940D01*
X377558Y855124D01*
X377308Y855274D01*
X377075Y855424D01*
X376824Y855540D01*
X376591Y855624D01*
X376375Y855707D01*
X376158Y855773D01*
X375958Y855824D01*
X375775Y855857D01*
X375608Y855890D01*
X375458Y855907D01*
X375342Y855923D01*
D02*
G37*
G36*
X350548D02*
X350431D01*
X350048Y855907D01*
X349682Y855873D01*
X349332Y855790D01*
X348998Y855707D01*
X348682Y855607D01*
X348382Y855490D01*
X348099Y855374D01*
X347832Y855240D01*
X347599Y855107D01*
X347399Y854990D01*
X347215Y854874D01*
X347066Y854774D01*
X346949Y854690D01*
X346849Y854624D01*
X346799Y854574D01*
X346782Y854557D01*
X346449Y854241D01*
X346149Y853907D01*
X345899Y853574D01*
X345682Y853224D01*
X345483Y852874D01*
X345333Y852524D01*
X345199Y852191D01*
X345099Y851858D01*
X345033Y851558D01*
X344966Y851275D01*
X344933Y851025D01*
X344899Y850808D01*
X344883Y850625D01*
X344866Y850491D01*
Y850375D01*
X344883Y850025D01*
X344916Y849675D01*
X344966Y849342D01*
X345033Y849025D01*
X345116Y848725D01*
X345216Y848459D01*
X345316Y848192D01*
X345416Y847959D01*
X345516Y847742D01*
X345616Y847542D01*
X345716Y847376D01*
X345799Y847242D01*
X345866Y847126D01*
X345916Y847042D01*
X345949Y846992D01*
X345966Y846976D01*
X346182Y846709D01*
X346416Y846476D01*
X346649Y846243D01*
X346899Y846043D01*
X347149Y845876D01*
X347382Y845709D01*
X347632Y845559D01*
X347865Y845443D01*
X348082Y845343D01*
X348282Y845243D01*
X348465Y845176D01*
X348632Y845110D01*
X348748Y845060D01*
X348848Y845026D01*
X348915Y845010D01*
X348932D01*
Y844077D01*
X351931D01*
Y845010D01*
X352264Y845110D01*
X352581Y845243D01*
X352881Y845376D01*
X353164Y845526D01*
X353430Y845676D01*
X353664Y845843D01*
X353880Y845993D01*
X354080Y846159D01*
X354247Y846309D01*
X354397Y846459D01*
X354530Y846576D01*
X354630Y846693D01*
X354714Y846793D01*
X354780Y846859D01*
X354813Y846909D01*
X354830Y846926D01*
X355030Y847226D01*
X355213Y847526D01*
X355363Y847842D01*
X355513Y848142D01*
X355613Y848442D01*
X355713Y848725D01*
X355797Y849009D01*
X355847Y849275D01*
X355897Y849525D01*
X355930Y849758D01*
X355963Y849958D01*
X355980Y850125D01*
X355997Y850275D01*
Y850458D01*
X355980Y850825D01*
X355947Y851191D01*
X355880Y851541D01*
X355797Y851858D01*
X355697Y852174D01*
X355580Y852474D01*
X355463Y852741D01*
X355347Y852991D01*
X355213Y853207D01*
X355097Y853424D01*
X354980Y853591D01*
X354880Y853741D01*
X354797Y853857D01*
X354730Y853941D01*
X354697Y853991D01*
X354680Y854007D01*
X354364Y854341D01*
X354030Y854641D01*
X353680Y854890D01*
X353331Y855124D01*
X352981Y855307D01*
X352631Y855457D01*
X352281Y855590D01*
X351948Y855690D01*
X351631Y855757D01*
X351348Y855824D01*
X351098Y855873D01*
X350864Y855890D01*
X350681Y855907D01*
X350548Y855923D01*
D02*
G37*
%LPD*%
G36*
X393370Y853108D02*
X393504Y853074D01*
X393604Y853024D01*
X393687Y852974D01*
X393837Y852808D01*
X393920Y852624D01*
X393987Y852441D01*
X394003Y852274D01*
X394020Y852224D01*
Y852174D01*
Y852141D01*
Y852124D01*
Y848559D01*
Y848392D01*
X393987Y848242D01*
X393954Y848126D01*
X393904Y848009D01*
X393837Y847925D01*
X393770Y847842D01*
X393637Y847726D01*
X393487Y847659D01*
X393354Y847626D01*
X393270Y847609D01*
X393237D01*
X393104Y847626D01*
X392987Y847642D01*
X392887Y847692D01*
X392804Y847759D01*
X392671Y847909D01*
X392587Y848092D01*
X392520Y848259D01*
X392504Y848409D01*
X392487Y848475D01*
Y848525D01*
Y848542D01*
Y848559D01*
Y852124D01*
X392504Y852308D01*
X392520Y852458D01*
X392554Y852591D01*
X392604Y852708D01*
X392654Y852808D01*
X392720Y852874D01*
X392870Y853008D01*
X393004Y853074D01*
X393120Y853108D01*
X393204Y853124D01*
X393237D01*
X393370Y853108D01*
D02*
G37*
G36*
X350765Y852758D02*
X351081Y852674D01*
X351364Y852558D01*
X351598Y852424D01*
X351798Y852291D01*
X351948Y852174D01*
X352031Y852091D01*
X352064Y852075D01*
Y852058D01*
X352298Y851775D01*
X352464Y851491D01*
X352597Y851208D01*
X352681Y850941D01*
X352731Y850708D01*
X352747Y850525D01*
X352764Y850458D01*
Y850408D01*
Y850375D01*
Y850358D01*
X352747Y850125D01*
X352731Y849925D01*
X352681Y849708D01*
X352614Y849525D01*
X352464Y849175D01*
X352298Y848875D01*
X352114Y848642D01*
X351964Y848475D01*
X351898Y848409D01*
X351848Y848359D01*
X351831Y848342D01*
X351814Y848325D01*
Y849525D01*
X349032D01*
Y848325D01*
X348865Y848475D01*
X348732Y848625D01*
X348598Y848792D01*
X348498Y848975D01*
X348332Y849308D01*
X348215Y849625D01*
X348149Y849925D01*
X348132Y850042D01*
X348115Y850142D01*
X348099Y850242D01*
Y850308D01*
Y850342D01*
Y850358D01*
X348132Y850708D01*
X348199Y851041D01*
X348315Y851325D01*
X348448Y851575D01*
X348565Y851775D01*
X348682Y851925D01*
X348748Y852025D01*
X348782Y852058D01*
X348915Y852191D01*
X349048Y852308D01*
X349332Y852474D01*
X349615Y852608D01*
X349865Y852708D01*
X350098Y852758D01*
X350265Y852774D01*
X350331Y852791D01*
X350598D01*
X350765Y852758D01*
D02*
G37*
%LPC*%
G36*
X361278Y980449D02*
X360879Y980415D01*
X360512Y980349D01*
X360162Y980249D01*
X359862Y980132D01*
X359596Y980015D01*
X359496Y979965D01*
X359396Y979915D01*
X359329Y979882D01*
X359279Y979849D01*
X359246Y979815D01*
X359229D01*
X358879Y979566D01*
X358579Y979299D01*
X358329Y979016D01*
X358129Y978766D01*
X357963Y978532D01*
X357846Y978349D01*
X357813Y978282D01*
X357779Y978232D01*
X357763Y978199D01*
Y978183D01*
X357646Y977883D01*
X357546Y977549D01*
X357480Y977233D01*
X357446Y976933D01*
X357413Y976683D01*
Y976566D01*
X357396Y976466D01*
Y969718D01*
X360312D01*
Y972701D01*
X361595D01*
Y975750D01*
X360312D01*
Y976000D01*
X360329Y976233D01*
X360362Y976450D01*
X360395Y976616D01*
X360462Y976766D01*
X360512Y976883D01*
X360545Y976966D01*
X360579Y977016D01*
X360595Y977033D01*
X360712Y977150D01*
X360862Y977249D01*
X360995Y977316D01*
X361129Y977349D01*
X361262Y977383D01*
X361362Y977399D01*
X361545D01*
X361578Y977383D01*
X361595D01*
Y980432D01*
X361278Y980449D01*
D02*
G37*
G36*
X375158Y977616D02*
X375025D01*
X374742Y977599D01*
X374492Y977566D01*
X374242Y977516D01*
X374009Y977466D01*
X373792Y977383D01*
X373592Y977299D01*
X373409Y977216D01*
X373242Y977116D01*
X373092Y977016D01*
X372959Y976933D01*
X372859Y976850D01*
X372759Y976766D01*
X372692Y976716D01*
X372642Y976666D01*
X372609Y976633D01*
X372592Y976616D01*
X372426Y976416D01*
X372292Y976216D01*
X372176Y976000D01*
X372059Y975783D01*
X371893Y975333D01*
X371792Y974900D01*
X371759Y974700D01*
X371726Y974517D01*
X371709Y974350D01*
X371693Y974217D01*
X371676Y974100D01*
Y969718D01*
X374592D01*
Y973384D01*
X374608Y973600D01*
X374625Y973784D01*
X374658Y973950D01*
X374708Y974084D01*
X374775Y974200D01*
X374842Y974300D01*
X374908Y974383D01*
X374992Y974450D01*
X375125Y974533D01*
X375258Y974583D01*
X375342Y974600D01*
X375458D01*
X375558Y974567D01*
X375742Y974517D01*
X375808Y974483D01*
X375875Y974450D01*
X375908Y974434D01*
X375925Y974417D01*
Y977516D01*
X375725Y977549D01*
X375558Y977583D01*
X375392Y977599D01*
X375275D01*
X375158Y977616D01*
D02*
G37*
G36*
X397936D02*
X397803D01*
X397503Y977599D01*
X397203Y977566D01*
X396919Y977516D01*
X396653Y977433D01*
X396403Y977349D01*
X396170Y977249D01*
X395953Y977150D01*
X395753Y977033D01*
X395570Y976933D01*
X395420Y976816D01*
X395286Y976716D01*
X395170Y976633D01*
X395070Y976550D01*
X395003Y976500D01*
X394970Y976466D01*
X394953Y976450D01*
X394753Y976233D01*
X394570Y976000D01*
X394403Y975750D01*
X394270Y975517D01*
X394153Y975283D01*
X394053Y975050D01*
X393987Y974817D01*
X393920Y974600D01*
X393870Y974400D01*
X393837Y974217D01*
X393803Y974050D01*
X393787Y973917D01*
X393770Y973800D01*
Y973634D01*
X393787Y973317D01*
X393820Y973017D01*
X393870Y972734D01*
X393954Y972451D01*
X394037Y972201D01*
X394137Y971967D01*
X394253Y971734D01*
X394353Y971534D01*
X394470Y971368D01*
X394570Y971201D01*
X394670Y971068D01*
X394753Y970951D01*
X394837Y970851D01*
X394887Y970784D01*
X394920Y970751D01*
X394937Y970734D01*
X395170Y970535D01*
X395403Y970351D01*
X395636Y970185D01*
X395886Y970051D01*
X396136Y969935D01*
X396370Y969835D01*
X396603Y969768D01*
X396819Y969701D01*
X397036Y969651D01*
X397219Y969618D01*
X397386Y969585D01*
X397536Y969568D01*
X397653Y969551D01*
X397819D01*
X398119Y969568D01*
X398402Y969601D01*
X398669Y969651D01*
X398936Y969718D01*
X399169Y969801D01*
X399402Y969885D01*
X399602Y969985D01*
X399785Y970085D01*
X399969Y970185D01*
X400119Y970285D01*
X400252Y970368D01*
X400352Y970451D01*
X400435Y970518D01*
X400502Y970568D01*
X400535Y970601D01*
X400552Y970618D01*
X400752Y970834D01*
X400935Y971051D01*
X401085Y971268D01*
X401218Y971501D01*
X401352Y971734D01*
X401452Y971967D01*
X401601Y972401D01*
X401651Y972617D01*
X401702Y972801D01*
X401735Y972967D01*
X401768Y973101D01*
X401785Y973217D01*
X401801Y973317D01*
Y973384D01*
X398919Y973267D01*
X398852Y973117D01*
X398786Y972984D01*
X398719Y972867D01*
X398636Y972784D01*
X398469Y972617D01*
X398286Y972517D01*
X398136Y972467D01*
X398003Y972434D01*
X397919Y972417D01*
X397886D01*
X397702Y972434D01*
X397553Y972467D01*
X397403Y972517D01*
X397286Y972584D01*
X397186Y972651D01*
X397119Y972701D01*
X397069Y972734D01*
X397053Y972751D01*
X396936Y972884D01*
X396853Y973017D01*
X396803Y973167D01*
X396769Y973300D01*
X396736Y973417D01*
X396720Y973517D01*
Y973584D01*
Y973600D01*
X396736Y973767D01*
X396769Y973934D01*
X396819Y974067D01*
X396869Y974184D01*
X396919Y974284D01*
X396969Y974350D01*
X397003Y974400D01*
X397019Y974417D01*
X397153Y974533D01*
X397286Y974617D01*
X397419Y974667D01*
X397553Y974717D01*
X397669Y974733D01*
X397752Y974750D01*
X397836D01*
X398052Y974733D01*
X398236Y974667D01*
X398386Y974600D01*
X398536Y974500D01*
X398636Y974417D01*
X398719Y974333D01*
X398769Y974267D01*
X398786Y974250D01*
X401735Y974350D01*
X401668Y974617D01*
X401601Y974867D01*
X401402Y975317D01*
X401185Y975716D01*
X401068Y975900D01*
X400952Y976066D01*
X400835Y976200D01*
X400718Y976333D01*
X400619Y976450D01*
X400535Y976533D01*
X400452Y976600D01*
X400402Y976666D01*
X400368Y976683D01*
X400352Y976700D01*
X400135Y976866D01*
X399935Y977000D01*
X399702Y977133D01*
X399485Y977233D01*
X399069Y977399D01*
X398669Y977499D01*
X398486Y977533D01*
X398319Y977566D01*
X398169Y977583D01*
X398052Y977599D01*
X397936Y977616D01*
D02*
G37*
G36*
X406900Y977633D02*
X406734D01*
X406417Y977616D01*
X406117Y977583D01*
X405834Y977516D01*
X405550Y977449D01*
X405301Y977366D01*
X405067Y977266D01*
X404834Y977150D01*
X404634Y977049D01*
X404468Y976933D01*
X404301Y976816D01*
X404168Y976716D01*
X404051Y976633D01*
X403951Y976566D01*
X403884Y976500D01*
X403851Y976466D01*
X403834Y976450D01*
X403634Y976233D01*
X403451Y976000D01*
X403284Y975750D01*
X403151Y975517D01*
X403035Y975267D01*
X402934Y975033D01*
X402868Y974800D01*
X402801Y974583D01*
X402751Y974367D01*
X402718Y974184D01*
X402685Y974017D01*
X402668Y973867D01*
X402651Y973750D01*
Y973584D01*
X402668Y973267D01*
X402701Y972967D01*
X402751Y972684D01*
X402835Y972417D01*
X402918Y972151D01*
X403018Y971917D01*
X403134Y971701D01*
X403234Y971501D01*
X403351Y971334D01*
X403451Y971168D01*
X403551Y971034D01*
X403634Y970918D01*
X403718Y970834D01*
X403768Y970768D01*
X403801Y970734D01*
X403818Y970718D01*
X404051Y970518D01*
X404284Y970334D01*
X404518Y970185D01*
X404767Y970051D01*
X405001Y969935D01*
X405251Y969851D01*
X405484Y969768D01*
X405700Y969718D01*
X405917Y969668D01*
X406100Y969635D01*
X406284Y969601D01*
X406434Y969585D01*
X406550Y969568D01*
X406717D01*
X406983Y969585D01*
X407233Y969601D01*
X407717Y969701D01*
X408150Y969851D01*
X408533Y970018D01*
X408700Y970101D01*
X408850Y970185D01*
X408966Y970268D01*
X409083Y970334D01*
X409166Y970385D01*
X409233Y970434D01*
X409266Y970451D01*
X409283Y970468D01*
X407633Y972451D01*
X407483Y972317D01*
X407333Y972217D01*
X407183Y972134D01*
X407050Y972084D01*
X406950Y972051D01*
X406850Y972034D01*
X406783D01*
X406600Y972051D01*
X406417Y972101D01*
X406284Y972184D01*
X406150Y972267D01*
X406050Y972334D01*
X405984Y972417D01*
X405934Y972467D01*
X405917Y972484D01*
X405817Y972667D01*
X405734Y972867D01*
X405684Y973084D01*
X405634Y973284D01*
X405617Y973450D01*
X405601Y973584D01*
Y973684D01*
Y973717D01*
X405617Y973967D01*
X405650Y974200D01*
X405700Y974400D01*
X405767Y974583D01*
X405834Y974717D01*
X405884Y974817D01*
X405917Y974883D01*
X405934Y974900D01*
X406067Y975050D01*
X406217Y975167D01*
X406367Y975250D01*
X406500Y975317D01*
X406634Y975350D01*
X406734Y975367D01*
X406817D01*
X406967Y975350D01*
X407100Y975333D01*
X407317Y975233D01*
X407483Y975083D01*
X407617Y974933D01*
X407700Y974767D01*
X407767Y974617D01*
X407800Y974517D01*
Y974500D01*
Y974483D01*
X406317D01*
X406234Y974200D01*
X406217Y974067D01*
X406200Y973950D01*
X406184Y973867D01*
Y973784D01*
Y973734D01*
Y973717D01*
X406200Y973500D01*
X406234Y973317D01*
X406250Y973234D01*
X406267Y973167D01*
X406284Y973134D01*
Y973117D01*
X410682D01*
X410699Y973251D01*
Y973350D01*
X410716Y973450D01*
Y973650D01*
X410699Y973967D01*
X410666Y974250D01*
X410616Y974533D01*
X410533Y974800D01*
X410449Y975050D01*
X410349Y975283D01*
X410249Y975500D01*
X410149Y975700D01*
X410033Y975883D01*
X409933Y976033D01*
X409833Y976166D01*
X409749Y976283D01*
X409666Y976366D01*
X409616Y976433D01*
X409583Y976466D01*
X409566Y976483D01*
X409350Y976683D01*
X409116Y976866D01*
X408883Y977016D01*
X408633Y977150D01*
X408400Y977266D01*
X408167Y977349D01*
X407933Y977433D01*
X407717Y977483D01*
X407517Y977533D01*
X407333Y977566D01*
X407167Y977599D01*
X407017Y977616D01*
X406900Y977633D01*
D02*
G37*
G36*
X380590D02*
X380424D01*
X380107Y977616D01*
X379807Y977583D01*
X379524Y977516D01*
X379241Y977449D01*
X378991Y977366D01*
X378757Y977266D01*
X378524Y977150D01*
X378324Y977049D01*
X378158Y976933D01*
X377991Y976816D01*
X377858Y976716D01*
X377741Y976633D01*
X377641Y976566D01*
X377574Y976500D01*
X377541Y976466D01*
X377524Y976450D01*
X377324Y976233D01*
X377141Y976000D01*
X376974Y975750D01*
X376841Y975517D01*
X376725Y975267D01*
X376625Y975033D01*
X376558Y974800D01*
X376491Y974583D01*
X376441Y974367D01*
X376408Y974184D01*
X376375Y974017D01*
X376358Y973867D01*
X376341Y973750D01*
Y973584D01*
X376358Y973267D01*
X376391Y972967D01*
X376441Y972684D01*
X376525Y972417D01*
X376608Y972151D01*
X376708Y971917D01*
X376824Y971701D01*
X376925Y971501D01*
X377041Y971334D01*
X377141Y971168D01*
X377241Y971034D01*
X377324Y970918D01*
X377408Y970834D01*
X377458Y970768D01*
X377491Y970734D01*
X377508Y970718D01*
X377741Y970518D01*
X377974Y970334D01*
X378208Y970185D01*
X378457Y970051D01*
X378691Y969935D01*
X378941Y969851D01*
X379174Y969768D01*
X379391Y969718D01*
X379607Y969668D01*
X379790Y969635D01*
X379974Y969601D01*
X380124Y969585D01*
X380240Y969568D01*
X380407D01*
X380674Y969585D01*
X380924Y969601D01*
X381407Y969701D01*
X381840Y969851D01*
X382223Y970018D01*
X382390Y970101D01*
X382540Y970185D01*
X382656Y970268D01*
X382773Y970334D01*
X382856Y970385D01*
X382923Y970434D01*
X382956Y970451D01*
X382973Y970468D01*
X381323Y972451D01*
X381173Y972317D01*
X381023Y972217D01*
X380873Y972134D01*
X380740Y972084D01*
X380640Y972051D01*
X380540Y972034D01*
X380474D01*
X380290Y972051D01*
X380107Y972101D01*
X379974Y972184D01*
X379840Y972267D01*
X379740Y972334D01*
X379674Y972417D01*
X379624Y972467D01*
X379607Y972484D01*
X379507Y972667D01*
X379424Y972867D01*
X379374Y973084D01*
X379324Y973284D01*
X379307Y973450D01*
X379291Y973584D01*
Y973684D01*
Y973717D01*
X379307Y973967D01*
X379341Y974200D01*
X379391Y974400D01*
X379457Y974583D01*
X379524Y974717D01*
X379574Y974817D01*
X379607Y974883D01*
X379624Y974900D01*
X379757Y975050D01*
X379907Y975167D01*
X380057Y975250D01*
X380190Y975317D01*
X380324Y975350D01*
X380424Y975367D01*
X380507D01*
X380657Y975350D01*
X380790Y975333D01*
X381007Y975233D01*
X381173Y975083D01*
X381307Y974933D01*
X381390Y974767D01*
X381457Y974617D01*
X381490Y974517D01*
Y974500D01*
Y974483D01*
X380007D01*
X379924Y974200D01*
X379907Y974067D01*
X379890Y973950D01*
X379874Y973867D01*
Y973784D01*
Y973734D01*
Y973717D01*
X379890Y973500D01*
X379924Y973317D01*
X379940Y973234D01*
X379957Y973167D01*
X379974Y973134D01*
Y973117D01*
X384373D01*
X384389Y973251D01*
Y973350D01*
X384406Y973450D01*
Y973650D01*
X384389Y973967D01*
X384356Y974250D01*
X384306Y974533D01*
X384223Y974800D01*
X384139Y975050D01*
X384039Y975283D01*
X383939Y975500D01*
X383839Y975700D01*
X383723Y975883D01*
X383623Y976033D01*
X383523Y976166D01*
X383439Y976283D01*
X383356Y976366D01*
X383306Y976433D01*
X383273Y976466D01*
X383256Y976483D01*
X383040Y976683D01*
X382806Y976866D01*
X382573Y977016D01*
X382323Y977150D01*
X382090Y977266D01*
X381857Y977349D01*
X381623Y977433D01*
X381407Y977483D01*
X381207Y977533D01*
X381023Y977566D01*
X380857Y977599D01*
X380707Y977616D01*
X380590Y977633D01*
D02*
G37*
G36*
X366677D02*
X366511D01*
X366194Y977616D01*
X365894Y977583D01*
X365611Y977516D01*
X365327Y977449D01*
X365078Y977366D01*
X364844Y977266D01*
X364611Y977150D01*
X364411Y977049D01*
X364244Y976933D01*
X364078Y976816D01*
X363945Y976716D01*
X363828Y976633D01*
X363728Y976566D01*
X363661Y976500D01*
X363628Y976466D01*
X363611Y976450D01*
X363411Y976233D01*
X363228Y976000D01*
X363061Y975750D01*
X362928Y975517D01*
X362812Y975267D01*
X362711Y975033D01*
X362645Y974800D01*
X362578Y974583D01*
X362528Y974367D01*
X362495Y974184D01*
X362462Y974017D01*
X362445Y973867D01*
X362428Y973750D01*
Y973584D01*
X362445Y973267D01*
X362478Y972967D01*
X362528Y972684D01*
X362612Y972417D01*
X362695Y972151D01*
X362795Y971917D01*
X362911Y971701D01*
X363011Y971501D01*
X363128Y971334D01*
X363228Y971168D01*
X363328Y971034D01*
X363411Y970918D01*
X363495Y970834D01*
X363545Y970768D01*
X363578Y970734D01*
X363595Y970718D01*
X363828Y970518D01*
X364061Y970334D01*
X364294Y970185D01*
X364544Y970051D01*
X364778Y969935D01*
X365028Y969851D01*
X365261Y969768D01*
X365477Y969718D01*
X365694Y969668D01*
X365877Y969635D01*
X366061Y969601D01*
X366211Y969585D01*
X366327Y969568D01*
X366494D01*
X366760Y969585D01*
X367010Y969601D01*
X367494Y969701D01*
X367927Y969851D01*
X368310Y970018D01*
X368477Y970101D01*
X368627Y970185D01*
X368743Y970268D01*
X368860Y970334D01*
X368943Y970385D01*
X369010Y970434D01*
X369043Y970451D01*
X369060Y970468D01*
X367410Y972451D01*
X367260Y972317D01*
X367110Y972217D01*
X366960Y972134D01*
X366827Y972084D01*
X366727Y972051D01*
X366627Y972034D01*
X366561D01*
X366377Y972051D01*
X366194Y972101D01*
X366061Y972184D01*
X365927Y972267D01*
X365827Y972334D01*
X365761Y972417D01*
X365711Y972467D01*
X365694Y972484D01*
X365594Y972667D01*
X365511Y972867D01*
X365461Y973084D01*
X365411Y973284D01*
X365394Y973450D01*
X365378Y973584D01*
Y973684D01*
Y973717D01*
X365394Y973967D01*
X365428Y974200D01*
X365477Y974400D01*
X365544Y974583D01*
X365611Y974717D01*
X365661Y974817D01*
X365694Y974883D01*
X365711Y974900D01*
X365844Y975050D01*
X365994Y975167D01*
X366144Y975250D01*
X366277Y975317D01*
X366410Y975350D01*
X366511Y975367D01*
X366594D01*
X366744Y975350D01*
X366877Y975333D01*
X367094Y975233D01*
X367260Y975083D01*
X367394Y974933D01*
X367477Y974767D01*
X367544Y974617D01*
X367577Y974517D01*
Y974500D01*
Y974483D01*
X366094D01*
X366011Y974200D01*
X365994Y974067D01*
X365977Y973950D01*
X365961Y973867D01*
Y973784D01*
Y973734D01*
Y973717D01*
X365977Y973500D01*
X366011Y973317D01*
X366027Y973234D01*
X366044Y973167D01*
X366061Y973134D01*
Y973117D01*
X370460D01*
X370476Y973251D01*
Y973350D01*
X370493Y973450D01*
Y973650D01*
X370476Y973967D01*
X370443Y974250D01*
X370393Y974533D01*
X370309Y974800D01*
X370226Y975050D01*
X370126Y975283D01*
X370026Y975500D01*
X369926Y975700D01*
X369810Y975883D01*
X369710Y976033D01*
X369610Y976166D01*
X369526Y976283D01*
X369443Y976366D01*
X369393Y976433D01*
X369360Y976466D01*
X369343Y976483D01*
X369127Y976683D01*
X368893Y976866D01*
X368660Y977016D01*
X368410Y977150D01*
X368177Y977266D01*
X367943Y977349D01*
X367710Y977433D01*
X367494Y977483D01*
X367294Y977533D01*
X367110Y977566D01*
X366944Y977599D01*
X366794Y977616D01*
X366677Y977633D01*
D02*
G37*
G36*
X352397D02*
X352231D01*
X351914Y977616D01*
X351614Y977583D01*
X351331Y977516D01*
X351048Y977449D01*
X350798Y977366D01*
X350565Y977266D01*
X350331Y977150D01*
X350131Y977049D01*
X349965Y976933D01*
X349798Y976816D01*
X349665Y976716D01*
X349548Y976633D01*
X349448Y976566D01*
X349382Y976500D01*
X349348Y976466D01*
X349332Y976450D01*
X349132Y976233D01*
X348948Y976000D01*
X348782Y975750D01*
X348648Y975517D01*
X348532Y975267D01*
X348432Y975033D01*
X348365Y974800D01*
X348298Y974583D01*
X348248Y974367D01*
X348215Y974184D01*
X348182Y974017D01*
X348165Y973867D01*
X348149Y973750D01*
Y973584D01*
X348165Y973267D01*
X348199Y972967D01*
X348248Y972684D01*
X348332Y972417D01*
X348415Y972151D01*
X348515Y971917D01*
X348632Y971701D01*
X348732Y971501D01*
X348848Y971334D01*
X348948Y971168D01*
X349048Y971034D01*
X349132Y970918D01*
X349215Y970834D01*
X349265Y970768D01*
X349298Y970734D01*
X349315Y970718D01*
X349548Y970518D01*
X349781Y970334D01*
X350015Y970185D01*
X350265Y970051D01*
X350498Y969935D01*
X350748Y969851D01*
X350981Y969768D01*
X351198Y969718D01*
X351414Y969668D01*
X351598Y969635D01*
X351781Y969601D01*
X351931Y969585D01*
X352048Y969568D01*
X352214D01*
X352481Y969585D01*
X352731Y969601D01*
X353214Y969701D01*
X353647Y969851D01*
X354030Y970018D01*
X354197Y970101D01*
X354347Y970185D01*
X354464Y970268D01*
X354580Y970334D01*
X354664Y970385D01*
X354730Y970434D01*
X354763Y970451D01*
X354780Y970468D01*
X353131Y972451D01*
X352981Y972317D01*
X352831Y972217D01*
X352681Y972134D01*
X352547Y972084D01*
X352448Y972051D01*
X352347Y972034D01*
X352281D01*
X352098Y972051D01*
X351914Y972101D01*
X351781Y972184D01*
X351648Y972267D01*
X351548Y972334D01*
X351481Y972417D01*
X351431Y972467D01*
X351414Y972484D01*
X351314Y972667D01*
X351231Y972867D01*
X351181Y973084D01*
X351131Y973284D01*
X351115Y973450D01*
X351098Y973584D01*
Y973684D01*
Y973717D01*
X351115Y973967D01*
X351148Y974200D01*
X351198Y974400D01*
X351264Y974583D01*
X351331Y974717D01*
X351381Y974817D01*
X351414Y974883D01*
X351431Y974900D01*
X351564Y975050D01*
X351714Y975167D01*
X351864Y975250D01*
X351998Y975317D01*
X352131Y975350D01*
X352231Y975367D01*
X352314D01*
X352464Y975350D01*
X352597Y975333D01*
X352814Y975233D01*
X352981Y975083D01*
X353114Y974933D01*
X353197Y974767D01*
X353264Y974617D01*
X353297Y974517D01*
Y974500D01*
Y974483D01*
X351814D01*
X351731Y974200D01*
X351714Y974067D01*
X351698Y973950D01*
X351681Y973867D01*
Y973784D01*
Y973734D01*
Y973717D01*
X351698Y973500D01*
X351731Y973317D01*
X351748Y973234D01*
X351764Y973167D01*
X351781Y973134D01*
Y973117D01*
X356180D01*
X356197Y973251D01*
Y973350D01*
X356213Y973450D01*
Y973650D01*
X356197Y973967D01*
X356163Y974250D01*
X356113Y974533D01*
X356030Y974800D01*
X355947Y975050D01*
X355847Y975283D01*
X355747Y975500D01*
X355647Y975700D01*
X355530Y975883D01*
X355430Y976033D01*
X355330Y976166D01*
X355247Y976283D01*
X355163Y976366D01*
X355113Y976433D01*
X355080Y976466D01*
X355064Y976483D01*
X354847Y976683D01*
X354614Y976866D01*
X354380Y977016D01*
X354130Y977150D01*
X353897Y977266D01*
X353664Y977349D01*
X353430Y977433D01*
X353214Y977483D01*
X353014Y977533D01*
X352831Y977566D01*
X352664Y977599D01*
X352514Y977616D01*
X352397Y977633D01*
D02*
G37*
G36*
X389205Y977616D02*
X389038D01*
X388772Y977599D01*
X388521Y977566D01*
X388272Y977516D01*
X388038Y977449D01*
X387622Y977283D01*
X387439Y977183D01*
X387272Y977100D01*
X387122Y977000D01*
X386989Y976899D01*
X386872Y976816D01*
X386772Y976733D01*
X386689Y976666D01*
X386639Y976616D01*
X386605Y976583D01*
X386589Y976566D01*
X386405Y976366D01*
X386255Y976166D01*
X386122Y975950D01*
X386006Y975733D01*
X385922Y975517D01*
X385839Y975300D01*
X385722Y974900D01*
X385672Y974717D01*
X385639Y974550D01*
X385622Y974400D01*
X385606Y974267D01*
X385589Y974167D01*
Y969718D01*
X388505D01*
Y974084D01*
X388521Y974300D01*
X388588Y974467D01*
X388671Y974583D01*
X388772Y974667D01*
X388855Y974717D01*
X388938Y974733D01*
X389005Y974750D01*
X389021D01*
X389205Y974717D01*
X389338Y974650D01*
X389438Y974533D01*
X389505Y974417D01*
X389538Y974300D01*
X389571Y974184D01*
Y974117D01*
Y974084D01*
Y969718D01*
X392487D01*
Y973784D01*
X392471Y974084D01*
X392454Y974383D01*
X392421Y974650D01*
X392371Y974900D01*
X392304Y975133D01*
X392237Y975350D01*
X392171Y975550D01*
X392087Y975716D01*
X392021Y975883D01*
X391937Y976016D01*
X391871Y976133D01*
X391821Y976233D01*
X391754Y976300D01*
X391721Y976350D01*
X391704Y976383D01*
X391687Y976400D01*
X391488Y976616D01*
X391287Y976799D01*
X391071Y976966D01*
X390854Y977100D01*
X390638Y977216D01*
X390404Y977316D01*
X390188Y977399D01*
X389988Y977466D01*
X389788Y977516D01*
X389621Y977549D01*
X389455Y977583D01*
X389305Y977599D01*
X389205Y977616D01*
D02*
G37*
G36*
X343500Y980315D02*
X339284D01*
Y969718D01*
X342433D01*
Y977466D01*
X343183D01*
X343366Y977433D01*
X343516Y977399D01*
X343666Y977349D01*
X343766Y977283D01*
X343866Y977216D01*
X343950Y977150D01*
X344000Y977083D01*
X344083Y976949D01*
X344133Y976816D01*
X344150Y976733D01*
Y976716D01*
Y976700D01*
X344133Y976550D01*
X344100Y976416D01*
X344050Y976300D01*
X344000Y976216D01*
X343833Y976050D01*
X343650Y975950D01*
X343450Y975900D01*
X343300Y975866D01*
X343233Y975850D01*
X342900D01*
Y973117D01*
X344416Y969718D01*
X347732D01*
X345916Y974067D01*
X346166Y974284D01*
X346382Y974500D01*
X346566Y974733D01*
X346732Y974967D01*
X346866Y975200D01*
X346982Y975417D01*
X347082Y975633D01*
X347149Y975850D01*
X347215Y976033D01*
X347265Y976216D01*
X347282Y976383D01*
X347315Y976516D01*
Y976633D01*
X347332Y976716D01*
Y976766D01*
Y976783D01*
X347315Y977066D01*
X347282Y977349D01*
X347232Y977616D01*
X347149Y977849D01*
X347066Y978083D01*
X346965Y978299D01*
X346866Y978499D01*
X346766Y978682D01*
X346649Y978832D01*
X346549Y978982D01*
X346449Y979099D01*
X346366Y979199D01*
X346282Y979282D01*
X346232Y979332D01*
X346199Y979366D01*
X346182Y979382D01*
X345982Y979549D01*
X345766Y979699D01*
X345549Y979815D01*
X345299Y979915D01*
X344833Y980082D01*
X344366Y980199D01*
X344150Y980232D01*
X343950Y980265D01*
X343783Y980282D01*
X343616Y980299D01*
X343500Y980315D01*
D02*
G37*
%LPD*%
D10*
X215850Y870000D02*
G03*
X215850Y870000I-15850J0D01*
G01*
X270850D02*
G03*
X270850Y870000I-15850J0D01*
G01*
X340850Y750000D02*
G03*
X340850Y750000I-15850J0D01*
G01*
Y600000D02*
G03*
X340850Y600000I-15850J0D01*
G01*
X243000Y810500D02*
G03*
X243000Y810500I-1000J0D01*
G01*
Y660500D02*
G03*
X243000Y660500I-1000J0D01*
G01*
X270850Y565000D02*
G03*
X270850Y565000I-15850J0D01*
G01*
X215850D02*
G03*
X215850Y565000I-15850J0D01*
G01*
X340850Y450000D02*
G03*
X340850Y450000I-15850J0D01*
G01*
X243000Y361000D02*
G03*
X243000Y361000I-1000J0D01*
G01*
Y510500D02*
G03*
X243000Y510500I-1000J0D01*
G01*
X205850Y265000D02*
G03*
X205850Y265000I-15850J0D01*
G01*
X260850D02*
G03*
X260850Y265000I-15850J0D01*
G01*
X340850Y300000D02*
G03*
X340850Y300000I-15850J0D01*
G01*
X310850Y125000D02*
G03*
X310850Y125000I-15850J0D01*
G01*
X255850D02*
G03*
X255850Y125000I-15850J0D01*
G01*
X200850D02*
G03*
X200850Y125000I-15850J0D01*
G01*
X235000Y69000D02*
G03*
X235000Y69000I-1000J0D01*
G01*
X188850Y400000D02*
G03*
X188850Y400000I-15850J0D01*
G01*
X243850D02*
G03*
X243850Y400000I-15850J0D01*
G01*
X215850Y715000D02*
G03*
X215850Y715000I-15850J0D01*
G01*
X270850D02*
G03*
X270850Y715000I-15850J0D01*
G01*
X25000Y875000D02*
X150000D01*
Y900000D01*
X275000D01*
X300000Y875000D01*
X475000D01*
X25000Y725000D02*
X150000D01*
Y750000D01*
X275000D01*
X300000Y725000D01*
X475000D01*
X300000Y575000D02*
X475000D01*
X275000Y600000D02*
X300000Y575000D01*
X150000Y600000D02*
X275000D01*
X150000Y575000D02*
Y600000D01*
X25000Y575000D02*
X150000D01*
X25000Y425000D02*
X475000D01*
X275000Y275000D02*
Y300000D01*
X250000D02*
X275000D01*
Y275000D02*
X475000D01*
X150000Y300000D02*
X250000D01*
X150000Y275000D02*
Y300000D01*
X25000Y275000D02*
X150000D01*
X325000Y125000D02*
X475000D01*
X325000D02*
Y150000D01*
X150000D02*
X325000D01*
X150000Y125000D02*
Y150000D01*
X25000Y125000D02*
X150000D01*
X2871Y910926D02*
X49871D01*
X2900Y989250D02*
X49900D01*
X450129Y989074D02*
X497129D01*
X450100Y910750D02*
X497100D01*
X247000Y786500D02*
X253000D01*
X247000Y808500D02*
X253000D01*
X247000Y636500D02*
X253000D01*
X247000Y658500D02*
X253000D01*
X247000Y337000D02*
X253000D01*
X247000Y359000D02*
X253000D01*
X247000Y486500D02*
X253000D01*
X247000Y508500D02*
X253000D01*
X273840Y344660D02*
Y353910D01*
Y344660D02*
X288840D01*
Y353910D01*
Y360910D02*
Y370160D01*
X273840D02*
X288840D01*
X273840Y360910D02*
Y370160D01*
X227000Y205225D02*
Y229000D01*
X236500D01*
X263500D02*
X273000D01*
Y205225D02*
Y229000D01*
X282500Y194750D02*
Y204000D01*
Y194750D02*
X297500D01*
Y204000D01*
Y211000D02*
Y220250D01*
X282500D02*
X297500D01*
X282500Y211000D02*
Y220250D01*
X300500Y44000D02*
Y53250D01*
Y44000D02*
X315500D01*
Y53250D01*
Y60250D02*
Y69500D01*
X300500D02*
X315500D01*
X300500Y60250D02*
Y69500D01*
X261500Y37500D02*
Y68500D01*
X238500Y37500D02*
X261500D01*
X240000Y68500D02*
X261500D01*
X238500Y67000D02*
X240000Y68500D01*
X238500Y37500D02*
Y67000D01*
X450100Y10750D02*
X497100D01*
X450129Y89074D02*
X497129D01*
X450100Y160750D02*
X497100D01*
X450129Y239074D02*
X497129D01*
X2900Y389250D02*
X49900D01*
X2871Y310926D02*
X49871D01*
X450100Y310750D02*
X497100D01*
X450129Y389075D02*
X497129D01*
X2900Y539250D02*
X49900D01*
X2871Y460925D02*
X49871D01*
X450100Y460750D02*
X497100D01*
X450129Y539074D02*
X497129D01*
X2900Y689250D02*
X49900D01*
X2871Y610925D02*
X49871D01*
X450100Y610750D02*
X497100D01*
X450129Y689074D02*
X497129D01*
X2900Y839250D02*
X49900D01*
X2871Y760926D02*
X49871D01*
X450100Y760750D02*
X497100D01*
X450129Y839074D02*
X497129D01*
X2900Y89250D02*
X49900D01*
X2871Y10926D02*
X49871D01*
X2900Y239250D02*
X49900D01*
X2871Y160926D02*
X49871D01*
D11*
X235250Y212000D02*
G03*
X235250Y212000I-1250J0D01*
G01*
D12*
X130000Y990000D02*
X140000Y980000D01*
X130000Y970000D02*
X140000Y980000D01*
X110000D02*
X140000D01*
D13*
X215500Y937350D02*
X217000D01*
X215500D02*
Y954850D01*
X217000D01*
X223000D02*
X224500D01*
Y937350D02*
Y954850D01*
X223000Y937350D02*
X224500D01*
X275500D02*
X277000D01*
X275500D02*
Y954850D01*
X277000D01*
X283000D02*
X284500D01*
Y937350D02*
Y954850D01*
X283000Y937350D02*
X284500D01*
X258750Y945500D02*
Y947000D01*
X241250Y945500D02*
X258750D01*
X241250D02*
Y947000D01*
Y953000D02*
Y954500D01*
X258750D01*
Y953000D02*
Y954500D01*
X292000Y836000D02*
Y838000D01*
X272000Y836000D02*
X292000D01*
X272000D02*
Y838000D01*
Y844000D02*
Y846000D01*
X292000D01*
Y844000D02*
Y846000D01*
Y825000D02*
Y827000D01*
X272000Y825000D02*
X292000D01*
X272000D02*
Y827000D01*
Y833000D02*
Y835000D01*
X292000D01*
Y833000D02*
Y835000D01*
Y814000D02*
Y816000D01*
X272000Y814000D02*
X292000D01*
X272000D02*
Y816000D01*
Y822000D02*
Y824000D01*
X292000D01*
Y822000D02*
Y824000D01*
X243000Y839000D02*
X245000D01*
Y819000D02*
Y839000D01*
X243000Y819000D02*
X245000D01*
X235000D02*
X237000D01*
X235000D02*
Y839000D01*
X237000D01*
X222920Y827000D02*
X233080D01*
X222920Y815570D02*
X224190D01*
X222920D02*
Y838430D01*
X224190D01*
X231810D02*
X233080D01*
Y815570D02*
Y838430D01*
X231810Y815570D02*
X233080D01*
X265920Y768000D02*
X276080D01*
X265920Y756570D02*
X267190D01*
X265920D02*
Y779430D01*
X267190D01*
X274810D02*
X276080D01*
Y756570D02*
Y779430D01*
X274810Y756570D02*
X276080D01*
X276920Y768000D02*
X287080D01*
X276920Y756570D02*
X278190D01*
X276920D02*
Y779430D01*
X278190D01*
X285810D02*
X287080D01*
Y756570D02*
Y779430D01*
X285810Y756570D02*
X287080D01*
X295000Y687000D02*
Y689000D01*
X275000Y687000D02*
X295000D01*
X275000D02*
Y689000D01*
Y695000D02*
Y697000D01*
X295000D01*
Y695000D02*
Y697000D01*
Y676000D02*
Y678000D01*
X275000Y676000D02*
X295000D01*
X275000D02*
Y678000D01*
Y684000D02*
Y686000D01*
X295000D01*
Y684000D02*
Y686000D01*
Y665000D02*
Y667000D01*
X275000Y665000D02*
X295000D01*
X275000D02*
Y667000D01*
Y673000D02*
Y675000D01*
X295000D01*
Y673000D02*
Y675000D01*
X234000Y665000D02*
X236000D01*
X234000D02*
Y685000D01*
X236000D01*
X242000D02*
X244000D01*
Y665000D02*
Y685000D01*
X242000Y665000D02*
X244000D01*
X222920Y673000D02*
X233080D01*
X222920Y661570D02*
X224190D01*
X222920D02*
Y684430D01*
X224190D01*
X231810D02*
X233080D01*
Y661570D02*
Y684430D01*
X231810Y661570D02*
X233080D01*
X268920Y620000D02*
X279080D01*
X268920Y608570D02*
X270190D01*
X268920D02*
Y631430D01*
X270190D01*
X277810D02*
X279080D01*
Y608570D02*
Y631430D01*
X277810Y608570D02*
X279080D01*
X280920Y620000D02*
X291080D01*
X280920Y608570D02*
X282190D01*
X280920D02*
Y631430D01*
X282190D01*
X289810D02*
X291080D01*
Y608570D02*
Y631430D01*
X289810Y608570D02*
X291080D01*
X121250Y795500D02*
Y797000D01*
Y795500D02*
X138750D01*
Y797000D01*
Y803000D02*
Y804500D01*
X121250D02*
X138750D01*
X121250Y803000D02*
Y804500D01*
X361250Y795500D02*
Y797000D01*
Y795500D02*
X378750D01*
Y797000D01*
Y803000D02*
Y804500D01*
X361250D02*
X378750D01*
X361250Y803000D02*
Y804500D01*
X402000Y787350D02*
X403500D01*
Y804850D01*
X402000D02*
X403500D01*
X394500D02*
X396000D01*
X394500Y787350D02*
Y804850D01*
Y787350D02*
X396000D01*
X271700Y806512D02*
Y812100D01*
X282300Y806100D02*
Y812100D01*
X271700D02*
X282300D01*
Y796100D02*
Y801688D01*
X271700Y796100D02*
Y802100D01*
Y796100D02*
X282300D01*
X223000Y787350D02*
X224500D01*
Y804850D01*
X223000D02*
X224500D01*
X215500D02*
X217000D01*
X215500Y787350D02*
Y804850D01*
Y787350D02*
X217000D01*
X274700Y656512D02*
Y662100D01*
X285300Y656100D02*
Y662100D01*
X274700D02*
X285300D01*
Y646100D02*
Y651688D01*
X274700Y646100D02*
Y652100D01*
Y646100D02*
X285300D01*
X264920Y472000D02*
X275080D01*
X264920Y460570D02*
X266190D01*
X264920D02*
Y483430D01*
X266190D01*
X273810D02*
X275080D01*
Y460570D02*
Y483430D01*
X273810Y460570D02*
X275080D01*
X276920Y472000D02*
X287080D01*
X276920Y460570D02*
X278190D01*
X276920D02*
Y483430D01*
X278190D01*
X285810D02*
X287080D01*
Y460570D02*
Y483430D01*
X285810Y460570D02*
X287080D01*
X295000Y542000D02*
Y544000D01*
X275000Y542000D02*
X295000D01*
X275000D02*
Y544000D01*
Y550000D02*
Y552000D01*
X295000D01*
Y550000D02*
Y552000D01*
Y531000D02*
Y533000D01*
X275000Y531000D02*
X295000D01*
X275000D02*
Y533000D01*
Y539000D02*
Y541000D01*
X295000D01*
Y539000D02*
Y541000D01*
Y520000D02*
Y522000D01*
X275000Y520000D02*
X295000D01*
X275000D02*
Y522000D01*
Y528000D02*
Y530000D01*
X295000D01*
Y528000D02*
Y530000D01*
X224920Y527000D02*
X235080D01*
X224920Y515570D02*
X226190D01*
X224920D02*
Y538430D01*
X226190D01*
X233810D02*
X235080D01*
Y515570D02*
Y538430D01*
X233810Y515570D02*
X235080D01*
X245000Y539000D02*
X247000D01*
Y519000D02*
Y539000D01*
X245000Y519000D02*
X247000D01*
X237000D02*
X239000D01*
X237000D02*
Y539000D01*
X239000D01*
X272990Y517909D02*
X287010D01*
X272990Y509324D02*
X272990Y517910D01*
X287010Y509323D02*
X287010Y517909D01*
X272990Y494891D02*
X287010D01*
X287010Y494890D02*
X287010Y503476D01*
X272990Y494891D02*
X272990Y503477D01*
X317340Y392410D02*
Y394410D01*
X297340Y392410D02*
X317340D01*
X297340D02*
Y394410D01*
Y400410D02*
Y402410D01*
X317340D01*
Y400410D02*
Y402410D01*
Y381410D02*
Y383410D01*
X297340Y381410D02*
X317340D01*
X297340D02*
Y383410D01*
Y389410D02*
Y391410D01*
X317340D01*
Y389410D02*
Y391410D01*
Y370410D02*
Y372410D01*
X297340Y370410D02*
X317340D01*
X297340D02*
Y372410D01*
Y378410D02*
Y380410D01*
X317340D01*
Y378410D02*
Y380410D01*
X277360Y322410D02*
X287520D01*
X277360Y310980D02*
X278630D01*
X277360D02*
Y333840D01*
X278630D01*
X286250D02*
X287520D01*
Y310980D02*
Y333840D01*
X286250Y310980D02*
X287520D01*
X265360Y322410D02*
X275520D01*
X265360Y310980D02*
X266630D01*
X265360D02*
Y333840D01*
X266630D01*
X274250D02*
X275520D01*
Y310980D02*
Y333840D01*
X274250Y310980D02*
X275520D01*
X305000Y257500D02*
Y259500D01*
X285000Y257500D02*
X305000D01*
X285000D02*
Y259500D01*
Y265500D02*
Y267500D01*
X305000D01*
Y265500D02*
Y267500D01*
Y246500D02*
Y248500D01*
X285000Y246500D02*
X305000D01*
X285000D02*
Y248500D01*
Y254500D02*
Y256500D01*
X305000D01*
Y254500D02*
Y256500D01*
Y235500D02*
Y237500D01*
X285000Y235500D02*
X305000D01*
X285000D02*
Y237500D01*
Y243500D02*
Y245500D01*
X305000D01*
Y243500D02*
Y245500D01*
Y224500D02*
Y226500D01*
X285000Y224500D02*
X305000D01*
X285000D02*
Y226500D01*
Y232500D02*
Y234500D01*
X305000D01*
Y232500D02*
Y234500D01*
X338000Y103750D02*
Y105750D01*
X318000Y103750D02*
X338000D01*
X318000D02*
Y105750D01*
Y111750D02*
Y113750D01*
X338000D01*
Y111750D02*
Y113750D01*
Y92750D02*
Y94750D01*
X318000Y92750D02*
X338000D01*
X318000D02*
Y94750D01*
Y100750D02*
Y102750D01*
X338000D01*
Y100750D02*
Y102750D01*
Y81750D02*
Y83750D01*
X318000Y81750D02*
X338000D01*
X318000D02*
Y83750D01*
Y89750D02*
Y91750D01*
X338000D01*
Y89750D02*
Y91750D01*
Y70750D02*
Y72750D01*
X318000Y70750D02*
X338000D01*
X318000D02*
Y72750D01*
Y78750D02*
Y80750D01*
X338000D01*
Y78750D02*
Y80750D01*
X138750Y53000D02*
Y54500D01*
X121250D02*
X138750D01*
X121250Y53000D02*
Y54500D01*
Y45500D02*
Y47000D01*
Y45500D02*
X138750D01*
Y47000D01*
X218000Y90750D02*
X220000D01*
Y70750D02*
Y90750D01*
X218000Y70750D02*
X220000D01*
X210000D02*
X212000D01*
X210000D02*
Y90750D01*
X212000D01*
X274000Y91000D02*
X276000D01*
Y71000D02*
Y91000D01*
X274000Y71000D02*
X276000D01*
X266000D02*
X268000D01*
X266000D02*
Y91000D01*
X268000D01*
X207000Y90750D02*
X209000D01*
Y70750D02*
Y90750D01*
X207000Y70750D02*
X209000D01*
X199000D02*
X201000D01*
X199000D02*
Y90750D01*
X201000D01*
X140000Y195000D02*
Y197000D01*
X120000Y195000D02*
X140000D01*
X120000D02*
Y197000D01*
Y203000D02*
Y205000D01*
X140000D01*
Y203000D02*
Y205000D01*
X380000Y195000D02*
Y197000D01*
X360000Y195000D02*
X380000D01*
X360000D02*
Y197000D01*
Y203000D02*
Y205000D01*
X380000D01*
Y203000D02*
Y205000D01*
X121250Y345500D02*
Y347000D01*
Y345500D02*
X138750D01*
Y347000D01*
Y353000D02*
Y354500D01*
X121250D02*
X138750D01*
X121250Y353000D02*
Y354500D01*
X361250Y345500D02*
Y347000D01*
Y345500D02*
X378750D01*
Y347000D01*
Y353000D02*
Y354500D01*
X361250D02*
X378750D01*
X361250Y353000D02*
Y354500D01*
X160150Y495500D02*
Y497000D01*
Y495500D02*
X177650D01*
Y497000D01*
Y503000D02*
Y504500D01*
X160150D02*
X177650D01*
X160150Y503000D02*
Y504500D01*
X335150Y495500D02*
Y497000D01*
Y495500D02*
X352650D01*
Y497000D01*
Y503000D02*
Y504500D01*
X335150D02*
X352650D01*
X335150Y503000D02*
Y504500D01*
X120000Y653000D02*
Y655000D01*
X140000D01*
Y653000D02*
Y655000D01*
Y645000D02*
Y647000D01*
X120000Y645000D02*
X140000D01*
X120000D02*
Y647000D01*
X360000Y653000D02*
Y655000D01*
X380000D01*
Y653000D02*
Y655000D01*
Y645000D02*
Y647000D01*
X360000Y645000D02*
X380000D01*
X360000D02*
Y647000D01*
X361250Y45500D02*
Y47000D01*
Y45500D02*
X378750D01*
Y47000D01*
Y53000D02*
Y54500D01*
X361250D02*
X378750D01*
X361250Y53000D02*
Y54500D01*
X293000Y37000D02*
X294500D01*
Y54500D01*
X293000D02*
X294500D01*
X285500D02*
X287000D01*
X285500Y37000D02*
Y54500D01*
Y37000D02*
X287000D01*
M02*
