G04*
G04 #@! TF.GenerationSoftware,Altium Limited,Altium Designer,20.2.6 (244)*
G04*
G04 Layer_Physical_Order=4*
G04 Layer_Color=16711680*
%FSLAX44Y44*%
%MOMM*%
G71*
G04*
G04 #@! TF.SameCoordinates,69107643-4F9F-4E88-AEF3-5FE55586F8EB*
G04*
G04*
G04 #@! TF.FilePolarity,Positive*
G04*
G01*
G75*
%ADD16R,5.0000X1.6000*%
%ADD65C,2.1000*%
%ADD66C,0.5000*%
G36*
X497451Y2549D02*
X2549D01*
Y997451D01*
X497451D01*
Y2549D01*
D02*
G37*
%LPC*%
G36*
X255000Y882104D02*
X251867Y881691D01*
X248948Y880482D01*
X246441Y878559D01*
X244518Y876052D01*
X243309Y873133D01*
X242896Y870000D01*
X243309Y866867D01*
X244518Y863948D01*
X246441Y861441D01*
X248948Y859518D01*
X251867Y858309D01*
X255000Y857896D01*
X258133Y858309D01*
X261052Y859518D01*
X263559Y861441D01*
X265482Y863948D01*
X266691Y866867D01*
X267104Y870000D01*
X266691Y873133D01*
X265482Y876052D01*
X263559Y878559D01*
X261052Y880482D01*
X258133Y881691D01*
X255000Y882104D01*
D02*
G37*
G36*
X325000Y762104D02*
X321867Y761691D01*
X318948Y760482D01*
X316441Y758559D01*
X314518Y756052D01*
X313309Y753133D01*
X312896Y750000D01*
X313309Y746867D01*
X314518Y743948D01*
X316441Y741441D01*
X318948Y739518D01*
X321867Y738309D01*
X325000Y737896D01*
X328133Y738309D01*
X331052Y739518D01*
X333559Y741441D01*
X335482Y743948D01*
X336691Y746867D01*
X337104Y750000D01*
X336691Y753133D01*
X335482Y756052D01*
X333559Y758559D01*
X331052Y760482D01*
X328133Y761691D01*
X325000Y762104D01*
D02*
G37*
G36*
X255000Y727104D02*
X251867Y726691D01*
X248948Y725482D01*
X246441Y723559D01*
X244518Y721052D01*
X243309Y718133D01*
X242896Y715000D01*
X243309Y711867D01*
X244518Y708948D01*
X246441Y706441D01*
X248948Y704518D01*
X251867Y703309D01*
X255000Y702896D01*
X258133Y703309D01*
X261052Y704518D01*
X263559Y706441D01*
X265482Y708948D01*
X266691Y711867D01*
X267104Y715000D01*
X266691Y718133D01*
X265482Y721052D01*
X263559Y723559D01*
X261052Y725482D01*
X258133Y726691D01*
X255000Y727104D01*
D02*
G37*
G36*
X325000Y612104D02*
X321867Y611691D01*
X318948Y610482D01*
X316441Y608559D01*
X314518Y606052D01*
X313309Y603133D01*
X312896Y600000D01*
X313309Y596867D01*
X314518Y593948D01*
X316441Y591441D01*
X318948Y589518D01*
X321867Y588309D01*
X325000Y587896D01*
X328133Y588309D01*
X331052Y589518D01*
X333559Y591441D01*
X335482Y593948D01*
X336691Y596867D01*
X337104Y600000D01*
X336691Y603133D01*
X335482Y606052D01*
X333559Y608559D01*
X331052Y610482D01*
X328133Y611691D01*
X325000Y612104D01*
D02*
G37*
G36*
X255000Y577104D02*
X251867Y576691D01*
X248948Y575482D01*
X246441Y573559D01*
X244518Y571052D01*
X243309Y568133D01*
X242896Y565000D01*
X243309Y561867D01*
X244518Y558948D01*
X246441Y556441D01*
X248948Y554518D01*
X251867Y553309D01*
X255000Y552896D01*
X258133Y553309D01*
X261052Y554518D01*
X263559Y556441D01*
X265482Y558948D01*
X266691Y561867D01*
X267104Y565000D01*
X266691Y568133D01*
X265482Y571052D01*
X263559Y573559D01*
X261052Y575482D01*
X258133Y576691D01*
X255000Y577104D01*
D02*
G37*
G36*
X325000Y462104D02*
X321867Y461691D01*
X318948Y460482D01*
X316441Y458559D01*
X314518Y456052D01*
X313309Y453133D01*
X312896Y450000D01*
X313309Y446867D01*
X314518Y443948D01*
X316441Y441441D01*
X318948Y439518D01*
X321867Y438309D01*
X325000Y437896D01*
X328133Y438309D01*
X331052Y439518D01*
X333559Y441441D01*
X335482Y443948D01*
X336691Y446867D01*
X337104Y450000D01*
X336691Y453133D01*
X335482Y456052D01*
X333559Y458559D01*
X331052Y460482D01*
X328133Y461691D01*
X325000Y462104D01*
D02*
G37*
G36*
X228000Y412104D02*
X224867Y411691D01*
X221948Y410482D01*
X219442Y408559D01*
X217518Y406052D01*
X216309Y403133D01*
X215896Y400000D01*
X216309Y396867D01*
X217518Y393948D01*
X219442Y391441D01*
X221948Y389518D01*
X224867Y388309D01*
X228000Y387896D01*
X231133Y388309D01*
X234052Y389518D01*
X236558Y391441D01*
X238482Y393948D01*
X239691Y396867D01*
X240104Y400000D01*
X239691Y403133D01*
X238482Y406052D01*
X236558Y408559D01*
X234052Y410482D01*
X231133Y411691D01*
X228000Y412104D01*
D02*
G37*
G36*
X325000Y312104D02*
X321867Y311691D01*
X318948Y310482D01*
X316441Y308559D01*
X314518Y306052D01*
X313309Y303133D01*
X312896Y300000D01*
X313309Y296867D01*
X314518Y293948D01*
X316441Y291441D01*
X318948Y289518D01*
X321867Y288309D01*
X325000Y287896D01*
X328133Y288309D01*
X331052Y289518D01*
X333559Y291441D01*
X335482Y293948D01*
X336691Y296867D01*
X337104Y300000D01*
X336691Y303133D01*
X335482Y306052D01*
X333559Y308559D01*
X331052Y310482D01*
X328133Y311691D01*
X325000Y312104D01*
D02*
G37*
G36*
X245000Y277104D02*
X241867Y276691D01*
X238948Y275482D01*
X236441Y273559D01*
X234518Y271052D01*
X233309Y268133D01*
X232896Y265000D01*
X233309Y261867D01*
X234518Y258948D01*
X236441Y256441D01*
X238948Y254518D01*
X241867Y253309D01*
X245000Y252896D01*
X248133Y253309D01*
X251052Y254518D01*
X253559Y256441D01*
X255482Y258948D01*
X256691Y261867D01*
X257104Y265000D01*
X256691Y268133D01*
X255482Y271052D01*
X253559Y273559D01*
X251052Y275482D01*
X248133Y276691D01*
X245000Y277104D01*
D02*
G37*
G36*
X295000Y137104D02*
X291867Y136691D01*
X288948Y135482D01*
X286441Y133559D01*
X284518Y131052D01*
X283309Y128133D01*
X282896Y125000D01*
X283309Y121867D01*
X284518Y118948D01*
X286441Y116441D01*
X288948Y114518D01*
X291867Y113309D01*
X295000Y112896D01*
X298133Y113309D01*
X301052Y114518D01*
X303559Y116441D01*
X305482Y118948D01*
X306691Y121867D01*
X307104Y125000D01*
X306691Y128133D01*
X305482Y131052D01*
X303559Y133559D01*
X301052Y135482D01*
X298133Y136691D01*
X295000Y137104D01*
D02*
G37*
G36*
X185000D02*
X181867Y136691D01*
X178948Y135482D01*
X176441Y133559D01*
X174518Y131052D01*
X173309Y128133D01*
X172896Y125000D01*
X173309Y121867D01*
X174518Y118948D01*
X176441Y116441D01*
X178948Y114518D01*
X181867Y113309D01*
X185000Y112896D01*
X188133Y113309D01*
X191052Y114518D01*
X193559Y116441D01*
X195482Y118948D01*
X196691Y121867D01*
X197104Y125000D01*
X196691Y128133D01*
X195482Y131052D01*
X193559Y133559D01*
X191052Y135482D01*
X188133Y136691D01*
X185000Y137104D01*
D02*
G37*
%LPD*%
D16*
X28000Y977700D02*
D03*
Y922300D02*
D03*
X472000D02*
D03*
Y977700D02*
D03*
Y77700D02*
D03*
Y22300D02*
D03*
Y227700D02*
D03*
Y172300D02*
D03*
X28000Y322300D02*
D03*
Y377700D02*
D03*
X472000D02*
D03*
Y322300D02*
D03*
X28000Y472300D02*
D03*
Y527700D02*
D03*
X472000D02*
D03*
Y472300D02*
D03*
X28000Y622300D02*
D03*
Y677700D02*
D03*
X472000D02*
D03*
Y622300D02*
D03*
X28000Y772300D02*
D03*
Y827700D02*
D03*
X472000D02*
D03*
Y772300D02*
D03*
X28000Y22300D02*
D03*
Y77700D02*
D03*
Y172300D02*
D03*
Y227700D02*
D03*
D65*
X200000Y870000D02*
D03*
X255000D02*
D03*
X325000Y750000D02*
D03*
Y600000D02*
D03*
X255000Y565000D02*
D03*
X200000D02*
D03*
X325000Y450000D02*
D03*
X190000Y265000D02*
D03*
X245000D02*
D03*
X325000Y300000D02*
D03*
X185000Y125000D02*
D03*
X295000D02*
D03*
X240000D02*
D03*
X173000Y400000D02*
D03*
X228000D02*
D03*
X200000Y715000D02*
D03*
X255000D02*
D03*
D66*
X485000Y890000D02*
D03*
X470000Y860000D02*
D03*
Y740000D02*
D03*
X485000Y710000D02*
D03*
Y590000D02*
D03*
X470000Y560000D02*
D03*
Y440000D02*
D03*
X485000Y410000D02*
D03*
Y290000D02*
D03*
X470000Y260000D02*
D03*
Y140000D02*
D03*
X485000Y110000D02*
D03*
X455000Y890000D02*
D03*
X440000Y860000D02*
D03*
Y740000D02*
D03*
X455000Y710000D02*
D03*
Y590000D02*
D03*
X440000Y560000D02*
D03*
Y440000D02*
D03*
X455000Y410000D02*
D03*
Y290000D02*
D03*
X440000Y260000D02*
D03*
Y140000D02*
D03*
X455000Y110000D02*
D03*
X410000Y980000D02*
D03*
Y920000D02*
D03*
X425000Y890000D02*
D03*
X410000Y860000D02*
D03*
X425000Y830000D02*
D03*
Y770000D02*
D03*
X410000Y740000D02*
D03*
X425000Y710000D02*
D03*
X410000Y680000D02*
D03*
Y620000D02*
D03*
X425000Y590000D02*
D03*
X410000Y560000D02*
D03*
X425000Y530000D02*
D03*
Y470000D02*
D03*
X410000Y440000D02*
D03*
X425000Y410000D02*
D03*
X410000Y380000D02*
D03*
Y320000D02*
D03*
X425000Y290000D02*
D03*
X410000Y260000D02*
D03*
X425000Y230000D02*
D03*
Y170000D02*
D03*
X410000Y140000D02*
D03*
X425000Y110000D02*
D03*
X410000Y80000D02*
D03*
Y20000D02*
D03*
X380000Y980000D02*
D03*
Y920000D02*
D03*
X395000Y890000D02*
D03*
X380000Y860000D02*
D03*
X395000Y830000D02*
D03*
Y770000D02*
D03*
X380000Y740000D02*
D03*
X395000Y710000D02*
D03*
X380000Y680000D02*
D03*
Y620000D02*
D03*
X395000Y590000D02*
D03*
X380000Y560000D02*
D03*
X395000Y530000D02*
D03*
Y470000D02*
D03*
X380000Y440000D02*
D03*
X395000Y410000D02*
D03*
X380000Y380000D02*
D03*
Y320000D02*
D03*
X395000Y290000D02*
D03*
X380000Y260000D02*
D03*
X395000Y230000D02*
D03*
Y170000D02*
D03*
X380000Y140000D02*
D03*
X395000Y110000D02*
D03*
X380000Y80000D02*
D03*
Y20000D02*
D03*
X350000Y980000D02*
D03*
Y920000D02*
D03*
X365000Y890000D02*
D03*
X350000Y860000D02*
D03*
X365000Y830000D02*
D03*
Y770000D02*
D03*
X350000Y740000D02*
D03*
X365000Y710000D02*
D03*
X350000Y680000D02*
D03*
Y620000D02*
D03*
X365000Y590000D02*
D03*
X350000Y560000D02*
D03*
X365000Y530000D02*
D03*
Y470000D02*
D03*
X350000Y440000D02*
D03*
X365000Y410000D02*
D03*
X350000Y380000D02*
D03*
Y320000D02*
D03*
X365000Y290000D02*
D03*
X350000Y260000D02*
D03*
X365000Y230000D02*
D03*
Y170000D02*
D03*
X350000Y140000D02*
D03*
X365000Y110000D02*
D03*
X350000Y80000D02*
D03*
Y20000D02*
D03*
X320000Y980000D02*
D03*
Y920000D02*
D03*
X335000Y890000D02*
D03*
X320000Y860000D02*
D03*
X335000Y830000D02*
D03*
Y770000D02*
D03*
Y710000D02*
D03*
X320000Y680000D02*
D03*
Y620000D02*
D03*
Y560000D02*
D03*
X335000Y530000D02*
D03*
Y470000D02*
D03*
Y410000D02*
D03*
X320000Y320000D02*
D03*
Y260000D02*
D03*
X335000Y230000D02*
D03*
Y170000D02*
D03*
X320000Y140000D02*
D03*
Y20000D02*
D03*
X290000Y980000D02*
D03*
Y920000D02*
D03*
X305000Y890000D02*
D03*
X290000Y860000D02*
D03*
X305000Y830000D02*
D03*
Y770000D02*
D03*
X290000Y740000D02*
D03*
X305000Y710000D02*
D03*
Y590000D02*
D03*
X290000Y560000D02*
D03*
X305000Y530000D02*
D03*
X290000Y440000D02*
D03*
X305000Y410000D02*
D03*
X290000Y380000D02*
D03*
X305000Y290000D02*
D03*
Y170000D02*
D03*
X290000Y140000D02*
D03*
Y20000D02*
D03*
X260000Y980000D02*
D03*
Y920000D02*
D03*
X275000Y890000D02*
D03*
X260000Y740000D02*
D03*
X275000Y710000D02*
D03*
X260000Y680000D02*
D03*
Y620000D02*
D03*
X275000Y590000D02*
D03*
X260000Y440000D02*
D03*
X275000Y410000D02*
D03*
X260000Y380000D02*
D03*
Y320000D02*
D03*
X275000Y290000D02*
D03*
Y230000D02*
D03*
Y170000D02*
D03*
X260000Y140000D02*
D03*
X275000Y110000D02*
D03*
X260000Y80000D02*
D03*
Y20000D02*
D03*
X230000Y980000D02*
D03*
Y920000D02*
D03*
X245000Y890000D02*
D03*
X230000Y860000D02*
D03*
X245000Y770000D02*
D03*
X230000Y740000D02*
D03*
Y620000D02*
D03*
X245000Y590000D02*
D03*
X230000Y560000D02*
D03*
X245000Y470000D02*
D03*
X230000Y440000D02*
D03*
X245000Y410000D02*
D03*
X230000Y380000D02*
D03*
Y320000D02*
D03*
X245000Y290000D02*
D03*
X230000Y260000D02*
D03*
X245000Y170000D02*
D03*
X230000Y140000D02*
D03*
X245000Y110000D02*
D03*
X230000Y80000D02*
D03*
Y20000D02*
D03*
X200000Y980000D02*
D03*
Y920000D02*
D03*
X215000Y890000D02*
D03*
Y830000D02*
D03*
Y770000D02*
D03*
X200000Y740000D02*
D03*
X215000Y710000D02*
D03*
X200000Y680000D02*
D03*
Y620000D02*
D03*
X215000Y590000D02*
D03*
Y530000D02*
D03*
Y470000D02*
D03*
X200000Y440000D02*
D03*
X215000Y410000D02*
D03*
X200000Y380000D02*
D03*
Y320000D02*
D03*
X215000Y290000D02*
D03*
Y230000D02*
D03*
Y170000D02*
D03*
X200000Y140000D02*
D03*
X215000Y110000D02*
D03*
X200000Y20000D02*
D03*
X170000Y980000D02*
D03*
Y920000D02*
D03*
X185000Y890000D02*
D03*
X170000Y860000D02*
D03*
X185000Y830000D02*
D03*
Y770000D02*
D03*
X170000Y740000D02*
D03*
X185000Y710000D02*
D03*
X170000Y680000D02*
D03*
Y620000D02*
D03*
X185000Y590000D02*
D03*
X170000Y560000D02*
D03*
X185000Y530000D02*
D03*
Y470000D02*
D03*
X170000Y440000D02*
D03*
X185000Y410000D02*
D03*
X170000Y380000D02*
D03*
Y320000D02*
D03*
X185000Y290000D02*
D03*
X170000Y260000D02*
D03*
X185000Y230000D02*
D03*
Y170000D02*
D03*
X170000Y140000D02*
D03*
Y80000D02*
D03*
Y20000D02*
D03*
X140000Y980000D02*
D03*
Y920000D02*
D03*
X155000Y890000D02*
D03*
X140000Y860000D02*
D03*
X155000Y830000D02*
D03*
Y770000D02*
D03*
X140000Y740000D02*
D03*
X155000Y710000D02*
D03*
X140000Y680000D02*
D03*
Y620000D02*
D03*
X155000Y590000D02*
D03*
X140000Y560000D02*
D03*
X155000Y530000D02*
D03*
Y470000D02*
D03*
X140000Y440000D02*
D03*
X155000Y410000D02*
D03*
X140000Y380000D02*
D03*
Y320000D02*
D03*
X155000Y290000D02*
D03*
X140000Y260000D02*
D03*
X155000Y230000D02*
D03*
Y170000D02*
D03*
X140000Y140000D02*
D03*
X155000Y110000D02*
D03*
X140000Y80000D02*
D03*
Y20000D02*
D03*
X110000Y980000D02*
D03*
Y920000D02*
D03*
X125000Y890000D02*
D03*
X110000Y860000D02*
D03*
X125000Y830000D02*
D03*
Y770000D02*
D03*
X110000Y740000D02*
D03*
X125000Y710000D02*
D03*
X110000Y680000D02*
D03*
Y620000D02*
D03*
X125000Y590000D02*
D03*
X110000Y560000D02*
D03*
X125000Y530000D02*
D03*
Y470000D02*
D03*
X110000Y440000D02*
D03*
X125000Y410000D02*
D03*
X110000Y380000D02*
D03*
Y320000D02*
D03*
X125000Y290000D02*
D03*
X110000Y260000D02*
D03*
X125000Y230000D02*
D03*
Y170000D02*
D03*
X110000Y140000D02*
D03*
X125000Y110000D02*
D03*
X110000Y80000D02*
D03*
Y20000D02*
D03*
X80000Y980000D02*
D03*
Y920000D02*
D03*
X95000Y890000D02*
D03*
X80000Y860000D02*
D03*
X95000Y830000D02*
D03*
Y770000D02*
D03*
X80000Y740000D02*
D03*
X95000Y710000D02*
D03*
X80000Y680000D02*
D03*
Y620000D02*
D03*
X95000Y590000D02*
D03*
X80000Y560000D02*
D03*
X95000Y530000D02*
D03*
Y470000D02*
D03*
X80000Y440000D02*
D03*
X95000Y410000D02*
D03*
X80000Y380000D02*
D03*
Y320000D02*
D03*
X95000Y290000D02*
D03*
X80000Y260000D02*
D03*
X95000Y230000D02*
D03*
Y170000D02*
D03*
X80000Y140000D02*
D03*
X95000Y110000D02*
D03*
X80000Y80000D02*
D03*
Y20000D02*
D03*
X65000Y890000D02*
D03*
X50000Y860000D02*
D03*
X65000Y830000D02*
D03*
Y770000D02*
D03*
X50000Y740000D02*
D03*
X65000Y710000D02*
D03*
Y590000D02*
D03*
X50000Y560000D02*
D03*
X65000Y530000D02*
D03*
Y470000D02*
D03*
X50000Y440000D02*
D03*
X65000Y410000D02*
D03*
Y290000D02*
D03*
X50000Y260000D02*
D03*
X65000Y230000D02*
D03*
Y170000D02*
D03*
X50000Y140000D02*
D03*
X65000Y110000D02*
D03*
X35000Y890000D02*
D03*
X20000Y860000D02*
D03*
Y740000D02*
D03*
X35000Y710000D02*
D03*
Y590000D02*
D03*
X20000Y560000D02*
D03*
Y440000D02*
D03*
X35000Y410000D02*
D03*
Y290000D02*
D03*
X20000Y260000D02*
D03*
Y140000D02*
D03*
X35000Y110000D02*
D03*
X442500Y832500D02*
D03*
Y822500D02*
D03*
Y777500D02*
D03*
Y767500D02*
D03*
Y682500D02*
D03*
Y672500D02*
D03*
Y627500D02*
D03*
Y617500D02*
D03*
Y532500D02*
D03*
Y522500D02*
D03*
Y477500D02*
D03*
Y467500D02*
D03*
Y382500D02*
D03*
Y372500D02*
D03*
Y327500D02*
D03*
Y317500D02*
D03*
Y232500D02*
D03*
Y222500D02*
D03*
Y177500D02*
D03*
Y167500D02*
D03*
Y82500D02*
D03*
Y72500D02*
D03*
Y27500D02*
D03*
Y17500D02*
D03*
X57500D02*
D03*
Y27500D02*
D03*
Y72500D02*
D03*
Y82500D02*
D03*
Y167500D02*
D03*
Y177500D02*
D03*
Y222500D02*
D03*
Y232500D02*
D03*
Y317500D02*
D03*
Y327500D02*
D03*
Y372500D02*
D03*
Y382500D02*
D03*
Y467500D02*
D03*
Y477500D02*
D03*
Y522500D02*
D03*
Y532500D02*
D03*
Y617500D02*
D03*
Y627500D02*
D03*
Y672500D02*
D03*
Y682500D02*
D03*
Y822500D02*
D03*
Y832500D02*
D03*
Y767500D02*
D03*
Y777500D02*
D03*
Y917500D02*
D03*
Y927500D02*
D03*
Y972500D02*
D03*
Y982500D02*
D03*
X442500Y917500D02*
D03*
Y927500D02*
D03*
Y972500D02*
D03*
Y982500D02*
D03*
X284000Y935000D02*
D03*
X276000D02*
D03*
X224000D02*
D03*
X216000D02*
D03*
X248000Y824000D02*
D03*
X240000Y817000D02*
D03*
X294000Y841000D02*
D03*
Y830000D02*
D03*
Y819000D02*
D03*
X241000Y783000D02*
D03*
X233000Y785000D02*
D03*
Y792000D02*
D03*
X267000Y808000D02*
D03*
Y793000D02*
D03*
X271000Y754000D02*
D03*
X220000Y785000D02*
D03*
X247000Y671000D02*
D03*
X297000Y692000D02*
D03*
Y681000D02*
D03*
Y670000D02*
D03*
X241000Y633000D02*
D03*
X259000D02*
D03*
X267000Y657000D02*
D03*
X234000Y642000D02*
D03*
X274000Y606000D02*
D03*
X297000Y547000D02*
D03*
Y536000D02*
D03*
Y525000D02*
D03*
X242000Y517000D02*
D03*
X267000Y506000D02*
D03*
Y487000D02*
D03*
Y494000D02*
D03*
X234000Y487000D02*
D03*
Y493000D02*
D03*
X270000Y458000D02*
D03*
X320000Y398000D02*
D03*
Y387000D02*
D03*
Y376000D02*
D03*
X266000Y344000D02*
D03*
Y357000D02*
D03*
X234000Y358000D02*
D03*
X235000Y342000D02*
D03*
X270000Y309000D02*
D03*
X204000Y93000D02*
D03*
X215000D02*
D03*
X271000D02*
D03*
X340000Y76000D02*
D03*
Y87000D02*
D03*
Y98000D02*
D03*
Y109000D02*
D03*
X307000Y263000D02*
D03*
Y252000D02*
D03*
Y241000D02*
D03*
Y230000D02*
D03*
X250000Y187500D02*
D03*
X290000Y32500D02*
D03*
X277500Y35000D02*
D03*
X267500D02*
D03*
X225000Y85000D02*
D03*
X280000D02*
D03*
X282500Y67500D02*
D03*
X290000D02*
D03*
X297500D02*
D03*
Y60000D02*
D03*
X290000D02*
D03*
X282500D02*
D03*
X217500Y57500D02*
D03*
Y42500D02*
D03*
X255000Y60000D02*
D03*
X245000D02*
D03*
Y45000D02*
D03*
Y52500D02*
D03*
X255000D02*
D03*
Y45000D02*
D03*
X250000Y797500D02*
D03*
Y803500D02*
D03*
Y791500D02*
D03*
Y647500D02*
D03*
Y653500D02*
D03*
Y641500D02*
D03*
Y354000D02*
D03*
Y348000D02*
D03*
Y342000D02*
D03*
Y497500D02*
D03*
Y503500D02*
D03*
Y491500D02*
D03*
X244000Y241000D02*
D03*
X250000D02*
D03*
X256000D02*
D03*
X244000Y235000D02*
D03*
X250000D02*
D03*
X256000D02*
D03*
X244000Y229000D02*
D03*
X250000D02*
D03*
X256000D02*
D03*
X244000Y223000D02*
D03*
X250000D02*
D03*
X256000D02*
D03*
X244000Y217000D02*
D03*
X256000D02*
D03*
X250000D02*
D03*
Y210500D02*
D03*
Y197000D02*
D03*
Y203750D02*
D03*
M02*
